<?xml version="1.0" encoding="utf-8" standalone="no"?>
<!DOCTYPE svg PUBLIC "-//W3C//DTD SVG 1.1//EN"
  "http://www.w3.org/Graphics/SVG/1.1/DTD/svg11.dtd">
<svg xmlns:xlink="http://www.w3.org/1999/xlink" width="792pt" height="792pt" viewBox="0 0 792 792" xmlns="http://www.w3.org/2000/svg" version="1.1">
 <metadata>
  <rdf:RDF xmlns:dc="http://purl.org/dc/elements/1.1/" xmlns:cc="http://creativecommons.org/ns#" xmlns:rdf="http://www.w3.org/1999/02/22-rdf-syntax-ns#">
   <cc:Work>
    <dc:type rdf:resource="http://purl.org/dc/dcmitype/StillImage"/>
    <dc:date>2024-04-30T17:08:30.305041</dc:date>
    <dc:format>image/svg+xml</dc:format>
    <dc:creator>
     <cc:Agent>
      <dc:title>Matplotlib v3.8.4, https://matplotlib.org/</dc:title>
     </cc:Agent>
    </dc:creator>
   </cc:Work>
  </rdf:RDF>
 </metadata>
 <defs>
  <style type="text/css">*{stroke-linejoin: round; stroke-linecap: butt}</style>
 </defs>
 <g id="figure_1">
  <g id="patch_1">
   <path d="M 0 792 
L 792 792 
L 792 0 
L 0 0 
z
" style="fill: #ffffff"/>
  </g>
  <g id="axes_1">
   <g id="patch_2">
    <path d="M 99 704.88 
L 712.8 704.88 
L 712.8 95.04 
L 99 95.04 
z
" style="fill: #ffffff"/>
   </g>
   <g id="matplotlib.axis_1">
    <g id="xtick_1">
     <g id="line2d_1">
      <path d="M 126.9 704.88 
L 126.9 95.04 
" clip-path="url(#p1a900f422b)" style="fill: none; stroke: #cccccc; stroke-linecap: round"/>
     </g>
     <g id="text_1">
      <!-- 0.0 -->
      <g style="fill: #262626" transform="translate(113.15 729.65625) scale(0.22 -0.22)">
       <defs>
        <path id="TimesNewRomanPSMT-30" d="M 231 2094 
Q 231 2819 450 3342 
Q 669 3866 1031 4122 
Q 1313 4325 1613 4325 
Q 2100 4325 2488 3828 
Q 2972 3213 2972 2159 
Q 2972 1422 2759 906 
Q 2547 391 2217 158 
Q 1888 -75 1581 -75 
Q 975 -75 572 641 
Q 231 1244 231 2094 
z
M 844 2016 
Q 844 1141 1059 588 
Q 1238 122 1591 122 
Q 1759 122 1940 273 
Q 2122 425 2216 781 
Q 2359 1319 2359 2297 
Q 2359 3022 2209 3506 
Q 2097 3866 1919 4016 
Q 1791 4119 1609 4119 
Q 1397 4119 1231 3928 
Q 1006 3669 925 3112 
Q 844 2556 844 2016 
z
" transform="scale(0.015625)"/>
        <path id="TimesNewRomanPSMT-2e" d="M 800 606 
Q 947 606 1047 504 
Q 1147 403 1147 259 
Q 1147 116 1045 14 
Q 944 -88 800 -88 
Q 656 -88 554 14 
Q 453 116 453 259 
Q 453 406 554 506 
Q 656 606 800 606 
z
" transform="scale(0.015625)"/>
       </defs>
       <use xlink:href="#TimesNewRomanPSMT-30"/>
       <use xlink:href="#TimesNewRomanPSMT-2e" x="50"/>
       <use xlink:href="#TimesNewRomanPSMT-30" x="75"/>
      </g>
     </g>
    </g>
    <g id="xtick_2">
     <g id="line2d_2">
      <path d="M 238.5 704.88 
L 238.5 95.04 
" clip-path="url(#p1a900f422b)" style="fill: none; stroke: #cccccc; stroke-linecap: round"/>
     </g>
     <g id="text_2">
      <!-- 0.2 -->
      <g style="fill: #262626" transform="translate(224.75 729.65625) scale(0.22 -0.22)">
       <defs>
        <path id="TimesNewRomanPSMT-32" d="M 2934 816 
L 2638 0 
L 138 0 
L 138 116 
Q 1241 1122 1691 1759 
Q 2141 2397 2141 2925 
Q 2141 3328 1894 3587 
Q 1647 3847 1303 3847 
Q 991 3847 742 3664 
Q 494 3481 375 3128 
L 259 3128 
Q 338 3706 661 4015 
Q 984 4325 1469 4325 
Q 1984 4325 2329 3994 
Q 2675 3663 2675 3213 
Q 2675 2891 2525 2569 
Q 2294 2063 1775 1497 
Q 997 647 803 472 
L 1909 472 
Q 2247 472 2383 497 
Q 2519 522 2628 598 
Q 2738 675 2819 816 
L 2934 816 
z
" transform="scale(0.015625)"/>
       </defs>
       <use xlink:href="#TimesNewRomanPSMT-30"/>
       <use xlink:href="#TimesNewRomanPSMT-2e" x="50"/>
       <use xlink:href="#TimesNewRomanPSMT-32" x="75"/>
      </g>
     </g>
    </g>
    <g id="xtick_3">
     <g id="line2d_3">
      <path d="M 350.1 704.88 
L 350.1 95.04 
" clip-path="url(#p1a900f422b)" style="fill: none; stroke: #cccccc; stroke-linecap: round"/>
     </g>
     <g id="text_3">
      <!-- 0.4 -->
      <g style="fill: #262626" transform="translate(336.35 729.65625) scale(0.22 -0.22)">
       <defs>
        <path id="TimesNewRomanPSMT-34" d="M 2978 1563 
L 2978 1119 
L 2409 1119 
L 2409 0 
L 1894 0 
L 1894 1119 
L 100 1119 
L 100 1519 
L 2066 4325 
L 2409 4325 
L 2409 1563 
L 2978 1563 
z
M 1894 1563 
L 1894 3666 
L 406 1563 
L 1894 1563 
z
" transform="scale(0.015625)"/>
       </defs>
       <use xlink:href="#TimesNewRomanPSMT-30"/>
       <use xlink:href="#TimesNewRomanPSMT-2e" x="50"/>
       <use xlink:href="#TimesNewRomanPSMT-34" x="75"/>
      </g>
     </g>
    </g>
    <g id="xtick_4">
     <g id="line2d_4">
      <path d="M 461.7 704.88 
L 461.7 95.04 
" clip-path="url(#p1a900f422b)" style="fill: none; stroke: #cccccc; stroke-linecap: round"/>
     </g>
     <g id="text_4">
      <!-- 0.6 -->
      <g style="fill: #262626" transform="translate(447.95 729.65625) scale(0.22 -0.22)">
       <defs>
        <path id="TimesNewRomanPSMT-36" d="M 2869 4325 
L 2869 4209 
Q 2456 4169 2195 4045 
Q 1934 3922 1679 3669 
Q 1425 3416 1258 3105 
Q 1091 2794 978 2366 
Q 1428 2675 1881 2675 
Q 2316 2675 2634 2325 
Q 2953 1975 2953 1425 
Q 2953 894 2631 456 
Q 2244 -75 1606 -75 
Q 1172 -75 869 213 
Q 275 772 275 1663 
Q 275 2231 503 2743 
Q 731 3256 1154 3653 
Q 1578 4050 1965 4187 
Q 2353 4325 2688 4325 
L 2869 4325 
z
M 925 2138 
Q 869 1716 869 1456 
Q 869 1156 980 804 
Q 1091 453 1309 247 
Q 1469 100 1697 100 
Q 1969 100 2183 356 
Q 2397 613 2397 1088 
Q 2397 1622 2184 2012 
Q 1972 2403 1581 2403 
Q 1463 2403 1327 2353 
Q 1191 2303 925 2138 
z
" transform="scale(0.015625)"/>
       </defs>
       <use xlink:href="#TimesNewRomanPSMT-30"/>
       <use xlink:href="#TimesNewRomanPSMT-2e" x="50"/>
       <use xlink:href="#TimesNewRomanPSMT-36" x="75"/>
      </g>
     </g>
    </g>
    <g id="xtick_5">
     <g id="line2d_5">
      <path d="M 573.3 704.88 
L 573.3 95.04 
" clip-path="url(#p1a900f422b)" style="fill: none; stroke: #cccccc; stroke-linecap: round"/>
     </g>
     <g id="text_5">
      <!-- 0.8 -->
      <g style="fill: #262626" transform="translate(559.55 729.65625) scale(0.22 -0.22)">
       <defs>
        <path id="TimesNewRomanPSMT-38" d="M 1228 2134 
Q 725 2547 579 2797 
Q 434 3047 434 3316 
Q 434 3728 753 4026 
Q 1072 4325 1600 4325 
Q 2113 4325 2425 4047 
Q 2738 3769 2738 3413 
Q 2738 3175 2569 2928 
Q 2400 2681 1866 2347 
Q 2416 1922 2594 1678 
Q 2831 1359 2831 1006 
Q 2831 559 2490 242 
Q 2150 -75 1597 -75 
Q 994 -75 656 303 
Q 388 606 388 966 
Q 388 1247 577 1523 
Q 766 1800 1228 2134 
z
M 1719 2469 
Q 2094 2806 2194 3001 
Q 2294 3197 2294 3444 
Q 2294 3772 2109 3958 
Q 1925 4144 1606 4144 
Q 1288 4144 1088 3959 
Q 888 3775 888 3528 
Q 888 3366 970 3203 
Q 1053 3041 1206 2894 
L 1719 2469 
z
M 1375 2016 
Q 1116 1797 991 1539 
Q 866 1281 866 981 
Q 866 578 1086 336 
Q 1306 94 1647 94 
Q 1984 94 2187 284 
Q 2391 475 2391 747 
Q 2391 972 2272 1150 
Q 2050 1481 1375 2016 
z
" transform="scale(0.015625)"/>
       </defs>
       <use xlink:href="#TimesNewRomanPSMT-30"/>
       <use xlink:href="#TimesNewRomanPSMT-2e" x="50"/>
       <use xlink:href="#TimesNewRomanPSMT-38" x="75"/>
      </g>
     </g>
    </g>
    <g id="xtick_6">
     <g id="line2d_6">
      <path d="M 684.9 704.88 
L 684.9 95.04 
" clip-path="url(#p1a900f422b)" style="fill: none; stroke: #cccccc; stroke-linecap: round"/>
     </g>
     <g id="text_6">
      <!-- 1.0 -->
      <g style="fill: #262626" transform="translate(671.15 729.65625) scale(0.22 -0.22)">
       <defs>
        <path id="TimesNewRomanPSMT-31" d="M 750 3822 
L 1781 4325 
L 1884 4325 
L 1884 747 
Q 1884 391 1914 303 
Q 1944 216 2037 169 
Q 2131 122 2419 116 
L 2419 0 
L 825 0 
L 825 116 
Q 1125 122 1212 167 
Q 1300 213 1334 289 
Q 1369 366 1369 747 
L 1369 3034 
Q 1369 3497 1338 3628 
Q 1316 3728 1258 3775 
Q 1200 3822 1119 3822 
Q 1003 3822 797 3725 
L 750 3822 
z
" transform="scale(0.015625)"/>
       </defs>
       <use xlink:href="#TimesNewRomanPSMT-31"/>
       <use xlink:href="#TimesNewRomanPSMT-2e" x="50"/>
       <use xlink:href="#TimesNewRomanPSMT-30" x="75"/>
      </g>
     </g>
    </g>
    <g id="text_7">
     <!-- FPR -->
     <g style="fill: #262626" transform="translate(384.549375 755.027187) scale(0.24 -0.24)">
      <defs>
       <path id="TimesNewRomanPSMT-46" d="M 1309 4006 
L 1309 2341 
L 2081 2341 
Q 2347 2341 2470 2458 
Q 2594 2575 2634 2922 
L 2750 2922 
L 2750 1488 
L 2634 1488 
Q 2631 1734 2570 1850 
Q 2509 1966 2401 2023 
Q 2294 2081 2081 2081 
L 1309 2081 
L 1309 750 
Q 1309 428 1350 325 
Q 1381 247 1481 191 
Q 1619 116 1769 116 
L 1922 116 
L 1922 0 
L 103 0 
L 103 116 
L 253 116 
Q 516 116 634 269 
Q 709 369 709 750 
L 709 3488 
Q 709 3809 669 3913 
Q 638 3991 541 4047 
Q 406 4122 253 4122 
L 103 4122 
L 103 4238 
L 3256 4238 
L 3297 3306 
L 3188 3306 
Q 3106 3603 2998 3742 
Q 2891 3881 2733 3943 
Q 2575 4006 2244 4006 
L 1309 4006 
z
" transform="scale(0.015625)"/>
       <path id="TimesNewRomanPSMT-50" d="M 1313 1984 
L 1313 750 
Q 1313 350 1400 253 
Q 1519 116 1759 116 
L 1922 116 
L 1922 0 
L 106 0 
L 106 116 
L 266 116 
Q 534 116 650 291 
Q 713 388 713 750 
L 713 3488 
Q 713 3888 628 3984 
Q 506 4122 266 4122 
L 106 4122 
L 106 4238 
L 1659 4238 
Q 2228 4238 2556 4120 
Q 2884 4003 3109 3725 
Q 3334 3447 3334 3066 
Q 3334 2547 2992 2222 
Q 2650 1897 2025 1897 
Q 1872 1897 1694 1919 
Q 1516 1941 1313 1984 
z
M 1313 2163 
Q 1478 2131 1606 2115 
Q 1734 2100 1825 2100 
Q 2150 2100 2386 2351 
Q 2622 2603 2622 3003 
Q 2622 3278 2509 3514 
Q 2397 3750 2190 3867 
Q 1984 3984 1722 3984 
Q 1563 3984 1313 3925 
L 1313 2163 
z
" transform="scale(0.015625)"/>
       <path id="TimesNewRomanPSMT-52" d="M 4325 0 
L 3194 0 
L 1759 1981 
Q 1600 1975 1500 1975 
Q 1459 1975 1412 1976 
Q 1366 1978 1316 1981 
L 1316 750 
Q 1316 350 1403 253 
Q 1522 116 1759 116 
L 1925 116 
L 1925 0 
L 109 0 
L 109 116 
L 269 116 
Q 538 116 653 291 
Q 719 388 719 750 
L 719 3488 
Q 719 3888 631 3984 
Q 509 4122 269 4122 
L 109 4122 
L 109 4238 
L 1653 4238 
Q 2328 4238 2648 4139 
Q 2969 4041 3192 3777 
Q 3416 3513 3416 3147 
Q 3416 2756 3161 2468 
Q 2906 2181 2372 2063 
L 3247 847 
Q 3547 428 3762 290 
Q 3978 153 4325 116 
L 4325 0 
z
M 1316 2178 
Q 1375 2178 1419 2176 
Q 1463 2175 1491 2175 
Q 2097 2175 2405 2437 
Q 2713 2700 2713 3106 
Q 2713 3503 2464 3751 
Q 2216 4000 1806 4000 
Q 1625 4000 1316 3941 
L 1316 2178 
z
" transform="scale(0.015625)"/>
      </defs>
      <use xlink:href="#TimesNewRomanPSMT-46"/>
      <use xlink:href="#TimesNewRomanPSMT-50" x="55.615234"/>
      <use xlink:href="#TimesNewRomanPSMT-52" x="111.230469"/>
     </g>
    </g>
   </g>
   <g id="matplotlib.axis_2">
    <g id="ytick_1">
     <g id="line2d_7">
      <path d="M 99 677.16 
L 712.8 677.16 
" clip-path="url(#p1a900f422b)" style="fill: none; stroke: #cccccc; stroke-linecap: round"/>
     </g>
     <g id="text_8">
      <!-- 0.0 -->
      <g style="fill: #262626" transform="translate(62 684.798125) scale(0.22 -0.22)">
       <use xlink:href="#TimesNewRomanPSMT-30"/>
       <use xlink:href="#TimesNewRomanPSMT-2e" x="50"/>
       <use xlink:href="#TimesNewRomanPSMT-30" x="75"/>
      </g>
     </g>
    </g>
    <g id="ytick_2">
     <g id="line2d_8">
      <path d="M 99 566.28 
L 712.8 566.28 
" clip-path="url(#p1a900f422b)" style="fill: none; stroke: #cccccc; stroke-linecap: round"/>
     </g>
     <g id="text_9">
      <!-- 0.2 -->
      <g style="fill: #262626" transform="translate(62 573.918125) scale(0.22 -0.22)">
       <use xlink:href="#TimesNewRomanPSMT-30"/>
       <use xlink:href="#TimesNewRomanPSMT-2e" x="50"/>
       <use xlink:href="#TimesNewRomanPSMT-32" x="75"/>
      </g>
     </g>
    </g>
    <g id="ytick_3">
     <g id="line2d_9">
      <path d="M 99 455.4 
L 712.8 455.4 
" clip-path="url(#p1a900f422b)" style="fill: none; stroke: #cccccc; stroke-linecap: round"/>
     </g>
     <g id="text_10">
      <!-- 0.4 -->
      <g style="fill: #262626" transform="translate(62 463.038125) scale(0.22 -0.22)">
       <use xlink:href="#TimesNewRomanPSMT-30"/>
       <use xlink:href="#TimesNewRomanPSMT-2e" x="50"/>
       <use xlink:href="#TimesNewRomanPSMT-34" x="75"/>
      </g>
     </g>
    </g>
    <g id="ytick_4">
     <g id="line2d_10">
      <path d="M 99 344.52 
L 712.8 344.52 
" clip-path="url(#p1a900f422b)" style="fill: none; stroke: #cccccc; stroke-linecap: round"/>
     </g>
     <g id="text_11">
      <!-- 0.6 -->
      <g style="fill: #262626" transform="translate(62 352.158125) scale(0.22 -0.22)">
       <use xlink:href="#TimesNewRomanPSMT-30"/>
       <use xlink:href="#TimesNewRomanPSMT-2e" x="50"/>
       <use xlink:href="#TimesNewRomanPSMT-36" x="75"/>
      </g>
     </g>
    </g>
    <g id="ytick_5">
     <g id="line2d_11">
      <path d="M 99 233.64 
L 712.8 233.64 
" clip-path="url(#p1a900f422b)" style="fill: none; stroke: #cccccc; stroke-linecap: round"/>
     </g>
     <g id="text_12">
      <!-- 0.8 -->
      <g style="fill: #262626" transform="translate(62 241.278125) scale(0.22 -0.22)">
       <use xlink:href="#TimesNewRomanPSMT-30"/>
       <use xlink:href="#TimesNewRomanPSMT-2e" x="50"/>
       <use xlink:href="#TimesNewRomanPSMT-38" x="75"/>
      </g>
     </g>
    </g>
    <g id="ytick_6">
     <g id="line2d_12">
      <path d="M 99 122.76 
L 712.8 122.76 
" clip-path="url(#p1a900f422b)" style="fill: none; stroke: #cccccc; stroke-linecap: round"/>
     </g>
     <g id="text_13">
      <!-- 1.0 -->
      <g style="fill: #262626" transform="translate(62 130.398125) scale(0.22 -0.22)">
       <use xlink:href="#TimesNewRomanPSMT-31"/>
       <use xlink:href="#TimesNewRomanPSMT-2e" x="50"/>
       <use xlink:href="#TimesNewRomanPSMT-30" x="75"/>
      </g>
     </g>
    </g>
    <g id="text_14">
     <!-- TPR -->
     <g style="fill: #262626" transform="translate(52.86625 421.966875) rotate(-90) scale(0.24 -0.24)">
      <defs>
       <path id="TimesNewRomanPSMT-54" d="M 3703 4238 
L 3750 3244 
L 3631 3244 
Q 3597 3506 3538 3619 
Q 3441 3800 3280 3886 
Q 3119 3972 2856 3972 
L 2259 3972 
L 2259 734 
Q 2259 344 2344 247 
Q 2463 116 2709 116 
L 2856 116 
L 2856 0 
L 1059 0 
L 1059 116 
L 1209 116 
Q 1478 116 1591 278 
Q 1659 378 1659 734 
L 1659 3972 
L 1150 3972 
Q 853 3972 728 3928 
Q 566 3869 450 3700 
Q 334 3531 313 3244 
L 194 3244 
L 244 4238 
L 3703 4238 
z
" transform="scale(0.015625)"/>
      </defs>
      <use xlink:href="#TimesNewRomanPSMT-54"/>
      <use xlink:href="#TimesNewRomanPSMT-50" x="61.083984"/>
      <use xlink:href="#TimesNewRomanPSMT-52" x="116.699219"/>
     </g>
    </g>
   </g>
   <g id="PolyCollection_1">
    <path d="M 126.9 675.752893 
L 126.9 677.16 
L 129.251124 675.752893 
L 130.818539 668.71736 
L 130.818539 663.088934 
L 130.818539 663.088934 
L 129.251124 672.93868 
L 126.9 675.752893 
z
" clip-path="url(#p1a900f422b)" style="fill: #a1c9f4; fill-opacity: 0.2; stroke: #a1c9f4; stroke-opacity: 0.2"/>
    <path d="M 137.87191 654.646294 
L 137.87191 657.460508 
L 137.87191 654.646294 
L 137.87191 654.646294 
z
" clip-path="url(#p1a900f422b)" style="fill: #a1c9f4; fill-opacity: 0.2; stroke: #a1c9f4; stroke-opacity: 0.2"/>
    <path d="M 143.357865 649.721421 
L 143.357865 651.128528 
L 145.708989 648.138426 
L 147.276404 638.464569 
L 148.060112 630.021929 
L 149.627528 619.468629 
L 150.411236 604.69401 
L 151.978652 602.58335 
L 153.546067 598.36203 
L 155.113483 596.251371 
L 155.113483 590.622944 
L 155.113483 590.622944 
L 153.546067 596.251371 
L 151.978652 599.065584 
L 150.411236 603.286904 
L 149.627528 606.80467 
L 148.060112 624.393503 
L 147.276404 633.398985 
L 145.708989 641.982335 
L 143.357865 649.721421 
z
" clip-path="url(#p1a900f422b)" style="fill: #a1c9f4; fill-opacity: 0.2; stroke: #a1c9f4; stroke-opacity: 0.2"/>
    <path d="M 158.248315 582.883858 
L 158.248315 587.105178 
L 159.032022 581.476751 
L 159.032022 577.255431 
L 159.032022 577.255431 
L 158.248315 582.883858 
z
" clip-path="url(#p1a900f422b)" style="fill: #a1c9f4; fill-opacity: 0.2; stroke: #a1c9f4; stroke-opacity: 0.2"/>
    <path d="M 163.73427 566.702132 
L 163.73427 575.144772 
L 166.085393 565.295025 
L 166.085393 558.259492 
L 166.085393 558.259492 
L 163.73427 566.702132 
z
" clip-path="url(#p1a900f422b)" style="fill: #a1c9f4; fill-opacity: 0.2; stroke: #a1c9f4; stroke-opacity: 0.2"/>
    <path d="M 170.78764 551.927513 
L 170.78764 556.148832 
L 170.78764 551.927513 
L 170.78764 551.927513 
z
" clip-path="url(#p1a900f422b)" style="fill: #a1c9f4; fill-opacity: 0.2; stroke: #a1c9f4; stroke-opacity: 0.2"/>
    <path d="M 175.489888 547.00264 
L 175.489888 549.816853 
L 177.057303 546.299086 
L 177.057303 544.89198 
L 177.057303 544.89198 
L 175.489888 547.00264 
z
" clip-path="url(#p1a900f422b)" style="fill: #a1c9f4; fill-opacity: 0.2; stroke: #a1c9f4; stroke-opacity: 0.2"/>
    <path d="M 180.975843 529.97665 
L 180.975843 538.137868 
L 182.543258 528.006701 
L 184.110674 523.785381 
L 184.110674 516.749848 
L 184.110674 516.749848 
L 182.543258 524.488934 
L 180.975843 529.97665 
z
" clip-path="url(#p1a900f422b)" style="fill: #a1c9f4; fill-opacity: 0.2; stroke: #a1c9f4; stroke-opacity: 0.2"/>
    <path d="M 188.029213 514.639188 
L 188.029213 516.749848 
L 189.596629 511.824975 
L 191.164045 506.196548 
L 191.164045 503.382335 
L 191.164045 503.382335 
L 189.596629 507.603655 
L 188.029213 514.639188 
z
" clip-path="url(#p1a900f422b)" style="fill: #a1c9f4; fill-opacity: 0.2; stroke: #a1c9f4; stroke-opacity: 0.2"/>
    <path d="M 193.515169 497.753909 
L 193.515169 499.161015 
L 193.515169 497.753909 
L 193.515169 497.753909 
z
" clip-path="url(#p1a900f422b)" style="fill: #a1c9f4; fill-opacity: 0.2; stroke: #a1c9f4; stroke-opacity: 0.2"/>
    <path d="M 199.001124 487.904162 
L 199.001124 496.346802 
L 199.001124 487.904162 
L 199.001124 487.904162 
z
" clip-path="url(#p1a900f422b)" style="fill: #a1c9f4; fill-opacity: 0.2; stroke: #a1c9f4; stroke-opacity: 0.2"/>
    <path d="M 202.135955 479.461523 
L 202.135955 486.497056 
L 205.270787 478.054416 
L 206.054494 468.20467 
L 208.405618 462.576244 
L 208.405618 459.76203 
L 208.405618 459.76203 
L 206.054494 462.576244 
L 205.270787 469.611777 
L 202.135955 479.461523 
z
" clip-path="url(#p1a900f422b)" style="fill: #a1c9f4; fill-opacity: 0.2; stroke: #a1c9f4; stroke-opacity: 0.2"/>
    <path d="M 211.540449 456.244264 
L 211.540449 457.651371 
L 211.540449 456.244264 
L 211.540449 456.244264 
z
" clip-path="url(#p1a900f422b)" style="fill: #a1c9f4; fill-opacity: 0.2; stroke: #a1c9f4; stroke-opacity: 0.2"/>
    <path d="M 219.377528 451.319391 
L 219.377528 454.133604 
L 219.377528 451.319391 
L 219.377528 451.319391 
z
" clip-path="url(#p1a900f422b)" style="fill: #a1c9f4; fill-opacity: 0.2; stroke: #a1c9f4; stroke-opacity: 0.2"/>
    <path d="M 222.51236 440.766091 
L 222.51236 449.912284 
L 224.079775 440.062538 
L 224.079775 435.841218 
L 224.079775 435.841218 
L 222.51236 440.766091 
z
" clip-path="url(#p1a900f422b)" style="fill: #a1c9f4; fill-opacity: 0.2; stroke: #a1c9f4; stroke-opacity: 0.2"/>
    <path d="M 227.998315 430.212792 
L 227.998315 433.027005 
L 227.998315 430.212792 
L 227.998315 430.212792 
z
" clip-path="url(#p1a900f422b)" style="fill: #a1c9f4; fill-opacity: 0.2; stroke: #a1c9f4; stroke-opacity: 0.2"/>
    <path d="M 234.267978 418.076497 
L 234.267978 424.408477 
L 234.267978 418.076497 
L 234.267978 418.076497 
z
" clip-path="url(#p1a900f422b)" style="fill: #a1c9f4; fill-opacity: 0.2; stroke: #a1c9f4; stroke-opacity: 0.2"/>
    <path d="M 238.970225 413.327513 
L 238.970225 414.734619 
L 240.53764 412.623959 
L 241.321348 409.809746 
L 241.321348 406.995533 
L 241.321348 406.995533 
L 240.53764 411.216853 
L 238.970225 413.327513 
z
" clip-path="url(#p1a900f422b)" style="fill: #a1c9f4; fill-opacity: 0.2; stroke: #a1c9f4; stroke-opacity: 0.2"/>
    <path d="M 247.591011 402.774213 
L 247.591011 405.588426 
L 249.158427 402.07066 
L 251.509551 399.256447 
L 251.509551 386.592487 
L 251.509551 386.592487 
L 249.158427 399.256447 
L 247.591011 402.774213 
z
" clip-path="url(#p1a900f422b)" style="fill: #a1c9f4; fill-opacity: 0.2; stroke: #a1c9f4; stroke-opacity: 0.2"/>
    <path d="M 259.346629 381.667614 
L 259.346629 385.888934 
L 259.346629 381.667614 
L 259.346629 381.667614 
z
" clip-path="url(#p1a900f422b)" style="fill: #a1c9f4; fill-opacity: 0.2; stroke: #a1c9f4; stroke-opacity: 0.2"/>
    <path d="M 261.697753 377.446294 
L 261.697753 380.260508 
L 264.048876 377.446294 
L 264.048876 376.039188 
L 264.048876 376.039188 
L 261.697753 377.446294 
z
" clip-path="url(#p1a900f422b)" style="fill: #a1c9f4; fill-opacity: 0.2; stroke: #a1c9f4; stroke-opacity: 0.2"/>
    <path d="M 267.967416 366.752284 
L 267.967416 372.802843 
L 269.534831 364.078782 
L 269.534831 358.450355 
L 269.534831 358.450355 
L 267.967416 366.752284 
z
" clip-path="url(#p1a900f422b)" style="fill: #a1c9f4; fill-opacity: 0.2; stroke: #a1c9f4; stroke-opacity: 0.2"/>
    <path d="M 273.453371 354.932589 
L 273.453371 357.746802 
L 276.588202 353.525482 
L 276.588202 349.304162 
L 276.588202 349.304162 
L 273.453371 354.932589 
z
" clip-path="url(#p1a900f422b)" style="fill: #a1c9f4; fill-opacity: 0.2; stroke: #a1c9f4; stroke-opacity: 0.2"/>
    <path d="M 279.723034 345.082843 
L 279.723034 347.897056 
L 279.723034 345.082843 
L 279.723034 345.082843 
z
" clip-path="url(#p1a900f422b)" style="fill: #a1c9f4; fill-opacity: 0.2; stroke: #a1c9f4; stroke-opacity: 0.2"/>
    <path d="M 282.074157 340.861523 
L 282.074157 343.675736 
L 282.074157 340.861523 
L 282.074157 340.861523 
z
" clip-path="url(#p1a900f422b)" style="fill: #a1c9f4; fill-opacity: 0.2; stroke: #a1c9f4; stroke-opacity: 0.2"/>
    <path d="M 286.776404 337.343756 
L 286.776404 338.750863 
L 291.478652 337.343756 
L 293.046067 334.529543 
L 293.046067 331.71533 
L 293.046067 331.71533 
L 291.478652 335.93665 
L 286.776404 337.343756 
z
" clip-path="url(#p1a900f422b)" style="fill: #a1c9f4; fill-opacity: 0.2; stroke: #a1c9f4; stroke-opacity: 0.2"/>
    <path d="M 298.532022 328.197563 
L 298.532022 331.011777 
L 300.883146 328.197563 
L 300.883146 323.976244 
L 300.883146 323.976244 
L 298.532022 328.197563 
z
" clip-path="url(#p1a900f422b)" style="fill: #a1c9f4; fill-opacity: 0.2; stroke: #a1c9f4; stroke-opacity: 0.2"/>
    <path d="M 304.801685 315.533604 
L 304.801685 322.569137 
L 306.369101 314.830051 
L 306.369101 306.387411 
L 306.369101 306.387411 
L 304.801685 315.533604 
z
" clip-path="url(#p1a900f422b)" style="fill: #a1c9f4; fill-opacity: 0.2; stroke: #a1c9f4; stroke-opacity: 0.2"/>
    <path d="M 309.503933 302.166091 
L 309.503933 304.980305 
L 309.503933 302.166091 
L 309.503933 302.166091 
z
" clip-path="url(#p1a900f422b)" style="fill: #a1c9f4; fill-opacity: 0.2; stroke: #a1c9f4; stroke-opacity: 0.2"/>
    <path d="M 316.557303 298.648325 
L 316.557303 300.055431 
L 318.908427 298.648325 
L 318.908427 297.241218 
L 318.908427 297.241218 
L 316.557303 298.648325 
z
" clip-path="url(#p1a900f422b)" style="fill: #a1c9f4; fill-opacity: 0.2; stroke: #a1c9f4; stroke-opacity: 0.2"/>
    <path d="M 324.394382 291.612792 
L 324.394382 295.834112 
L 324.394382 291.612792 
L 324.394382 291.612792 
z
" clip-path="url(#p1a900f422b)" style="fill: #a1c9f4; fill-opacity: 0.2; stroke: #a1c9f4; stroke-opacity: 0.2"/>
    <path d="M 329.880337 284.577259 
L 329.880337 288.095025 
L 331.447753 282.466599 
L 333.015169 274.023959 
L 333.015169 270.506193 
L 333.015169 270.506193 
L 331.447753 278.069391 
L 329.880337 284.577259 
z
" clip-path="url(#p1a900f422b)" style="fill: #a1c9f4; fill-opacity: 0.2; stroke: #a1c9f4; stroke-opacity: 0.2"/>
    <path d="M 337.717416 266.284873 
L 337.717416 268.395533 
L 337.717416 266.284873 
L 337.717416 266.284873 
z
" clip-path="url(#p1a900f422b)" style="fill: #a1c9f4; fill-opacity: 0.2; stroke: #a1c9f4; stroke-opacity: 0.2"/>
    <path d="M 348.689326 257.842234 
L 348.689326 259.952893 
L 348.689326 257.842234 
L 348.689326 257.842234 
z
" clip-path="url(#p1a900f422b)" style="fill: #a1c9f4; fill-opacity: 0.2; stroke: #a1c9f4; stroke-opacity: 0.2"/>
    <path d="M 359.661236 250.103147 
L 359.661236 252.91736 
L 361.228652 250.103147 
L 361.228652 248.696041 
L 361.228652 248.696041 
L 359.661236 250.103147 
z
" clip-path="url(#p1a900f422b)" style="fill: #a1c9f4; fill-opacity: 0.2; stroke: #a1c9f4; stroke-opacity: 0.2"/>
    <path d="M 373.767978 236.032081 
L 373.767978 243.419391 
L 373.767978 236.032081 
L 373.767978 236.032081 
z
" clip-path="url(#p1a900f422b)" style="fill: #a1c9f4; fill-opacity: 0.2; stroke: #a1c9f4; stroke-opacity: 0.2"/>
    <path d="M 383.95618 228.292995 
L 383.95618 231.810761 
L 385.523596 227.589442 
L 385.523596 224.775228 
L 385.523596 224.775228 
L 383.95618 228.292995 
z
" clip-path="url(#p1a900f422b)" style="fill: #a1c9f4; fill-opacity: 0.2; stroke: #a1c9f4; stroke-opacity: 0.2"/>
    <path d="M 388.658427 216.332589 
L 388.658427 223.368122 
L 388.658427 216.332589 
L 388.658427 216.332589 
z
" clip-path="url(#p1a900f422b)" style="fill: #a1c9f4; fill-opacity: 0.2; stroke: #a1c9f4; stroke-opacity: 0.2"/>
    <path d="M 398.062921 211.407716 
L 398.062921 214.221929 
L 400.414045 211.407716 
L 400.414045 209.297056 
L 400.414045 209.297056 
L 398.062921 211.407716 
z
" clip-path="url(#p1a900f422b)" style="fill: #a1c9f4; fill-opacity: 0.2; stroke: #a1c9f4; stroke-opacity: 0.2"/>
    <path d="M 403.548876 205.779289 
L 403.548876 207.889949 
L 405.116292 205.075736 
L 407.467416 200.854416 
L 407.467416 198.040203 
L 407.467416 198.040203 
L 405.116292 200.854416 
L 403.548876 205.779289 
z
" clip-path="url(#p1a900f422b)" style="fill: #a1c9f4; fill-opacity: 0.2; stroke: #a1c9f4; stroke-opacity: 0.2"/>
    <path d="M 423.141573 195.929543 
L 423.141573 197.33665 
L 423.141573 195.929543 
L 423.141573 195.929543 
z
" clip-path="url(#p1a900f422b)" style="fill: #a1c9f4; fill-opacity: 0.2; stroke: #a1c9f4; stroke-opacity: 0.2"/>
    <path d="M 429.411236 193.818883 
L 429.411236 195.22599 
L 432.546067 192.411777 
L 434.113483 191.00467 
L 434.113483 188.190457 
L 434.113483 188.190457 
L 432.546067 191.708223 
L 429.411236 193.818883 
z
" clip-path="url(#p1a900f422b)" style="fill: #a1c9f4; fill-opacity: 0.2; stroke: #a1c9f4; stroke-opacity: 0.2"/>
    <path d="M 438.81573 182.56203 
L 438.81573 186.079797 
L 438.81573 182.56203 
L 438.81573 182.56203 
z
" clip-path="url(#p1a900f422b)" style="fill: #a1c9f4; fill-opacity: 0.2; stroke: #a1c9f4; stroke-opacity: 0.2"/>
    <path d="M 442.73427 180.451371 
L 442.73427 181.858477 
L 442.73427 180.451371 
L 442.73427 180.451371 
z
" clip-path="url(#p1a900f422b)" style="fill: #a1c9f4; fill-opacity: 0.2; stroke: #a1c9f4; stroke-opacity: 0.2"/>
    <path d="M 470.947753 172.712284 
L 470.947753 174.119391 
L 470.947753 172.712284 
L 470.947753 172.712284 
z
" clip-path="url(#p1a900f422b)" style="fill: #a1c9f4; fill-opacity: 0.2; stroke: #a1c9f4; stroke-opacity: 0.2"/>
    <path d="M 487.405618 167.787411 
L 487.405618 169.194518 
L 489.756742 167.787411 
L 489.756742 166.380305 
L 489.756742 166.380305 
L 487.405618 167.787411 
z
" clip-path="url(#p1a900f422b)" style="fill: #a1c9f4; fill-opacity: 0.2; stroke: #a1c9f4; stroke-opacity: 0.2"/>
    <path d="M 510.916854 157.234112 
L 510.916854 159.344772 
L 510.916854 157.234112 
L 510.916854 157.234112 
z
" clip-path="url(#p1a900f422b)" style="fill: #a1c9f4; fill-opacity: 0.2; stroke: #a1c9f4; stroke-opacity: 0.2"/>
    <path d="M 516.402809 153.012792 
L 516.402809 155.827005 
L 518.753933 153.012792 
L 518.753933 151.605685 
L 518.753933 151.605685 
L 516.402809 153.012792 
z
" clip-path="url(#p1a900f422b)" style="fill: #a1c9f4; fill-opacity: 0.2; stroke: #a1c9f4; stroke-opacity: 0.2"/>
    <path d="M 532.076966 148.087919 
L 532.076966 150.902132 
L 532.076966 148.087919 
L 532.076966 148.087919 
z
" clip-path="url(#p1a900f422b)" style="fill: #a1c9f4; fill-opacity: 0.2; stroke: #a1c9f4; stroke-opacity: 0.2"/>
    <path d="M 574.397191 139.645279 
L 574.397191 141.755939 
L 574.397191 139.645279 
L 574.397191 139.645279 
z
" clip-path="url(#p1a900f422b)" style="fill: #a1c9f4; fill-opacity: 0.2; stroke: #a1c9f4; stroke-opacity: 0.2"/>
    <path d="M 584.585393 136.831066 
L 584.585393 138.238173 
L 584.585393 136.831066 
L 584.585393 136.831066 
z
" clip-path="url(#p1a900f422b)" style="fill: #a1c9f4; fill-opacity: 0.2; stroke: #a1c9f4; stroke-opacity: 0.2"/>
    <path d="M 593.989888 132.609746 
L 593.989888 134.720406 
L 593.989888 132.609746 
L 593.989888 132.609746 
z
" clip-path="url(#p1a900f422b)" style="fill: #a1c9f4; fill-opacity: 0.2; stroke: #a1c9f4; stroke-opacity: 0.2"/>
    <path d="M 670.793258 122.76 
L 670.793258 125.574213 
L 670.793258 122.76 
L 670.793258 122.76 
z
" clip-path="url(#p1a900f422b)" style="fill: #a1c9f4; fill-opacity: 0.2; stroke: #a1c9f4; stroke-opacity: 0.2"/>
   </g>
   <g id="line2d_13">
    <path d="M 126.9 676.456447 
L 129.251124 674.345787 
L 130.818539 665.434112 
L 132.385955 658.867614 
L 137.088202 658.867614 
L 137.87191 656.053401 
L 141.006742 653.239188 
L 141.790449 651.832081 
L 143.357865 650.424975 
L 145.708989 644.972437 
L 147.276404 635.931777 
L 148.060112 627.207716 
L 149.627528 613.13665 
L 150.411236 603.990457 
L 151.978652 600.941726 
L 156.680899 589.919391 
L 158.248315 584.994518 
L 159.032022 579.366091 
L 163.73427 570.923452 
L 166.085393 561.542741 
L 166.869101 556.852386 
L 169.220225 556.852386 
L 170.78764 554.038173 
L 173.138764 551.927513 
L 173.922472 550.520406 
L 175.489888 548.409746 
L 177.057303 545.595533 
L 178.624719 542.077766 
L 180.975843 533.916548 
L 182.543258 526.130558 
L 184.110674 520.502132 
L 186.461798 516.749848 
L 188.029213 515.694518 
L 189.596629 509.714315 
L 191.164045 504.789442 
L 193.515169 498.457462 
L 195.082584 497.050355 
L 197.433708 497.050355 
L 199.001124 492.125482 
L 201.352247 487.904162 
L 202.135955 483.213807 
L 205.270787 473.833096 
L 206.054494 465.859492 
L 208.405618 461.169137 
L 209.973034 458.354924 
L 211.540449 456.947817 
L 216.242697 456.244264 
L 217.810112 454.837157 
L 219.377528 452.726497 
L 220.161236 449.912284 
L 222.51236 445.456447 
L 224.863483 434.434112 
L 229.56573 430.212792 
L 231.133146 427.398579 
L 233.48427 427.398579 
L 235.051685 415.438173 
L 237.402809 415.438173 
L 238.970225 414.031066 
L 240.53764 411.920406 
L 241.321348 408.40264 
L 246.023596 406.995533 
L 247.591011 404.18132 
L 249.158427 400.663553 
L 251.509551 393.62802 
L 253.076966 386.592487 
L 255.42809 386.592487 
L 256.995506 385.888934 
L 259.346629 383.778274 
L 260.130337 380.260508 
L 264.048876 376.742741 
L 266.4 376.039188 
L 267.967416 369.847919 
L 269.534831 361.264569 
L 271.885955 358.450355 
L 273.453371 356.339695 
L 276.588202 351.414822 
L 278.939326 349.304162 
L 280.506742 343.675736 
L 282.074157 342.268629 
L 282.857865 339.454416 
L 285.208989 339.454416 
L 286.776404 338.04731 
L 291.478652 336.640203 
L 293.046067 333.122437 
L 294.613483 331.71533 
L 296.964607 331.71533 
L 298.532022 329.60467 
L 300.883146 326.086904 
L 303.23427 323.976244 
L 304.801685 318.816853 
L 306.369101 310.608731 
L 307.152809 304.980305 
L 311.855056 302.166091 
L 312.638764 300.758985 
L 314.989888 300.758985 
L 316.557303 299.351878 
L 318.908427 297.944772 
L 319.692135 295.834112 
L 324.394382 293.723452 
L 325.17809 290.205685 
L 327.529213 290.205685 
L 329.096629 289.502132 
L 331.447753 280.355939 
L 333.015169 272.382335 
L 335.366292 268.395533 
L 344.770787 264.174213 
L 346.338202 264.174213 
L 348.689326 258.897563 
L 351.040449 257.842234 
L 352.607865 256.435127 
L 354.958989 256.435127 
L 356.526404 253.620914 
L 358.09382 252.91736 
L 359.661236 251.510254 
L 361.228652 249.399594 
L 365.930899 248.696041 
L 367.498315 247.992487 
L 369.06573 246.585381 
L 370.633146 245.881827 
L 372.98427 245.881827 
L 373.767978 239.725736 
L 381.605056 231.810761 
L 383.95618 230.169137 
L 385.523596 226.182335 
L 386.307303 223.368122 
L 388.658427 219.615838 
L 389.442135 214.925482 
L 394.144382 214.925482 
L 395.711798 214.221929 
L 398.062921 212.814822 
L 400.414045 210.352386 
L 402.765169 209.297056 
L 403.548876 206.834619 
L 405.116292 202.965076 
L 407.467416 199.44731 
L 419.223034 198.040203 
L 420.790449 197.33665 
L 423.141573 196.633096 
L 424.708989 195.22599 
L 429.411236 194.522437 
L 432.546067 192.06 
L 434.113483 189.597563 
L 435.680899 187.486904 
L 436.464607 186.079797 
L 438.81573 184.438173 
L 440.383146 181.858477 
L 442.73427 181.154924 
L 444.301685 179.044264 
L 455.273596 179.044264 
L 456.841011 178.340711 
L 461.543258 178.340711 
L 464.67809 176.933604 
L 467.029213 176.933604 
L 470.164045 175.526497 
L 470.947753 173.415838 
L 472.515169 172.008731 
L 474.866292 172.008731 
L 476.433708 171.305178 
L 480.352247 171.305178 
L 481.919663 170.601624 
L 484.270787 170.601624 
L 487.405618 168.490964 
L 489.756742 167.083858 
L 491.324157 164.973198 
L 492.891573 164.269645 
L 493.675281 162.862538 
L 498.377528 162.862538 
L 499.944944 162.158985 
L 504.647191 162.158985 
L 506.214607 161.455431 
L 506.998315 160.048325 
L 509.349438 160.048325 
L 512.48427 156.530558 
L 514.835393 156.530558 
L 516.402809 154.419898 
L 518.753933 152.309239 
L 525.807303 151.605685 
L 527.374719 150.902132 
L 532.076966 149.495025 
L 534.42809 148.087919 
L 535.211798 146.680812 
L 537.562921 146.680812 
L 539.130337 145.977259 
L 560.290449 145.977259 
L 563.425281 144.570152 
L 568.127528 144.570152 
L 569.694944 141.755939 
L 574.397191 140.700609 
L 581.450562 139.645279 
L 582.23427 138.238173 
L 586.936517 136.831066 
L 587.720225 135.423959 
L 589.28764 134.720406 
L 593.989888 133.665076 
L 605.745506 132.609746 
L 606.529213 131.20264 
L 615.933708 131.20264 
L 617.501124 130.499086 
L 619.852247 130.499086 
L 621.419663 129.795533 
L 623.770787 129.795533 
L 624.554494 128.388426 
L 631.607865 128.388426 
L 633.175281 127.684873 
L 644.930899 127.684873 
L 646.498315 126.98132 
L 651.200562 126.98132 
L 652.767978 126.277766 
L 662.172472 126.277766 
L 663.739888 125.574213 
L 670.793258 124.167107 
L 684.9 122.76 
L 684.9 122.76 
" clip-path="url(#p1a900f422b)" style="fill: none; stroke: #a1c9f4; stroke-width: 6; stroke-linecap: round"/>
   </g>
   <g id="patch_3">
    <path d="M 99 704.88 
L 99 95.04 
" style="fill: none; stroke: #cccccc; stroke-width: 1.25; stroke-linejoin: miter; stroke-linecap: square"/>
   </g>
   <g id="patch_4">
    <path d="M 712.8 704.88 
L 712.8 95.04 
" style="fill: none; stroke: #cccccc; stroke-width: 1.25; stroke-linejoin: miter; stroke-linecap: square"/>
   </g>
   <g id="patch_5">
    <path d="M 99 704.88 
L 712.8 704.88 
" style="fill: none; stroke: #cccccc; stroke-width: 1.25; stroke-linejoin: miter; stroke-linecap: square"/>
   </g>
   <g id="patch_6">
    <path d="M 99 95.04 
L 712.8 95.04 
" style="fill: none; stroke: #cccccc; stroke-width: 1.25; stroke-linejoin: miter; stroke-linecap: square"/>
   </g>
   <g id="text_15">
    <!-- ROC Curve: all -->
    <g style="fill: #262626" transform="translate(330.57 89.04) scale(0.24 -0.24)">
     <defs>
      <path id="TimesNewRomanPSMT-4f" d="M 2341 4334 
Q 3166 4334 3770 3707 
Q 4375 3081 4375 2144 
Q 4375 1178 3765 540 
Q 3156 -97 2291 -97 
Q 1416 -97 820 525 
Q 225 1147 225 2134 
Q 225 3144 913 3781 
Q 1509 4334 2341 4334 
z
M 2281 4106 
Q 1713 4106 1369 3684 
Q 941 3159 941 2147 
Q 941 1109 1384 550 
Q 1725 125 2284 125 
Q 2881 125 3270 590 
Q 3659 1056 3659 2059 
Q 3659 3147 3231 3681 
Q 2888 4106 2281 4106 
z
" transform="scale(0.015625)"/>
      <path id="TimesNewRomanPSMT-43" d="M 3853 4334 
L 3950 2894 
L 3853 2894 
Q 3659 3541 3300 3825 
Q 2941 4109 2438 4109 
Q 2016 4109 1675 3895 
Q 1334 3681 1139 3212 
Q 944 2744 944 2047 
Q 944 1472 1128 1050 
Q 1313 628 1683 403 
Q 2053 178 2528 178 
Q 2941 178 3256 354 
Q 3572 531 3950 1056 
L 4047 994 
Q 3728 428 3303 165 
Q 2878 -97 2294 -97 
Q 1241 -97 663 684 
Q 231 1266 231 2053 
Q 231 2688 515 3219 
Q 800 3750 1298 4042 
Q 1797 4334 2388 4334 
Q 2847 4334 3294 4109 
Q 3425 4041 3481 4041 
Q 3566 4041 3628 4100 
Q 3709 4184 3744 4334 
L 3853 4334 
z
" transform="scale(0.015625)"/>
      <path id="TimesNewRomanPSMT-20" transform="scale(0.015625)"/>
      <path id="TimesNewRomanPSMT-75" d="M 2709 2863 
L 2709 1128 
Q 2709 631 2732 520 
Q 2756 409 2807 365 
Q 2859 322 2928 322 
Q 3025 322 3147 375 
L 3191 266 
L 2334 -88 
L 2194 -88 
L 2194 519 
Q 1825 119 1631 15 
Q 1438 -88 1222 -88 
Q 981 -88 804 51 
Q 628 191 559 409 
Q 491 628 491 1028 
L 491 2306 
Q 491 2509 447 2587 
Q 403 2666 317 2708 
Q 231 2750 6 2747 
L 6 2863 
L 1009 2863 
L 1009 947 
Q 1009 547 1148 422 
Q 1288 297 1484 297 
Q 1619 297 1789 381 
Q 1959 466 2194 703 
L 2194 2325 
Q 2194 2569 2105 2655 
Q 2016 2741 1734 2747 
L 1734 2863 
L 2709 2863 
z
" transform="scale(0.015625)"/>
      <path id="TimesNewRomanPSMT-72" d="M 1038 2947 
L 1038 2303 
Q 1397 2947 1775 2947 
Q 1947 2947 2059 2842 
Q 2172 2738 2172 2600 
Q 2172 2478 2090 2393 
Q 2009 2309 1897 2309 
Q 1788 2309 1652 2417 
Q 1516 2525 1450 2525 
Q 1394 2525 1328 2463 
Q 1188 2334 1038 2041 
L 1038 669 
Q 1038 431 1097 309 
Q 1138 225 1241 169 
Q 1344 113 1538 113 
L 1538 0 
L 72 0 
L 72 113 
Q 291 113 397 181 
Q 475 231 506 341 
Q 522 394 522 644 
L 522 1753 
Q 522 2253 501 2348 
Q 481 2444 426 2487 
Q 372 2531 291 2531 
Q 194 2531 72 2484 
L 41 2597 
L 906 2947 
L 1038 2947 
z
" transform="scale(0.015625)"/>
      <path id="TimesNewRomanPSMT-76" d="M 53 2863 
L 1400 2863 
L 1400 2747 
L 1313 2747 
Q 1191 2747 1127 2687 
Q 1063 2628 1063 2528 
Q 1063 2419 1128 2269 
L 1794 688 
L 2463 2328 
Q 2534 2503 2534 2594 
Q 2534 2638 2509 2666 
Q 2475 2713 2422 2730 
Q 2369 2747 2206 2747 
L 2206 2863 
L 3141 2863 
L 3141 2747 
Q 2978 2734 2916 2681 
Q 2806 2588 2719 2369 
L 1703 -88 
L 1575 -88 
L 553 2328 
Q 484 2497 421 2570 
Q 359 2644 263 2694 
Q 209 2722 53 2747 
L 53 2863 
z
" transform="scale(0.015625)"/>
      <path id="TimesNewRomanPSMT-65" d="M 681 1784 
Q 678 1147 991 784 
Q 1303 422 1725 422 
Q 2006 422 2214 576 
Q 2422 731 2563 1106 
L 2659 1044 
Q 2594 616 2278 264 
Q 1963 -88 1488 -88 
Q 972 -88 605 314 
Q 238 716 238 1394 
Q 238 2128 614 2539 
Q 991 2950 1559 2950 
Q 2041 2950 2350 2633 
Q 2659 2316 2659 1784 
L 681 1784 
z
M 681 1966 
L 2006 1966 
Q 1991 2241 1941 2353 
Q 1863 2528 1708 2628 
Q 1553 2728 1384 2728 
Q 1125 2728 920 2526 
Q 716 2325 681 1966 
z
" transform="scale(0.015625)"/>
      <path id="TimesNewRomanPSMT-3a" d="M 903 2950 
Q 1047 2950 1148 2848 
Q 1250 2747 1250 2603 
Q 1250 2459 1148 2357 
Q 1047 2256 903 2256 
Q 759 2256 657 2357 
Q 556 2459 556 2603 
Q 556 2747 657 2848 
Q 759 2950 903 2950 
z
M 897 609 
Q 1044 609 1145 506 
Q 1247 403 1247 259 
Q 1247 116 1144 14 
Q 1041 -88 897 -88 
Q 753 -88 651 14 
Q 550 116 550 259 
Q 550 403 651 506 
Q 753 609 897 609 
z
" transform="scale(0.015625)"/>
      <path id="TimesNewRomanPSMT-61" d="M 1822 413 
Q 1381 72 1269 19 
Q 1100 -59 909 -59 
Q 613 -59 420 144 
Q 228 347 228 678 
Q 228 888 322 1041 
Q 450 1253 767 1440 
Q 1084 1628 1822 1897 
L 1822 2009 
Q 1822 2438 1686 2597 
Q 1550 2756 1291 2756 
Q 1094 2756 978 2650 
Q 859 2544 859 2406 
L 866 2225 
Q 866 2081 792 2003 
Q 719 1925 600 1925 
Q 484 1925 411 2006 
Q 338 2088 338 2228 
Q 338 2497 613 2722 
Q 888 2947 1384 2947 
Q 1766 2947 2009 2819 
Q 2194 2722 2281 2516 
Q 2338 2381 2338 1966 
L 2338 994 
Q 2338 584 2353 492 
Q 2369 400 2405 369 
Q 2441 338 2488 338 
Q 2538 338 2575 359 
Q 2641 400 2828 588 
L 2828 413 
Q 2478 -56 2159 -56 
Q 2006 -56 1915 50 
Q 1825 156 1822 413 
z
M 1822 616 
L 1822 1706 
Q 1350 1519 1213 1441 
Q 966 1303 859 1153 
Q 753 1003 753 825 
Q 753 600 887 451 
Q 1022 303 1197 303 
Q 1434 303 1822 616 
z
" transform="scale(0.015625)"/>
      <path id="TimesNewRomanPSMT-6c" d="M 1184 4444 
L 1184 647 
Q 1184 378 1223 290 
Q 1263 203 1344 158 
Q 1425 113 1647 113 
L 1647 0 
L 244 0 
L 244 113 
Q 441 113 512 153 
Q 584 194 625 287 
Q 666 381 666 647 
L 666 3247 
Q 666 3731 644 3842 
Q 622 3953 573 3993 
Q 525 4034 450 4034 
Q 369 4034 244 3984 
L 191 4094 
L 1044 4444 
L 1184 4444 
z
" transform="scale(0.015625)"/>
     </defs>
     <use xlink:href="#TimesNewRomanPSMT-52"/>
     <use xlink:href="#TimesNewRomanPSMT-4f" x="66.699219"/>
     <use xlink:href="#TimesNewRomanPSMT-43" x="138.916016"/>
     <use xlink:href="#TimesNewRomanPSMT-20" x="205.615234"/>
     <use xlink:href="#TimesNewRomanPSMT-43" x="230.615234"/>
     <use xlink:href="#TimesNewRomanPSMT-75" x="297.314453"/>
     <use xlink:href="#TimesNewRomanPSMT-72" x="347.314453"/>
     <use xlink:href="#TimesNewRomanPSMT-76" x="380.615234"/>
     <use xlink:href="#TimesNewRomanPSMT-65" x="430.615234"/>
     <use xlink:href="#TimesNewRomanPSMT-3a" x="475"/>
     <use xlink:href="#TimesNewRomanPSMT-20" x="502.783203"/>
     <use xlink:href="#TimesNewRomanPSMT-61" x="527.783203"/>
     <use xlink:href="#TimesNewRomanPSMT-6c" x="572.167969"/>
     <use xlink:href="#TimesNewRomanPSMT-6c" x="599.951172"/>
    </g>
   </g>
  </g>
 </g>
 <defs>
  <clipPath id="p1a900f422b">
   <rect x="99" y="95.04" width="613.8" height="609.84"/>
  </clipPath>
 </defs>
</svg>
