<?xml version="1.0" encoding="utf-8" standalone="no"?>
<!DOCTYPE svg PUBLIC "-//W3C//DTD SVG 1.1//EN"
  "http://www.w3.org/Graphics/SVG/1.1/DTD/svg11.dtd">
<svg xmlns:xlink="http://www.w3.org/1999/xlink" width="792pt" height="792pt" viewBox="0 0 792 792" xmlns="http://www.w3.org/2000/svg" version="1.1">
 <metadata>
  <rdf:RDF xmlns:dc="http://purl.org/dc/elements/1.1/" xmlns:cc="http://creativecommons.org/ns#" xmlns:rdf="http://www.w3.org/1999/02/22-rdf-syntax-ns#">
   <cc:Work>
    <dc:type rdf:resource="http://purl.org/dc/dcmitype/StillImage"/>
    <dc:date>2024-04-30T17:08:28.388714</dc:date>
    <dc:format>image/svg+xml</dc:format>
    <dc:creator>
     <cc:Agent>
      <dc:title>Matplotlib v3.8.4, https://matplotlib.org/</dc:title>
     </cc:Agent>
    </dc:creator>
   </cc:Work>
  </rdf:RDF>
 </metadata>
 <defs>
  <style type="text/css">*{stroke-linejoin: round; stroke-linecap: butt}</style>
 </defs>
 <g id="figure_1">
  <g id="patch_1">
   <path d="M 0 792 
L 792 792 
L 792 0 
L 0 0 
z
" style="fill: #ffffff"/>
  </g>
  <g id="axes_1">
   <g id="patch_2">
    <path d="M 99 704.88 
L 712.8 704.88 
L 712.8 95.04 
L 99 95.04 
z
" style="fill: #ffffff"/>
   </g>
   <g id="matplotlib.axis_1">
    <g id="xtick_1">
     <g id="line2d_1">
      <path d="M 126.9 704.88 
L 126.9 95.04 
" clip-path="url(#p7feb37dc0a)" style="fill: none; stroke: #cccccc; stroke-linecap: round"/>
     </g>
     <g id="text_1">
      <!-- 0.0 -->
      <g style="fill: #262626" transform="translate(113.15 729.65625) scale(0.22 -0.22)">
       <defs>
        <path id="TimesNewRomanPSMT-30" d="M 231 2094 
Q 231 2819 450 3342 
Q 669 3866 1031 4122 
Q 1313 4325 1613 4325 
Q 2100 4325 2488 3828 
Q 2972 3213 2972 2159 
Q 2972 1422 2759 906 
Q 2547 391 2217 158 
Q 1888 -75 1581 -75 
Q 975 -75 572 641 
Q 231 1244 231 2094 
z
M 844 2016 
Q 844 1141 1059 588 
Q 1238 122 1591 122 
Q 1759 122 1940 273 
Q 2122 425 2216 781 
Q 2359 1319 2359 2297 
Q 2359 3022 2209 3506 
Q 2097 3866 1919 4016 
Q 1791 4119 1609 4119 
Q 1397 4119 1231 3928 
Q 1006 3669 925 3112 
Q 844 2556 844 2016 
z
" transform="scale(0.015625)"/>
        <path id="TimesNewRomanPSMT-2e" d="M 800 606 
Q 947 606 1047 504 
Q 1147 403 1147 259 
Q 1147 116 1045 14 
Q 944 -88 800 -88 
Q 656 -88 554 14 
Q 453 116 453 259 
Q 453 406 554 506 
Q 656 606 800 606 
z
" transform="scale(0.015625)"/>
       </defs>
       <use xlink:href="#TimesNewRomanPSMT-30"/>
       <use xlink:href="#TimesNewRomanPSMT-2e" x="50"/>
       <use xlink:href="#TimesNewRomanPSMT-30" x="75"/>
      </g>
     </g>
    </g>
    <g id="xtick_2">
     <g id="line2d_2">
      <path d="M 238.5 704.88 
L 238.5 95.04 
" clip-path="url(#p7feb37dc0a)" style="fill: none; stroke: #cccccc; stroke-linecap: round"/>
     </g>
     <g id="text_2">
      <!-- 0.2 -->
      <g style="fill: #262626" transform="translate(224.75 729.65625) scale(0.22 -0.22)">
       <defs>
        <path id="TimesNewRomanPSMT-32" d="M 2934 816 
L 2638 0 
L 138 0 
L 138 116 
Q 1241 1122 1691 1759 
Q 2141 2397 2141 2925 
Q 2141 3328 1894 3587 
Q 1647 3847 1303 3847 
Q 991 3847 742 3664 
Q 494 3481 375 3128 
L 259 3128 
Q 338 3706 661 4015 
Q 984 4325 1469 4325 
Q 1984 4325 2329 3994 
Q 2675 3663 2675 3213 
Q 2675 2891 2525 2569 
Q 2294 2063 1775 1497 
Q 997 647 803 472 
L 1909 472 
Q 2247 472 2383 497 
Q 2519 522 2628 598 
Q 2738 675 2819 816 
L 2934 816 
z
" transform="scale(0.015625)"/>
       </defs>
       <use xlink:href="#TimesNewRomanPSMT-30"/>
       <use xlink:href="#TimesNewRomanPSMT-2e" x="50"/>
       <use xlink:href="#TimesNewRomanPSMT-32" x="75"/>
      </g>
     </g>
    </g>
    <g id="xtick_3">
     <g id="line2d_3">
      <path d="M 350.1 704.88 
L 350.1 95.04 
" clip-path="url(#p7feb37dc0a)" style="fill: none; stroke: #cccccc; stroke-linecap: round"/>
     </g>
     <g id="text_3">
      <!-- 0.4 -->
      <g style="fill: #262626" transform="translate(336.35 729.65625) scale(0.22 -0.22)">
       <defs>
        <path id="TimesNewRomanPSMT-34" d="M 2978 1563 
L 2978 1119 
L 2409 1119 
L 2409 0 
L 1894 0 
L 1894 1119 
L 100 1119 
L 100 1519 
L 2066 4325 
L 2409 4325 
L 2409 1563 
L 2978 1563 
z
M 1894 1563 
L 1894 3666 
L 406 1563 
L 1894 1563 
z
" transform="scale(0.015625)"/>
       </defs>
       <use xlink:href="#TimesNewRomanPSMT-30"/>
       <use xlink:href="#TimesNewRomanPSMT-2e" x="50"/>
       <use xlink:href="#TimesNewRomanPSMT-34" x="75"/>
      </g>
     </g>
    </g>
    <g id="xtick_4">
     <g id="line2d_4">
      <path d="M 461.7 704.88 
L 461.7 95.04 
" clip-path="url(#p7feb37dc0a)" style="fill: none; stroke: #cccccc; stroke-linecap: round"/>
     </g>
     <g id="text_4">
      <!-- 0.6 -->
      <g style="fill: #262626" transform="translate(447.95 729.65625) scale(0.22 -0.22)">
       <defs>
        <path id="TimesNewRomanPSMT-36" d="M 2869 4325 
L 2869 4209 
Q 2456 4169 2195 4045 
Q 1934 3922 1679 3669 
Q 1425 3416 1258 3105 
Q 1091 2794 978 2366 
Q 1428 2675 1881 2675 
Q 2316 2675 2634 2325 
Q 2953 1975 2953 1425 
Q 2953 894 2631 456 
Q 2244 -75 1606 -75 
Q 1172 -75 869 213 
Q 275 772 275 1663 
Q 275 2231 503 2743 
Q 731 3256 1154 3653 
Q 1578 4050 1965 4187 
Q 2353 4325 2688 4325 
L 2869 4325 
z
M 925 2138 
Q 869 1716 869 1456 
Q 869 1156 980 804 
Q 1091 453 1309 247 
Q 1469 100 1697 100 
Q 1969 100 2183 356 
Q 2397 613 2397 1088 
Q 2397 1622 2184 2012 
Q 1972 2403 1581 2403 
Q 1463 2403 1327 2353 
Q 1191 2303 925 2138 
z
" transform="scale(0.015625)"/>
       </defs>
       <use xlink:href="#TimesNewRomanPSMT-30"/>
       <use xlink:href="#TimesNewRomanPSMT-2e" x="50"/>
       <use xlink:href="#TimesNewRomanPSMT-36" x="75"/>
      </g>
     </g>
    </g>
    <g id="xtick_5">
     <g id="line2d_5">
      <path d="M 573.3 704.88 
L 573.3 95.04 
" clip-path="url(#p7feb37dc0a)" style="fill: none; stroke: #cccccc; stroke-linecap: round"/>
     </g>
     <g id="text_5">
      <!-- 0.8 -->
      <g style="fill: #262626" transform="translate(559.55 729.65625) scale(0.22 -0.22)">
       <defs>
        <path id="TimesNewRomanPSMT-38" d="M 1228 2134 
Q 725 2547 579 2797 
Q 434 3047 434 3316 
Q 434 3728 753 4026 
Q 1072 4325 1600 4325 
Q 2113 4325 2425 4047 
Q 2738 3769 2738 3413 
Q 2738 3175 2569 2928 
Q 2400 2681 1866 2347 
Q 2416 1922 2594 1678 
Q 2831 1359 2831 1006 
Q 2831 559 2490 242 
Q 2150 -75 1597 -75 
Q 994 -75 656 303 
Q 388 606 388 966 
Q 388 1247 577 1523 
Q 766 1800 1228 2134 
z
M 1719 2469 
Q 2094 2806 2194 3001 
Q 2294 3197 2294 3444 
Q 2294 3772 2109 3958 
Q 1925 4144 1606 4144 
Q 1288 4144 1088 3959 
Q 888 3775 888 3528 
Q 888 3366 970 3203 
Q 1053 3041 1206 2894 
L 1719 2469 
z
M 1375 2016 
Q 1116 1797 991 1539 
Q 866 1281 866 981 
Q 866 578 1086 336 
Q 1306 94 1647 94 
Q 1984 94 2187 284 
Q 2391 475 2391 747 
Q 2391 972 2272 1150 
Q 2050 1481 1375 2016 
z
" transform="scale(0.015625)"/>
       </defs>
       <use xlink:href="#TimesNewRomanPSMT-30"/>
       <use xlink:href="#TimesNewRomanPSMT-2e" x="50"/>
       <use xlink:href="#TimesNewRomanPSMT-38" x="75"/>
      </g>
     </g>
    </g>
    <g id="xtick_6">
     <g id="line2d_6">
      <path d="M 684.9 704.88 
L 684.9 95.04 
" clip-path="url(#p7feb37dc0a)" style="fill: none; stroke: #cccccc; stroke-linecap: round"/>
     </g>
     <g id="text_6">
      <!-- 1.0 -->
      <g style="fill: #262626" transform="translate(671.15 729.65625) scale(0.22 -0.22)">
       <defs>
        <path id="TimesNewRomanPSMT-31" d="M 750 3822 
L 1781 4325 
L 1884 4325 
L 1884 747 
Q 1884 391 1914 303 
Q 1944 216 2037 169 
Q 2131 122 2419 116 
L 2419 0 
L 825 0 
L 825 116 
Q 1125 122 1212 167 
Q 1300 213 1334 289 
Q 1369 366 1369 747 
L 1369 3034 
Q 1369 3497 1338 3628 
Q 1316 3728 1258 3775 
Q 1200 3822 1119 3822 
Q 1003 3822 797 3725 
L 750 3822 
z
" transform="scale(0.015625)"/>
       </defs>
       <use xlink:href="#TimesNewRomanPSMT-31"/>
       <use xlink:href="#TimesNewRomanPSMT-2e" x="50"/>
       <use xlink:href="#TimesNewRomanPSMT-30" x="75"/>
      </g>
     </g>
    </g>
    <g id="text_7">
     <!-- FPR -->
     <g style="fill: #262626" transform="translate(384.549375 755.027187) scale(0.24 -0.24)">
      <defs>
       <path id="TimesNewRomanPSMT-46" d="M 1309 4006 
L 1309 2341 
L 2081 2341 
Q 2347 2341 2470 2458 
Q 2594 2575 2634 2922 
L 2750 2922 
L 2750 1488 
L 2634 1488 
Q 2631 1734 2570 1850 
Q 2509 1966 2401 2023 
Q 2294 2081 2081 2081 
L 1309 2081 
L 1309 750 
Q 1309 428 1350 325 
Q 1381 247 1481 191 
Q 1619 116 1769 116 
L 1922 116 
L 1922 0 
L 103 0 
L 103 116 
L 253 116 
Q 516 116 634 269 
Q 709 369 709 750 
L 709 3488 
Q 709 3809 669 3913 
Q 638 3991 541 4047 
Q 406 4122 253 4122 
L 103 4122 
L 103 4238 
L 3256 4238 
L 3297 3306 
L 3188 3306 
Q 3106 3603 2998 3742 
Q 2891 3881 2733 3943 
Q 2575 4006 2244 4006 
L 1309 4006 
z
" transform="scale(0.015625)"/>
       <path id="TimesNewRomanPSMT-50" d="M 1313 1984 
L 1313 750 
Q 1313 350 1400 253 
Q 1519 116 1759 116 
L 1922 116 
L 1922 0 
L 106 0 
L 106 116 
L 266 116 
Q 534 116 650 291 
Q 713 388 713 750 
L 713 3488 
Q 713 3888 628 3984 
Q 506 4122 266 4122 
L 106 4122 
L 106 4238 
L 1659 4238 
Q 2228 4238 2556 4120 
Q 2884 4003 3109 3725 
Q 3334 3447 3334 3066 
Q 3334 2547 2992 2222 
Q 2650 1897 2025 1897 
Q 1872 1897 1694 1919 
Q 1516 1941 1313 1984 
z
M 1313 2163 
Q 1478 2131 1606 2115 
Q 1734 2100 1825 2100 
Q 2150 2100 2386 2351 
Q 2622 2603 2622 3003 
Q 2622 3278 2509 3514 
Q 2397 3750 2190 3867 
Q 1984 3984 1722 3984 
Q 1563 3984 1313 3925 
L 1313 2163 
z
" transform="scale(0.015625)"/>
       <path id="TimesNewRomanPSMT-52" d="M 4325 0 
L 3194 0 
L 1759 1981 
Q 1600 1975 1500 1975 
Q 1459 1975 1412 1976 
Q 1366 1978 1316 1981 
L 1316 750 
Q 1316 350 1403 253 
Q 1522 116 1759 116 
L 1925 116 
L 1925 0 
L 109 0 
L 109 116 
L 269 116 
Q 538 116 653 291 
Q 719 388 719 750 
L 719 3488 
Q 719 3888 631 3984 
Q 509 4122 269 4122 
L 109 4122 
L 109 4238 
L 1653 4238 
Q 2328 4238 2648 4139 
Q 2969 4041 3192 3777 
Q 3416 3513 3416 3147 
Q 3416 2756 3161 2468 
Q 2906 2181 2372 2063 
L 3247 847 
Q 3547 428 3762 290 
Q 3978 153 4325 116 
L 4325 0 
z
M 1316 2178 
Q 1375 2178 1419 2176 
Q 1463 2175 1491 2175 
Q 2097 2175 2405 2437 
Q 2713 2700 2713 3106 
Q 2713 3503 2464 3751 
Q 2216 4000 1806 4000 
Q 1625 4000 1316 3941 
L 1316 2178 
z
" transform="scale(0.015625)"/>
      </defs>
      <use xlink:href="#TimesNewRomanPSMT-46"/>
      <use xlink:href="#TimesNewRomanPSMT-50" x="55.615234"/>
      <use xlink:href="#TimesNewRomanPSMT-52" x="111.230469"/>
     </g>
    </g>
   </g>
   <g id="matplotlib.axis_2">
    <g id="ytick_1">
     <g id="line2d_7">
      <path d="M 99 678.217343 
L 712.8 678.217343 
" clip-path="url(#p7feb37dc0a)" style="fill: none; stroke: #cccccc; stroke-linecap: round"/>
     </g>
     <g id="text_8">
      <!-- 0.0 -->
      <g style="fill: #262626" transform="translate(62 685.855468) scale(0.22 -0.22)">
       <use xlink:href="#TimesNewRomanPSMT-30"/>
       <use xlink:href="#TimesNewRomanPSMT-2e" x="50"/>
       <use xlink:href="#TimesNewRomanPSMT-30" x="75"/>
      </g>
     </g>
    </g>
    <g id="ytick_2">
     <g id="line2d_8">
      <path d="M 99 567.125874 
L 712.8 567.125874 
" clip-path="url(#p7feb37dc0a)" style="fill: none; stroke: #cccccc; stroke-linecap: round"/>
     </g>
     <g id="text_9">
      <!-- 0.2 -->
      <g style="fill: #262626" transform="translate(62 574.763999) scale(0.22 -0.22)">
       <use xlink:href="#TimesNewRomanPSMT-30"/>
       <use xlink:href="#TimesNewRomanPSMT-2e" x="50"/>
       <use xlink:href="#TimesNewRomanPSMT-32" x="75"/>
      </g>
     </g>
    </g>
    <g id="ytick_3">
     <g id="line2d_9">
      <path d="M 99 456.034406 
L 712.8 456.034406 
" clip-path="url(#p7feb37dc0a)" style="fill: none; stroke: #cccccc; stroke-linecap: round"/>
     </g>
     <g id="text_10">
      <!-- 0.4 -->
      <g style="fill: #262626" transform="translate(62 463.672531) scale(0.22 -0.22)">
       <use xlink:href="#TimesNewRomanPSMT-30"/>
       <use xlink:href="#TimesNewRomanPSMT-2e" x="50"/>
       <use xlink:href="#TimesNewRomanPSMT-34" x="75"/>
      </g>
     </g>
    </g>
    <g id="ytick_4">
     <g id="line2d_10">
      <path d="M 99 344.942937 
L 712.8 344.942937 
" clip-path="url(#p7feb37dc0a)" style="fill: none; stroke: #cccccc; stroke-linecap: round"/>
     </g>
     <g id="text_11">
      <!-- 0.6 -->
      <g style="fill: #262626" transform="translate(62 352.581062) scale(0.22 -0.22)">
       <use xlink:href="#TimesNewRomanPSMT-30"/>
       <use xlink:href="#TimesNewRomanPSMT-2e" x="50"/>
       <use xlink:href="#TimesNewRomanPSMT-36" x="75"/>
      </g>
     </g>
    </g>
    <g id="ytick_5">
     <g id="line2d_11">
      <path d="M 99 233.851469 
L 712.8 233.851469 
" clip-path="url(#p7feb37dc0a)" style="fill: none; stroke: #cccccc; stroke-linecap: round"/>
     </g>
     <g id="text_12">
      <!-- 0.8 -->
      <g style="fill: #262626" transform="translate(62 241.489594) scale(0.22 -0.22)">
       <use xlink:href="#TimesNewRomanPSMT-30"/>
       <use xlink:href="#TimesNewRomanPSMT-2e" x="50"/>
       <use xlink:href="#TimesNewRomanPSMT-38" x="75"/>
      </g>
     </g>
    </g>
    <g id="ytick_6">
     <g id="line2d_12">
      <path d="M 99 122.76 
L 712.8 122.76 
" clip-path="url(#p7feb37dc0a)" style="fill: none; stroke: #cccccc; stroke-linecap: round"/>
     </g>
     <g id="text_13">
      <!-- 1.0 -->
      <g style="fill: #262626" transform="translate(62 130.398125) scale(0.22 -0.22)">
       <use xlink:href="#TimesNewRomanPSMT-31"/>
       <use xlink:href="#TimesNewRomanPSMT-2e" x="50"/>
       <use xlink:href="#TimesNewRomanPSMT-30" x="75"/>
      </g>
     </g>
    </g>
    <g id="text_14">
     <!-- TPR -->
     <g style="fill: #262626" transform="translate(52.86625 421.966875) rotate(-90) scale(0.24 -0.24)">
      <defs>
       <path id="TimesNewRomanPSMT-54" d="M 3703 4238 
L 3750 3244 
L 3631 3244 
Q 3597 3506 3538 3619 
Q 3441 3800 3280 3886 
Q 3119 3972 2856 3972 
L 2259 3972 
L 2259 734 
Q 2259 344 2344 247 
Q 2463 116 2709 116 
L 2856 116 
L 2856 0 
L 1059 0 
L 1059 116 
L 1209 116 
Q 1478 116 1591 278 
Q 1659 378 1659 734 
L 1659 3972 
L 1150 3972 
Q 853 3972 728 3928 
Q 566 3869 450 3700 
Q 334 3531 313 3244 
L 194 3244 
L 244 4238 
L 3703 4238 
z
" transform="scale(0.015625)"/>
      </defs>
      <use xlink:href="#TimesNewRomanPSMT-54"/>
      <use xlink:href="#TimesNewRomanPSMT-50" x="61.083984"/>
      <use xlink:href="#TimesNewRomanPSMT-52" x="116.699219"/>
     </g>
    </g>
   </g>
   <g id="PolyCollection_1">
    <path d="M 126.9 669.053706 
L 126.9 677.16 
L 126.9 669.053706 
L 126.9 669.053706 
z
" clip-path="url(#p7feb37dc0a)" style="fill: #a1c9f4; fill-opacity: 0.2; stroke: #a1c9f4; stroke-opacity: 0.2"/>
    <path d="M 129.251124 658.48028 
L 129.251124 665.529231 
L 129.251124 658.48028 
L 129.251124 658.48028 
z
" clip-path="url(#p7feb37dc0a)" style="fill: #a1c9f4; fill-opacity: 0.2; stroke: #a1c9f4; stroke-opacity: 0.2"/>
    <path d="M 133.169663 645.792168 
L 133.169663 652.841119 
L 134.737079 643.677483 
L 135.520787 633.808951 
L 137.088202 626.76 
L 137.87191 620.415944 
L 139.439326 610.547413 
L 139.439326 604.908252 
L 139.439326 604.908252 
L 137.87191 612.662098 
L 137.088202 622.530629 
L 135.520787 629.57958 
L 134.737079 635.218741 
L 133.169663 645.792168 
z
" clip-path="url(#p7feb37dc0a)" style="fill: #a1c9f4; fill-opacity: 0.2; stroke: #a1c9f4; stroke-opacity: 0.2"/>
    <path d="M 142.574157 597.859301 
L 142.574157 603.498462 
L 145.708989 590.246434 
L 145.708989 585.171189 
L 145.708989 585.171189 
L 142.574157 597.859301 
z
" clip-path="url(#p7feb37dc0a)" style="fill: #a1c9f4; fill-opacity: 0.2; stroke: #a1c9f4; stroke-opacity: 0.2"/>
    <path d="M 151.194944 578.122238 
L 151.194944 581.646713 
L 151.194944 578.122238 
L 151.194944 578.122238 
z
" clip-path="url(#p7feb37dc0a)" style="fill: #a1c9f4; fill-opacity: 0.2; stroke: #a1c9f4; stroke-opacity: 0.2"/>
    <path d="M 157.464607 570.791329 
L 157.464607 576.011077 
L 157.464607 570.791329 
L 157.464607 570.791329 
z
" clip-path="url(#p7feb37dc0a)" style="fill: #a1c9f4; fill-opacity: 0.2; stroke: #a1c9f4; stroke-opacity: 0.2"/>
    <path d="M 165.301685 564.024336 
L 165.301685 566.843916 
L 165.301685 564.024336 
L 165.301685 564.024336 
z
" clip-path="url(#p7feb37dc0a)" style="fill: #a1c9f4; fill-opacity: 0.2; stroke: #a1c9f4; stroke-opacity: 0.2"/>
    <path d="M 170.78764 554.155804 
L 170.78764 561.204755 
L 172.355056 551.688671 
L 172.355056 545.344615 
L 172.355056 545.344615 
L 170.78764 554.155804 
z
" clip-path="url(#p7feb37dc0a)" style="fill: #a1c9f4; fill-opacity: 0.2; stroke: #a1c9f4; stroke-opacity: 0.2"/>
    <path d="M 174.70618 534.066294 
L 174.70618 541.115245 
L 174.70618 534.066294 
L 174.70618 534.066294 
z
" clip-path="url(#p7feb37dc0a)" style="fill: #a1c9f4; fill-opacity: 0.2; stroke: #a1c9f4; stroke-opacity: 0.2"/>
    <path d="M 181.759551 528.77958 
L 181.759551 530.189371 
L 181.759551 528.77958 
L 181.759551 528.77958 
z
" clip-path="url(#p7feb37dc0a)" style="fill: #a1c9f4; fill-opacity: 0.2; stroke: #a1c9f4; stroke-opacity: 0.2"/>
    <path d="M 191.947753 523.845315 
L 191.947753 525.255105 
L 191.947753 523.845315 
L 191.947753 523.845315 
z
" clip-path="url(#p7feb37dc0a)" style="fill: #a1c9f4; fill-opacity: 0.2; stroke: #a1c9f4; stroke-opacity: 0.2"/>
    <path d="M 202.919663 510.452308 
L 202.919663 516.796364 
L 204.487079 509.747413 
L 204.487079 507.632727 
L 204.487079 507.632727 
L 202.919663 510.452308 
z
" clip-path="url(#p7feb37dc0a)" style="fill: #a1c9f4; fill-opacity: 0.2; stroke: #a1c9f4; stroke-opacity: 0.2"/>
    <path d="M 209.189326 494.063497 
L 209.189326 503.57958 
L 209.189326 494.063497 
L 209.189326 494.063497 
z
" clip-path="url(#p7feb37dc0a)" style="fill: #a1c9f4; fill-opacity: 0.2; stroke: #a1c9f4; stroke-opacity: 0.2"/>
    <path d="M 215.458989 488.600559 
L 215.458989 490.01035 
L 217.810112 488.600559 
L 219.377528 481.551608 
L 220.944944 474.502657 
L 220.944944 464.986573 
L 220.944944 464.986573 
L 219.377528 480.141818 
L 217.810112 482.256503 
L 215.458989 488.600559 
z
" clip-path="url(#p7feb37dc0a)" style="fill: #a1c9f4; fill-opacity: 0.2; stroke: #a1c9f4; stroke-opacity: 0.2"/>
    <path d="M 227.998315 455.47049 
L 227.998315 458.29007 
L 227.998315 455.47049 
L 227.998315 455.47049 
z
" clip-path="url(#p7feb37dc0a)" style="fill: #a1c9f4; fill-opacity: 0.2; stroke: #a1c9f4; stroke-opacity: 0.2"/>
    <path d="M 230.349438 448.421538 
L 230.349438 453.355804 
L 230.349438 448.421538 
L 230.349438 448.421538 
z
" clip-path="url(#p7feb37dc0a)" style="fill: #a1c9f4; fill-opacity: 0.2; stroke: #a1c9f4; stroke-opacity: 0.2"/>
    <path d="M 234.267978 442.077483 
L 234.267978 443.487273 
L 236.619101 442.077483 
L 236.619101 439.962797 
L 236.619101 439.962797 
L 234.267978 442.077483 
z
" clip-path="url(#p7feb37dc0a)" style="fill: #a1c9f4; fill-opacity: 0.2; stroke: #a1c9f4; stroke-opacity: 0.2"/>
    <path d="M 242.105056 430.799161 
L 242.105056 439.257902 
L 242.888764 429.389371 
L 242.888764 427.97958 
L 242.888764 427.97958 
L 242.105056 430.799161 
z
" clip-path="url(#p7feb37dc0a)" style="fill: #a1c9f4; fill-opacity: 0.2; stroke: #a1c9f4; stroke-opacity: 0.2"/>
    <path d="M 250.725843 422.34042 
L 250.725843 424.455105 
L 251.509551 420.930629 
L 251.509551 416.701259 
L 251.509551 416.701259 
L 250.725843 422.34042 
z
" clip-path="url(#p7feb37dc0a)" style="fill: #a1c9f4; fill-opacity: 0.2; stroke: #a1c9f4; stroke-opacity: 0.2"/>
    <path d="M 254.644382 412.471888 
L 254.644382 415.291469 
L 256.995506 412.471888 
L 259.346629 405.775385 
L 260.914045 396.259301 
L 261.697753 393.43972 
L 261.697753 390.62014 
L 261.697753 390.62014 
L 260.914045 394.84951 
L 259.346629 397.669091 
L 256.995506 408.242517 
L 254.644382 412.471888 
z
" clip-path="url(#p7feb37dc0a)" style="fill: #a1c9f4; fill-opacity: 0.2; stroke: #a1c9f4; stroke-opacity: 0.2"/>
    <path d="M 265.616292 385.685874 
L 265.616292 389.915245 
L 265.616292 385.685874 
L 265.616292 385.685874 
z
" clip-path="url(#p7feb37dc0a)" style="fill: #a1c9f4; fill-opacity: 0.2; stroke: #a1c9f4; stroke-opacity: 0.2"/>
    <path d="M 278.939326 376.522238 
L 278.939326 380.751608 
L 281.290449 376.522238 
L 284.425281 373.702657 
L 284.425281 372.292867 
L 284.425281 372.292867 
L 281.290449 375.112448 
L 278.939326 376.522238 
z
" clip-path="url(#p7feb37dc0a)" style="fill: #a1c9f4; fill-opacity: 0.2; stroke: #a1c9f4; stroke-opacity: 0.2"/>
    <path d="M 288.34382 360.30965 
L 288.34382 368.768392 
L 288.34382 360.30965 
L 288.34382 360.30965 
z
" clip-path="url(#p7feb37dc0a)" style="fill: #a1c9f4; fill-opacity: 0.2; stroke: #a1c9f4; stroke-opacity: 0.2"/>
    <path d="M 293.046067 355.375385 
L 293.046067 358.194965 
L 293.046067 355.375385 
L 293.046067 355.375385 
z
" clip-path="url(#p7feb37dc0a)" style="fill: #a1c9f4; fill-opacity: 0.2; stroke: #a1c9f4; stroke-opacity: 0.2"/>
    <path d="M 298.532022 350.441119 
L 298.532022 353.260699 
L 298.532022 350.441119 
L 298.532022 350.441119 
z
" clip-path="url(#p7feb37dc0a)" style="fill: #a1c9f4; fill-opacity: 0.2; stroke: #a1c9f4; stroke-opacity: 0.2"/>
    <path d="M 306.369101 345.506853 
L 306.369101 346.916643 
L 306.369101 345.506853 
L 306.369101 345.506853 
z
" clip-path="url(#p7feb37dc0a)" style="fill: #a1c9f4; fill-opacity: 0.2; stroke: #a1c9f4; stroke-opacity: 0.2"/>
    <path d="M 314.989888 341.982378 
L 314.989888 344.801958 
L 317.341011 341.982378 
L 317.341011 340.572587 
L 317.341011 340.572587 
L 314.989888 341.982378 
z
" clip-path="url(#p7feb37dc0a)" style="fill: #a1c9f4; fill-opacity: 0.2; stroke: #a1c9f4; stroke-opacity: 0.2"/>
    <path d="M 319.692135 335.638322 
L 319.692135 337.753007 
L 322.043258 335.638322 
L 322.043258 329.294266 
L 322.043258 329.294266 
L 319.692135 335.638322 
z
" clip-path="url(#p7feb37dc0a)" style="fill: #a1c9f4; fill-opacity: 0.2; stroke: #a1c9f4; stroke-opacity: 0.2"/>
    <path d="M 324.394382 322.95021 
L 324.394382 327.17958 
L 324.394382 322.95021 
L 324.394382 322.95021 
z
" clip-path="url(#p7feb37dc0a)" style="fill: #a1c9f4; fill-opacity: 0.2; stroke: #a1c9f4; stroke-opacity: 0.2"/>
    <path d="M 330.664045 320.835524 
L 330.664045 322.245315 
L 330.664045 320.835524 
L 330.664045 320.835524 
z
" clip-path="url(#p7feb37dc0a)" style="fill: #a1c9f4; fill-opacity: 0.2; stroke: #a1c9f4; stroke-opacity: 0.2"/>
    <path d="M 342.419663 316.606154 
L 342.419663 318.720839 
L 342.419663 316.606154 
L 342.419663 316.606154 
z
" clip-path="url(#p7feb37dc0a)" style="fill: #a1c9f4; fill-opacity: 0.2; stroke: #a1c9f4; stroke-opacity: 0.2"/>
    <path d="M 348.689326 309.557203 
L 348.689326 310.966993 
L 348.689326 309.557203 
L 348.689326 309.557203 
z
" clip-path="url(#p7feb37dc0a)" style="fill: #a1c9f4; fill-opacity: 0.2; stroke: #a1c9f4; stroke-opacity: 0.2"/>
    <path d="M 352.607865 305.327832 
L 352.607865 309.557203 
L 352.607865 305.327832 
L 352.607865 305.327832 
z
" clip-path="url(#p7feb37dc0a)" style="fill: #a1c9f4; fill-opacity: 0.2; stroke: #a1c9f4; stroke-opacity: 0.2"/>
    <path d="M 359.661236 301.098462 
L 359.661236 302.508252 
L 359.661236 301.098462 
L 359.661236 301.098462 
z
" clip-path="url(#p7feb37dc0a)" style="fill: #a1c9f4; fill-opacity: 0.2; stroke: #a1c9f4; stroke-opacity: 0.2"/>
    <path d="M 365.147191 296.164196 
L 365.147191 300.393566 
L 365.147191 296.164196 
L 365.147191 296.164196 
z
" clip-path="url(#p7feb37dc0a)" style="fill: #a1c9f4; fill-opacity: 0.2; stroke: #a1c9f4; stroke-opacity: 0.2"/>
    <path d="M 378.470225 291.22993 
L 378.470225 292.63972 
L 378.470225 291.22993 
L 378.470225 291.22993 
z
" clip-path="url(#p7feb37dc0a)" style="fill: #a1c9f4; fill-opacity: 0.2; stroke: #a1c9f4; stroke-opacity: 0.2"/>
    <path d="M 388.658427 284.180979 
L 388.658427 289.82014 
L 388.658427 284.180979 
L 388.658427 284.180979 
z
" clip-path="url(#p7feb37dc0a)" style="fill: #a1c9f4; fill-opacity: 0.2; stroke: #a1c9f4; stroke-opacity: 0.2"/>
    <path d="M 401.981461 282.771189 
L 401.981461 284.180979 
L 404.332584 282.771189 
L 404.332584 280.656503 
L 404.332584 280.656503 
L 401.981461 282.771189 
z
" clip-path="url(#p7feb37dc0a)" style="fill: #a1c9f4; fill-opacity: 0.2; stroke: #a1c9f4; stroke-opacity: 0.2"/>
    <path d="M 406.683708 275.722238 
L 406.683708 278.541818 
L 406.683708 275.722238 
L 406.683708 275.722238 
z
" clip-path="url(#p7feb37dc0a)" style="fill: #a1c9f4; fill-opacity: 0.2; stroke: #a1c9f4; stroke-opacity: 0.2"/>
    <path d="M 415.304494 273.607552 
L 415.304494 275.017343 
L 420.006742 273.607552 
L 420.006742 266.558601 
L 420.006742 266.558601 
L 415.304494 273.607552 
z
" clip-path="url(#p7feb37dc0a)" style="fill: #a1c9f4; fill-opacity: 0.2; stroke: #a1c9f4; stroke-opacity: 0.2"/>
    <path d="M 428.627528 256.69007 
L 428.627528 262.681678 
L 428.627528 256.69007 
L 428.627528 256.69007 
z
" clip-path="url(#p7feb37dc0a)" style="fill: #a1c9f4; fill-opacity: 0.2; stroke: #a1c9f4; stroke-opacity: 0.2"/>
    <path d="M 446.652809 252.460699 
L 446.652809 253.87049 
L 446.652809 252.460699 
L 446.652809 252.460699 
z
" clip-path="url(#p7feb37dc0a)" style="fill: #a1c9f4; fill-opacity: 0.2; stroke: #a1c9f4; stroke-opacity: 0.2"/>
    <path d="M 456.057303 247.526434 
L 456.057303 250.346014 
L 456.057303 247.526434 
L 456.057303 247.526434 
z
" clip-path="url(#p7feb37dc0a)" style="fill: #a1c9f4; fill-opacity: 0.2; stroke: #a1c9f4; stroke-opacity: 0.2"/>
    <path d="M 463.110674 244.001958 
L 463.110674 245.411748 
L 466.245506 242.592168 
L 467.029213 236.953007 
L 467.029213 235.543217 
L 467.029213 235.543217 
L 466.245506 238.362797 
L 463.110674 244.001958 
z
" clip-path="url(#p7feb37dc0a)" style="fill: #a1c9f4; fill-opacity: 0.2; stroke: #a1c9f4; stroke-opacity: 0.2"/>
    <path d="M 474.082584 229.199161 
L 474.082584 231.313846 
L 476.433708 229.199161 
L 478.001124 227.084476 
L 478.001124 225.674685 
L 478.001124 225.674685 
L 476.433708 227.789371 
L 474.082584 229.199161 
z
" clip-path="url(#p7feb37dc0a)" style="fill: #a1c9f4; fill-opacity: 0.2; stroke: #a1c9f4; stroke-opacity: 0.2"/>
    <path d="M 483.487079 219.330629 
L 483.487079 221.445315 
L 483.487079 219.330629 
L 483.487079 219.330629 
z
" clip-path="url(#p7feb37dc0a)" style="fill: #a1c9f4; fill-opacity: 0.2; stroke: #a1c9f4; stroke-opacity: 0.2"/>
    <path d="M 496.810112 208.757203 
L 496.810112 218.625734 
L 496.810112 208.757203 
L 496.810112 208.757203 
z
" clip-path="url(#p7feb37dc0a)" style="fill: #a1c9f4; fill-opacity: 0.2; stroke: #a1c9f4; stroke-opacity: 0.2"/>
    <path d="M 505.430899 201.708252 
L 505.430899 205.937622 
L 505.430899 201.708252 
L 505.430899 201.708252 
z
" clip-path="url(#p7feb37dc0a)" style="fill: #a1c9f4; fill-opacity: 0.2; stroke: #a1c9f4; stroke-opacity: 0.2"/>
    <path d="M 521.888764 196.773986 
L 521.888764 199.593566 
L 524.239888 196.773986 
L 528.942135 193.954406 
L 528.942135 192.544615 
L 528.942135 192.544615 
L 524.239888 193.954406 
L 521.888764 196.773986 
z
" clip-path="url(#p7feb37dc0a)" style="fill: #a1c9f4; fill-opacity: 0.2; stroke: #a1c9f4; stroke-opacity: 0.2"/>
    <path d="M 539.130337 189.02014 
L 539.130337 191.83972 
L 539.130337 189.02014 
L 539.130337 189.02014 
z
" clip-path="url(#p7feb37dc0a)" style="fill: #a1c9f4; fill-opacity: 0.2; stroke: #a1c9f4; stroke-opacity: 0.2"/>
    <path d="M 550.885955 177.741818 
L 550.885955 181.971189 
L 553.237079 177.741818 
L 553.237079 176.332028 
L 553.237079 176.332028 
L 550.885955 177.741818 
z
" clip-path="url(#p7feb37dc0a)" style="fill: #a1c9f4; fill-opacity: 0.2; stroke: #a1c9f4; stroke-opacity: 0.2"/>
    <path d="M 558.723034 168.930629 
L 558.723034 173.864895 
L 561.857865 166.463497 
L 563.425281 158.70965 
L 563.425281 157.29986 
L 563.425281 157.29986 
L 561.857865 161.529231 
L 558.723034 168.930629 
z
" clip-path="url(#p7feb37dc0a)" style="fill: #a1c9f4; fill-opacity: 0.2; stroke: #a1c9f4; stroke-opacity: 0.2"/>
    <path d="M 565.776404 152.365594 
L 565.776404 155.185175 
L 570.478652 152.365594 
L 582.23427 150.250909 
L 582.23427 147.431329 
L 582.23427 147.431329 
L 570.478652 150.250909 
L 565.776404 152.365594 
z
" clip-path="url(#p7feb37dc0a)" style="fill: #a1c9f4; fill-opacity: 0.2; stroke: #a1c9f4; stroke-opacity: 0.2"/>
    <path d="M 606.529213 143.906853 
L 606.529213 145.316643 
L 606.529213 143.906853 
L 606.529213 143.906853 
z
" clip-path="url(#p7feb37dc0a)" style="fill: #a1c9f4; fill-opacity: 0.2; stroke: #a1c9f4; stroke-opacity: 0.2"/>
    <path d="M 633.958989 137.562797 
L 633.958989 141.087273 
L 633.958989 137.562797 
L 633.958989 137.562797 
z
" clip-path="url(#p7feb37dc0a)" style="fill: #a1c9f4; fill-opacity: 0.2; stroke: #a1c9f4; stroke-opacity: 0.2"/>
    <path d="M 639.444944 132.628531 
L 639.444944 135.448112 
L 641.796067 132.628531 
L 644.147191 129.808951 
L 644.147191 127.694266 
L 644.147191 127.694266 
L 641.796067 129.808951 
L 639.444944 132.628531 
z
" clip-path="url(#p7feb37dc0a)" style="fill: #a1c9f4; fill-opacity: 0.2; stroke: #a1c9f4; stroke-opacity: 0.2"/>
    <path d="M 652.767978 125.57958 
L 652.767978 126.989371 
L 652.767978 125.57958 
L 652.767978 125.57958 
z
" clip-path="url(#p7feb37dc0a)" style="fill: #a1c9f4; fill-opacity: 0.2; stroke: #a1c9f4; stroke-opacity: 0.2"/>
   </g>
   <g id="line2d_13">
    <path d="M 126.9 672.578182 
L 127.683708 666.939021 
L 129.251124 662.23972 
L 131.602247 658.48028 
L 133.169663 649.316643 
L 134.737079 639.448112 
L 135.520787 631.929231 
L 137.088202 624.645315 
L 137.87191 616.539021 
L 139.439326 608.197762 
L 141.790449 604.908252 
L 142.574157 601.148811 
L 145.708989 587.708811 
L 147.276404 582.351608 
L 149.627528 582.351608 
L 151.194944 579.884476 
L 153.546067 578.122238 
L 155.113483 577.417343 
L 157.464607 573.46993 
L 159.81573 568.958601 
L 161.383146 567.548811 
L 163.73427 567.548811 
L 166.869101 563.319441 
L 169.220225 563.319441 
L 170.78764 557.68028 
L 172.355056 549.045315 
L 173.138764 542.877483 
L 174.70618 537.238322 
L 176.273596 532.304056 
L 178.624719 532.304056 
L 180.192135 531.599161 
L 181.759551 529.484476 
L 183.326966 528.074685 
L 190.380337 528.074685 
L 191.947753 524.55021 
L 193.515169 523.14042 
L 198.217416 523.14042 
L 200.568539 518.911049 
L 202.135955 518.206154 
L 202.919663 513.036923 
L 204.487079 508.69007 
L 206.054494 506.927832 
L 208.405618 506.927832 
L 209.189326 498.821538 
L 210.756742 492.125035 
L 213.107865 492.125035 
L 214.675281 491.42014 
L 215.458989 489.305455 
L 217.810112 485.780979 
L 219.377528 480.846713 
L 220.944944 469.03972 
L 223.296067 462.519441 
L 226.430899 461.10965 
L 227.998315 456.88028 
L 229.56573 454.765594 
L 230.349438 450.888671 
L 231.916854 445.601958 
L 233.48427 444.897063 
L 234.267978 442.782378 
L 236.619101 441.02014 
L 238.186517 439.257902 
L 240.53764 439.257902 
L 242.105056 435.028531 
L 242.888764 428.684476 
L 243.672472 426.56979 
L 245.239888 425.864895 
L 247.591011 425.864895 
L 250.725843 423.397762 
L 251.509551 418.815944 
L 252.293258 415.291469 
L 254.644382 413.881678 
L 256.995506 410.357203 
L 260.914045 395.554406 
L 261.697753 392.02993 
L 263.265169 389.915245 
L 267.967416 385.685874 
L 271.102247 384.276084 
L 271.885955 382.866294 
L 276.588202 380.751608 
L 278.939326 378.636923 
L 281.290449 375.817343 
L 284.425281 372.997762 
L 285.992697 370.883077 
L 286.776404 369.473287 
L 288.34382 364.539021 
L 291.478652 358.89986 
L 293.046067 356.785175 
L 295.397191 355.375385 
L 296.964607 353.965594 
L 298.532022 351.850909 
L 303.23427 350.441119 
L 304.801685 349.736224 
L 306.369101 346.211748 
L 307.936517 344.801958 
L 314.989888 343.392168 
L 317.341011 341.277483 
L 318.908427 339.162797 
L 319.692135 336.695664 
L 322.043258 332.113846 
L 322.826966 327.884476 
L 325.961798 322.245315 
L 335.366292 320.835524 
L 338.501124 319.425734 
L 340.852247 319.425734 
L 342.419663 317.663497 
L 343.987079 316.606154 
L 345.554494 312.376783 
L 346.338202 310.966993 
L 348.689326 310.262098 
L 350.256742 309.557203 
L 352.607865 307.442517 
L 354.175281 304.622937 
L 356.526404 304.622937 
L 358.09382 303.918042 
L 359.661236 301.803357 
L 362.01236 301.098462 
L 363.579775 301.098462 
L 365.147191 298.278881 
L 365.930899 294.754406 
L 367.498315 294.04951 
L 369.06573 294.04951 
L 369.849438 292.63972 
L 373.767978 292.63972 
L 378.470225 291.934825 
L 385.523596 291.22993 
L 386.307303 289.82014 
L 388.658427 286.530629 
L 398.062921 284.180979 
L 399.630337 284.180979 
L 401.981461 283.476084 
L 404.332584 281.713846 
L 405.116292 279.246713 
L 408.251124 275.017343 
L 415.304494 274.312448 
L 420.006742 269.378182 
L 423.141573 265.148811 
L 425.492697 265.148811 
L 428.627528 259.862098 
L 430.194944 254.575385 
L 435.680899 254.575385 
L 437.248315 253.87049 
L 446.652809 253.165594 
L 448.220225 251.755804 
L 450.571348 251.755804 
L 451.355056 250.346014 
L 456.057303 248.936224 
L 457.624719 246.821538 
L 462.326966 246.821538 
L 463.110674 244.706853 
L 466.245506 240.477483 
L 467.029213 236.248112 
L 468.596629 234.838322 
L 470.947753 234.838322 
L 472.515169 232.018741 
L 474.082584 230.256503 
L 476.433708 228.494266 
L 479.568539 224.264895 
L 480.352247 222.855105 
L 482.703371 222.855105 
L 483.487079 220.387972 
L 485.054494 218.625734 
L 496.810112 214.866294 
L 499.161236 208.757203 
L 502.296067 207.347413 
L 504.647191 207.347413 
L 505.430899 204.057902 
L 514.835393 201.708252 
L 516.402809 201.003357 
L 518.753933 201.003357 
L 519.53764 199.593566 
L 521.888764 198.183776 
L 524.239888 195.364196 
L 528.942135 193.24951 
L 531.293258 192.544615 
L 532.860674 191.83972 
L 536.779213 191.83972 
L 539.130337 190.42993 
L 539.914045 187.61035 
L 543.048876 186.200559 
L 545.4 186.200559 
L 546.967416 183.380979 
L 549.318539 183.380979 
L 550.885955 179.621538 
L 553.237079 177.036923 
L 557.939326 176.332028 
L 558.723034 171.397762 
L 561.857865 163.878881 
L 563.425281 158.004755 
L 564.992697 156.594965 
L 565.776404 153.775385 
L 570.478652 151.308252 
L 582.23427 148.841119 
L 583.801685 146.726434 
L 585.369101 145.316643 
L 606.529213 144.611748 
L 615.933708 143.906853 
L 617.501124 143.201958 
L 619.852247 143.201958 
L 624.554494 141.087273 
L 633.958989 139.325035 
L 635.526404 136.857902 
L 637.877528 136.857902 
L 639.444944 134.038322 
L 641.796067 131.218741 
L 644.147191 128.751608 
L 651.200562 127.694266 
L 654.335393 124.874685 
L 656.686517 124.874685 
L 658.253933 124.16979 
L 670.009551 124.16979 
L 671.576966 123.464895 
L 673.92809 123.464895 
L 675.495506 122.76 
L 684.9 122.76 
L 684.9 122.76 
" clip-path="url(#p7feb37dc0a)" style="fill: none; stroke: #a1c9f4; stroke-width: 6; stroke-linecap: round"/>
   </g>
   <g id="patch_3">
    <path d="M 99 704.88 
L 99 95.04 
" style="fill: none; stroke: #cccccc; stroke-width: 1.25; stroke-linejoin: miter; stroke-linecap: square"/>
   </g>
   <g id="patch_4">
    <path d="M 712.8 704.88 
L 712.8 95.04 
" style="fill: none; stroke: #cccccc; stroke-width: 1.25; stroke-linejoin: miter; stroke-linecap: square"/>
   </g>
   <g id="patch_5">
    <path d="M 99 704.88 
L 712.8 704.88 
" style="fill: none; stroke: #cccccc; stroke-width: 1.25; stroke-linejoin: miter; stroke-linecap: square"/>
   </g>
   <g id="patch_6">
    <path d="M 99 95.04 
L 712.8 95.04 
" style="fill: none; stroke: #cccccc; stroke-width: 1.25; stroke-linejoin: miter; stroke-linecap: square"/>
   </g>
   <g id="text_15">
    <!-- ROC Curve: black_female_moderate_liberal -->
    <g style="fill: #262626" transform="translate(190.63875 89.04) scale(0.24 -0.24)">
     <defs>
      <path id="TimesNewRomanPSMT-4f" d="M 2341 4334 
Q 3166 4334 3770 3707 
Q 4375 3081 4375 2144 
Q 4375 1178 3765 540 
Q 3156 -97 2291 -97 
Q 1416 -97 820 525 
Q 225 1147 225 2134 
Q 225 3144 913 3781 
Q 1509 4334 2341 4334 
z
M 2281 4106 
Q 1713 4106 1369 3684 
Q 941 3159 941 2147 
Q 941 1109 1384 550 
Q 1725 125 2284 125 
Q 2881 125 3270 590 
Q 3659 1056 3659 2059 
Q 3659 3147 3231 3681 
Q 2888 4106 2281 4106 
z
" transform="scale(0.015625)"/>
      <path id="TimesNewRomanPSMT-43" d="M 3853 4334 
L 3950 2894 
L 3853 2894 
Q 3659 3541 3300 3825 
Q 2941 4109 2438 4109 
Q 2016 4109 1675 3895 
Q 1334 3681 1139 3212 
Q 944 2744 944 2047 
Q 944 1472 1128 1050 
Q 1313 628 1683 403 
Q 2053 178 2528 178 
Q 2941 178 3256 354 
Q 3572 531 3950 1056 
L 4047 994 
Q 3728 428 3303 165 
Q 2878 -97 2294 -97 
Q 1241 -97 663 684 
Q 231 1266 231 2053 
Q 231 2688 515 3219 
Q 800 3750 1298 4042 
Q 1797 4334 2388 4334 
Q 2847 4334 3294 4109 
Q 3425 4041 3481 4041 
Q 3566 4041 3628 4100 
Q 3709 4184 3744 4334 
L 3853 4334 
z
" transform="scale(0.015625)"/>
      <path id="TimesNewRomanPSMT-20" transform="scale(0.015625)"/>
      <path id="TimesNewRomanPSMT-75" d="M 2709 2863 
L 2709 1128 
Q 2709 631 2732 520 
Q 2756 409 2807 365 
Q 2859 322 2928 322 
Q 3025 322 3147 375 
L 3191 266 
L 2334 -88 
L 2194 -88 
L 2194 519 
Q 1825 119 1631 15 
Q 1438 -88 1222 -88 
Q 981 -88 804 51 
Q 628 191 559 409 
Q 491 628 491 1028 
L 491 2306 
Q 491 2509 447 2587 
Q 403 2666 317 2708 
Q 231 2750 6 2747 
L 6 2863 
L 1009 2863 
L 1009 947 
Q 1009 547 1148 422 
Q 1288 297 1484 297 
Q 1619 297 1789 381 
Q 1959 466 2194 703 
L 2194 2325 
Q 2194 2569 2105 2655 
Q 2016 2741 1734 2747 
L 1734 2863 
L 2709 2863 
z
" transform="scale(0.015625)"/>
      <path id="TimesNewRomanPSMT-72" d="M 1038 2947 
L 1038 2303 
Q 1397 2947 1775 2947 
Q 1947 2947 2059 2842 
Q 2172 2738 2172 2600 
Q 2172 2478 2090 2393 
Q 2009 2309 1897 2309 
Q 1788 2309 1652 2417 
Q 1516 2525 1450 2525 
Q 1394 2525 1328 2463 
Q 1188 2334 1038 2041 
L 1038 669 
Q 1038 431 1097 309 
Q 1138 225 1241 169 
Q 1344 113 1538 113 
L 1538 0 
L 72 0 
L 72 113 
Q 291 113 397 181 
Q 475 231 506 341 
Q 522 394 522 644 
L 522 1753 
Q 522 2253 501 2348 
Q 481 2444 426 2487 
Q 372 2531 291 2531 
Q 194 2531 72 2484 
L 41 2597 
L 906 2947 
L 1038 2947 
z
" transform="scale(0.015625)"/>
      <path id="TimesNewRomanPSMT-76" d="M 53 2863 
L 1400 2863 
L 1400 2747 
L 1313 2747 
Q 1191 2747 1127 2687 
Q 1063 2628 1063 2528 
Q 1063 2419 1128 2269 
L 1794 688 
L 2463 2328 
Q 2534 2503 2534 2594 
Q 2534 2638 2509 2666 
Q 2475 2713 2422 2730 
Q 2369 2747 2206 2747 
L 2206 2863 
L 3141 2863 
L 3141 2747 
Q 2978 2734 2916 2681 
Q 2806 2588 2719 2369 
L 1703 -88 
L 1575 -88 
L 553 2328 
Q 484 2497 421 2570 
Q 359 2644 263 2694 
Q 209 2722 53 2747 
L 53 2863 
z
" transform="scale(0.015625)"/>
      <path id="TimesNewRomanPSMT-65" d="M 681 1784 
Q 678 1147 991 784 
Q 1303 422 1725 422 
Q 2006 422 2214 576 
Q 2422 731 2563 1106 
L 2659 1044 
Q 2594 616 2278 264 
Q 1963 -88 1488 -88 
Q 972 -88 605 314 
Q 238 716 238 1394 
Q 238 2128 614 2539 
Q 991 2950 1559 2950 
Q 2041 2950 2350 2633 
Q 2659 2316 2659 1784 
L 681 1784 
z
M 681 1966 
L 2006 1966 
Q 1991 2241 1941 2353 
Q 1863 2528 1708 2628 
Q 1553 2728 1384 2728 
Q 1125 2728 920 2526 
Q 716 2325 681 1966 
z
" transform="scale(0.015625)"/>
      <path id="TimesNewRomanPSMT-3a" d="M 903 2950 
Q 1047 2950 1148 2848 
Q 1250 2747 1250 2603 
Q 1250 2459 1148 2357 
Q 1047 2256 903 2256 
Q 759 2256 657 2357 
Q 556 2459 556 2603 
Q 556 2747 657 2848 
Q 759 2950 903 2950 
z
M 897 609 
Q 1044 609 1145 506 
Q 1247 403 1247 259 
Q 1247 116 1144 14 
Q 1041 -88 897 -88 
Q 753 -88 651 14 
Q 550 116 550 259 
Q 550 403 651 506 
Q 753 609 897 609 
z
" transform="scale(0.015625)"/>
      <path id="TimesNewRomanPSMT-62" d="M 984 2369 
Q 1400 2947 1881 2947 
Q 2322 2947 2650 2570 
Q 2978 2194 2978 1541 
Q 2978 778 2472 313 
Q 2038 -88 1503 -88 
Q 1253 -88 995 3 
Q 738 94 469 275 
L 469 3241 
Q 469 3728 445 3840 
Q 422 3953 372 3993 
Q 322 4034 247 4034 
Q 159 4034 28 3984 
L -16 4094 
L 844 4444 
L 984 4444 
L 984 2369 
z
M 984 2169 
L 984 456 
Q 1144 300 1314 220 
Q 1484 141 1663 141 
Q 1947 141 2192 453 
Q 2438 766 2438 1363 
Q 2438 1913 2192 2208 
Q 1947 2503 1634 2503 
Q 1469 2503 1303 2419 
Q 1178 2356 984 2169 
z
" transform="scale(0.015625)"/>
      <path id="TimesNewRomanPSMT-6c" d="M 1184 4444 
L 1184 647 
Q 1184 378 1223 290 
Q 1263 203 1344 158 
Q 1425 113 1647 113 
L 1647 0 
L 244 0 
L 244 113 
Q 441 113 512 153 
Q 584 194 625 287 
Q 666 381 666 647 
L 666 3247 
Q 666 3731 644 3842 
Q 622 3953 573 3993 
Q 525 4034 450 4034 
Q 369 4034 244 3984 
L 191 4094 
L 1044 4444 
L 1184 4444 
z
" transform="scale(0.015625)"/>
      <path id="TimesNewRomanPSMT-61" d="M 1822 413 
Q 1381 72 1269 19 
Q 1100 -59 909 -59 
Q 613 -59 420 144 
Q 228 347 228 678 
Q 228 888 322 1041 
Q 450 1253 767 1440 
Q 1084 1628 1822 1897 
L 1822 2009 
Q 1822 2438 1686 2597 
Q 1550 2756 1291 2756 
Q 1094 2756 978 2650 
Q 859 2544 859 2406 
L 866 2225 
Q 866 2081 792 2003 
Q 719 1925 600 1925 
Q 484 1925 411 2006 
Q 338 2088 338 2228 
Q 338 2497 613 2722 
Q 888 2947 1384 2947 
Q 1766 2947 2009 2819 
Q 2194 2722 2281 2516 
Q 2338 2381 2338 1966 
L 2338 994 
Q 2338 584 2353 492 
Q 2369 400 2405 369 
Q 2441 338 2488 338 
Q 2538 338 2575 359 
Q 2641 400 2828 588 
L 2828 413 
Q 2478 -56 2159 -56 
Q 2006 -56 1915 50 
Q 1825 156 1822 413 
z
M 1822 616 
L 1822 1706 
Q 1350 1519 1213 1441 
Q 966 1303 859 1153 
Q 753 1003 753 825 
Q 753 600 887 451 
Q 1022 303 1197 303 
Q 1434 303 1822 616 
z
" transform="scale(0.015625)"/>
      <path id="TimesNewRomanPSMT-63" d="M 2631 1088 
Q 2516 522 2178 217 
Q 1841 -88 1431 -88 
Q 944 -88 581 321 
Q 219 731 219 1428 
Q 219 2103 620 2525 
Q 1022 2947 1584 2947 
Q 2006 2947 2278 2723 
Q 2550 2500 2550 2259 
Q 2550 2141 2473 2067 
Q 2397 1994 2259 1994 
Q 2075 1994 1981 2113 
Q 1928 2178 1911 2362 
Q 1894 2547 1784 2644 
Q 1675 2738 1481 2738 
Q 1169 2738 978 2506 
Q 725 2200 725 1697 
Q 725 1184 976 792 
Q 1228 400 1656 400 
Q 1963 400 2206 609 
Q 2378 753 2541 1131 
L 2631 1088 
z
" transform="scale(0.015625)"/>
      <path id="TimesNewRomanPSMT-6b" d="M 1047 4444 
L 1047 1594 
L 1775 2259 
Q 2006 2472 2044 2528 
Q 2069 2566 2069 2603 
Q 2069 2666 2017 2711 
Q 1966 2756 1847 2763 
L 1847 2863 
L 3091 2863 
L 3091 2763 
Q 2834 2756 2664 2684 
Q 2494 2613 2291 2428 
L 1556 1750 
L 2291 822 
Q 2597 438 2703 334 
Q 2853 188 2966 144 
Q 3044 113 3238 113 
L 3238 0 
L 1847 0 
L 1847 113 
Q 1966 116 2008 148 
Q 2050 181 2050 241 
Q 2050 313 1925 472 
L 1047 1594 
L 1047 644 
Q 1047 366 1086 278 
Q 1125 191 1197 153 
Q 1269 116 1509 113 
L 1509 0 
L 53 0 
L 53 113 
Q 272 113 381 166 
Q 447 200 481 272 
Q 528 375 528 628 
L 528 3234 
Q 528 3731 506 3842 
Q 484 3953 434 3995 
Q 384 4038 303 4038 
Q 238 4038 106 3984 
L 53 4094 
L 903 4444 
L 1047 4444 
z
" transform="scale(0.015625)"/>
      <path id="TimesNewRomanPSMT-5f" d="M 3256 -1381 
L -53 -1381 
L -53 -1119 
L 3256 -1119 
L 3256 -1381 
z
" transform="scale(0.015625)"/>
      <path id="TimesNewRomanPSMT-66" d="M 1319 2638 
L 1319 756 
Q 1319 356 1406 250 
Q 1522 113 1716 113 
L 1975 113 
L 1975 0 
L 266 0 
L 266 113 
L 394 113 
Q 519 113 622 175 
Q 725 238 764 344 
Q 803 450 803 756 
L 803 2638 
L 247 2638 
L 247 2863 
L 803 2863 
L 803 3050 
Q 803 3478 940 3775 
Q 1078 4072 1361 4255 
Q 1644 4438 1997 4438 
Q 2325 4438 2600 4225 
Q 2781 4084 2781 3909 
Q 2781 3816 2700 3733 
Q 2619 3650 2525 3650 
Q 2453 3650 2373 3701 
Q 2294 3753 2178 3923 
Q 2063 4094 1966 4153 
Q 1869 4213 1750 4213 
Q 1606 4213 1506 4136 
Q 1406 4059 1362 3898 
Q 1319 3738 1319 3069 
L 1319 2863 
L 2056 2863 
L 2056 2638 
L 1319 2638 
z
" transform="scale(0.015625)"/>
      <path id="TimesNewRomanPSMT-6d" d="M 1050 2338 
Q 1363 2650 1419 2697 
Q 1559 2816 1721 2881 
Q 1884 2947 2044 2947 
Q 2313 2947 2506 2790 
Q 2700 2634 2766 2338 
Q 3088 2713 3309 2830 
Q 3531 2947 3766 2947 
Q 3994 2947 4170 2830 
Q 4347 2713 4450 2447 
Q 4519 2266 4519 1878 
L 4519 647 
Q 4519 378 4559 278 
Q 4591 209 4675 161 
Q 4759 113 4950 113 
L 4950 0 
L 3538 0 
L 3538 113 
L 3597 113 
Q 3781 113 3884 184 
Q 3956 234 3988 344 
Q 4000 397 4000 647 
L 4000 1878 
Q 4000 2228 3916 2372 
Q 3794 2572 3525 2572 
Q 3359 2572 3192 2489 
Q 3025 2406 2788 2181 
L 2781 2147 
L 2788 2013 
L 2788 647 
Q 2788 353 2820 281 
Q 2853 209 2943 161 
Q 3034 113 3253 113 
L 3253 0 
L 1806 0 
L 1806 113 
Q 2044 113 2133 169 
Q 2222 225 2256 338 
Q 2272 391 2272 647 
L 2272 1878 
Q 2272 2228 2169 2381 
Q 2031 2581 1784 2581 
Q 1616 2581 1450 2491 
Q 1191 2353 1050 2181 
L 1050 647 
Q 1050 366 1089 281 
Q 1128 197 1204 155 
Q 1281 113 1516 113 
L 1516 0 
L 100 0 
L 100 113 
Q 297 113 375 155 
Q 453 197 493 289 
Q 534 381 534 647 
L 534 1741 
Q 534 2213 506 2350 
Q 484 2453 437 2492 
Q 391 2531 309 2531 
Q 222 2531 100 2484 
L 53 2597 
L 916 2947 
L 1050 2947 
L 1050 2338 
z
" transform="scale(0.015625)"/>
      <path id="TimesNewRomanPSMT-6f" d="M 1600 2947 
Q 2250 2947 2644 2453 
Q 2978 2031 2978 1484 
Q 2978 1100 2793 706 
Q 2609 313 2286 112 
Q 1963 -88 1566 -88 
Q 919 -88 538 428 
Q 216 863 216 1403 
Q 216 1797 411 2186 
Q 606 2575 925 2761 
Q 1244 2947 1600 2947 
z
M 1503 2744 
Q 1338 2744 1170 2645 
Q 1003 2547 900 2300 
Q 797 2053 797 1666 
Q 797 1041 1045 587 
Q 1294 134 1700 134 
Q 2003 134 2200 384 
Q 2397 634 2397 1244 
Q 2397 2006 2069 2444 
Q 1847 2744 1503 2744 
z
" transform="scale(0.015625)"/>
      <path id="TimesNewRomanPSMT-64" d="M 2222 322 
Q 2013 103 1813 7 
Q 1613 -88 1381 -88 
Q 913 -88 563 304 
Q 213 697 213 1313 
Q 213 1928 600 2439 
Q 988 2950 1597 2950 
Q 1975 2950 2222 2709 
L 2222 3238 
Q 2222 3728 2198 3840 
Q 2175 3953 2125 3993 
Q 2075 4034 2000 4034 
Q 1919 4034 1784 3984 
L 1744 4094 
L 2597 4444 
L 2738 4444 
L 2738 1134 
Q 2738 631 2761 520 
Q 2784 409 2836 365 
Q 2888 322 2956 322 
Q 3041 322 3181 375 
L 3216 266 
L 2366 -88 
L 2222 -88 
L 2222 322 
z
M 2222 541 
L 2222 2016 
Q 2203 2228 2109 2403 
Q 2016 2578 1861 2667 
Q 1706 2756 1559 2756 
Q 1284 2756 1069 2509 
Q 784 2184 784 1559 
Q 784 928 1059 592 
Q 1334 256 1672 256 
Q 1956 256 2222 541 
z
" transform="scale(0.015625)"/>
      <path id="TimesNewRomanPSMT-74" d="M 1031 3803 
L 1031 2863 
L 1700 2863 
L 1700 2644 
L 1031 2644 
L 1031 788 
Q 1031 509 1111 412 
Q 1191 316 1316 316 
Q 1419 316 1516 380 
Q 1613 444 1666 569 
L 1788 569 
Q 1678 263 1478 108 
Q 1278 -47 1066 -47 
Q 922 -47 784 33 
Q 647 113 581 261 
Q 516 409 516 719 
L 516 2644 
L 63 2644 
L 63 2747 
Q 234 2816 414 2980 
Q 594 3144 734 3369 
Q 806 3488 934 3803 
L 1031 3803 
z
" transform="scale(0.015625)"/>
      <path id="TimesNewRomanPSMT-69" d="M 928 4444 
Q 1059 4444 1151 4351 
Q 1244 4259 1244 4128 
Q 1244 3997 1151 3903 
Q 1059 3809 928 3809 
Q 797 3809 703 3903 
Q 609 3997 609 4128 
Q 609 4259 701 4351 
Q 794 4444 928 4444 
z
M 1188 2947 
L 1188 647 
Q 1188 378 1227 289 
Q 1266 200 1342 156 
Q 1419 113 1622 113 
L 1622 0 
L 231 0 
L 231 113 
Q 441 113 512 153 
Q 584 194 626 287 
Q 669 381 669 647 
L 669 1750 
Q 669 2216 641 2353 
Q 619 2453 572 2492 
Q 525 2531 444 2531 
Q 356 2531 231 2484 
L 188 2597 
L 1050 2947 
L 1188 2947 
z
" transform="scale(0.015625)"/>
     </defs>
     <use xlink:href="#TimesNewRomanPSMT-52"/>
     <use xlink:href="#TimesNewRomanPSMT-4f" x="66.699219"/>
     <use xlink:href="#TimesNewRomanPSMT-43" x="138.916016"/>
     <use xlink:href="#TimesNewRomanPSMT-20" x="205.615234"/>
     <use xlink:href="#TimesNewRomanPSMT-43" x="230.615234"/>
     <use xlink:href="#TimesNewRomanPSMT-75" x="297.314453"/>
     <use xlink:href="#TimesNewRomanPSMT-72" x="347.314453"/>
     <use xlink:href="#TimesNewRomanPSMT-76" x="380.615234"/>
     <use xlink:href="#TimesNewRomanPSMT-65" x="430.615234"/>
     <use xlink:href="#TimesNewRomanPSMT-3a" x="475"/>
     <use xlink:href="#TimesNewRomanPSMT-20" x="502.783203"/>
     <use xlink:href="#TimesNewRomanPSMT-62" x="527.783203"/>
     <use xlink:href="#TimesNewRomanPSMT-6c" x="577.783203"/>
     <use xlink:href="#TimesNewRomanPSMT-61" x="605.566406"/>
     <use xlink:href="#TimesNewRomanPSMT-63" x="649.951172"/>
     <use xlink:href="#TimesNewRomanPSMT-6b" x="694.335938"/>
     <use xlink:href="#TimesNewRomanPSMT-5f" x="744.335938"/>
     <use xlink:href="#TimesNewRomanPSMT-66" x="794.335938"/>
     <use xlink:href="#TimesNewRomanPSMT-65" x="827.636719"/>
     <use xlink:href="#TimesNewRomanPSMT-6d" x="872.021484"/>
     <use xlink:href="#TimesNewRomanPSMT-61" x="949.804688"/>
     <use xlink:href="#TimesNewRomanPSMT-6c" x="994.189453"/>
     <use xlink:href="#TimesNewRomanPSMT-65" x="1021.972656"/>
     <use xlink:href="#TimesNewRomanPSMT-5f" x="1066.357422"/>
     <use xlink:href="#TimesNewRomanPSMT-6d" x="1116.357422"/>
     <use xlink:href="#TimesNewRomanPSMT-6f" x="1194.140625"/>
     <use xlink:href="#TimesNewRomanPSMT-64" x="1244.140625"/>
     <use xlink:href="#TimesNewRomanPSMT-65" x="1294.140625"/>
     <use xlink:href="#TimesNewRomanPSMT-72" x="1338.525391"/>
     <use xlink:href="#TimesNewRomanPSMT-61" x="1371.826172"/>
     <use xlink:href="#TimesNewRomanPSMT-74" x="1416.210938"/>
     <use xlink:href="#TimesNewRomanPSMT-65" x="1443.994141"/>
     <use xlink:href="#TimesNewRomanPSMT-5f" x="1488.378906"/>
     <use xlink:href="#TimesNewRomanPSMT-6c" x="1538.378906"/>
     <use xlink:href="#TimesNewRomanPSMT-69" x="1566.162109"/>
     <use xlink:href="#TimesNewRomanPSMT-62" x="1593.945312"/>
     <use xlink:href="#TimesNewRomanPSMT-65" x="1643.945312"/>
     <use xlink:href="#TimesNewRomanPSMT-72" x="1688.330078"/>
     <use xlink:href="#TimesNewRomanPSMT-61" x="1721.630859"/>
     <use xlink:href="#TimesNewRomanPSMT-6c" x="1766.015625"/>
    </g>
   </g>
  </g>
 </g>
 <defs>
  <clipPath id="p7feb37dc0a">
   <rect x="99" y="95.04" width="613.8" height="609.84"/>
  </clipPath>
 </defs>
</svg>
