<?xml version="1.0" encoding="utf-8" standalone="no"?>
<!DOCTYPE svg PUBLIC "-//W3C//DTD SVG 1.1//EN"
  "http://www.w3.org/Graphics/SVG/1.1/DTD/svg11.dtd">
<svg xmlns:xlink="http://www.w3.org/1999/xlink" width="792pt" height="792pt" viewBox="0 0 792 792" xmlns="http://www.w3.org/2000/svg" version="1.1">
 <metadata>
  <rdf:RDF xmlns:dc="http://purl.org/dc/elements/1.1/" xmlns:cc="http://creativecommons.org/ns#" xmlns:rdf="http://www.w3.org/1999/02/22-rdf-syntax-ns#">
   <cc:Work>
    <dc:type rdf:resource="http://purl.org/dc/dcmitype/StillImage"/>
    <dc:date>2024-04-30T17:08:29.376497</dc:date>
    <dc:format>image/svg+xml</dc:format>
    <dc:creator>
     <cc:Agent>
      <dc:title>Matplotlib v3.8.4, https://matplotlib.org/</dc:title>
     </cc:Agent>
    </dc:creator>
   </cc:Work>
  </rdf:RDF>
 </metadata>
 <defs>
  <style type="text/css">*{stroke-linejoin: round; stroke-linecap: butt}</style>
 </defs>
 <g id="figure_1">
  <g id="patch_1">
   <path d="M 0 792 
L 792 792 
L 792 0 
L 0 0 
z
" style="fill: #ffffff"/>
  </g>
  <g id="axes_1">
   <g id="patch_2">
    <path d="M 99 704.88 
L 712.8 704.88 
L 712.8 95.04 
L 99 95.04 
z
" style="fill: #ffffff"/>
   </g>
   <g id="matplotlib.axis_1">
    <g id="xtick_1">
     <g id="line2d_1">
      <path d="M 126.9 704.88 
L 126.9 95.04 
" clip-path="url(#p23fc9f9a23)" style="fill: none; stroke: #cccccc; stroke-linecap: round"/>
     </g>
     <g id="text_1">
      <!-- 0.0 -->
      <g style="fill: #262626" transform="translate(113.15 729.65625) scale(0.22 -0.22)">
       <defs>
        <path id="TimesNewRomanPSMT-30" d="M 231 2094 
Q 231 2819 450 3342 
Q 669 3866 1031 4122 
Q 1313 4325 1613 4325 
Q 2100 4325 2488 3828 
Q 2972 3213 2972 2159 
Q 2972 1422 2759 906 
Q 2547 391 2217 158 
Q 1888 -75 1581 -75 
Q 975 -75 572 641 
Q 231 1244 231 2094 
z
M 844 2016 
Q 844 1141 1059 588 
Q 1238 122 1591 122 
Q 1759 122 1940 273 
Q 2122 425 2216 781 
Q 2359 1319 2359 2297 
Q 2359 3022 2209 3506 
Q 2097 3866 1919 4016 
Q 1791 4119 1609 4119 
Q 1397 4119 1231 3928 
Q 1006 3669 925 3112 
Q 844 2556 844 2016 
z
" transform="scale(0.015625)"/>
        <path id="TimesNewRomanPSMT-2e" d="M 800 606 
Q 947 606 1047 504 
Q 1147 403 1147 259 
Q 1147 116 1045 14 
Q 944 -88 800 -88 
Q 656 -88 554 14 
Q 453 116 453 259 
Q 453 406 554 506 
Q 656 606 800 606 
z
" transform="scale(0.015625)"/>
       </defs>
       <use xlink:href="#TimesNewRomanPSMT-30"/>
       <use xlink:href="#TimesNewRomanPSMT-2e" x="50"/>
       <use xlink:href="#TimesNewRomanPSMT-30" x="75"/>
      </g>
     </g>
    </g>
    <g id="xtick_2">
     <g id="line2d_2">
      <path d="M 238.5 704.88 
L 238.5 95.04 
" clip-path="url(#p23fc9f9a23)" style="fill: none; stroke: #cccccc; stroke-linecap: round"/>
     </g>
     <g id="text_2">
      <!-- 0.2 -->
      <g style="fill: #262626" transform="translate(224.75 729.65625) scale(0.22 -0.22)">
       <defs>
        <path id="TimesNewRomanPSMT-32" d="M 2934 816 
L 2638 0 
L 138 0 
L 138 116 
Q 1241 1122 1691 1759 
Q 2141 2397 2141 2925 
Q 2141 3328 1894 3587 
Q 1647 3847 1303 3847 
Q 991 3847 742 3664 
Q 494 3481 375 3128 
L 259 3128 
Q 338 3706 661 4015 
Q 984 4325 1469 4325 
Q 1984 4325 2329 3994 
Q 2675 3663 2675 3213 
Q 2675 2891 2525 2569 
Q 2294 2063 1775 1497 
Q 997 647 803 472 
L 1909 472 
Q 2247 472 2383 497 
Q 2519 522 2628 598 
Q 2738 675 2819 816 
L 2934 816 
z
" transform="scale(0.015625)"/>
       </defs>
       <use xlink:href="#TimesNewRomanPSMT-30"/>
       <use xlink:href="#TimesNewRomanPSMT-2e" x="50"/>
       <use xlink:href="#TimesNewRomanPSMT-32" x="75"/>
      </g>
     </g>
    </g>
    <g id="xtick_3">
     <g id="line2d_3">
      <path d="M 350.1 704.88 
L 350.1 95.04 
" clip-path="url(#p23fc9f9a23)" style="fill: none; stroke: #cccccc; stroke-linecap: round"/>
     </g>
     <g id="text_3">
      <!-- 0.4 -->
      <g style="fill: #262626" transform="translate(336.35 729.65625) scale(0.22 -0.22)">
       <defs>
        <path id="TimesNewRomanPSMT-34" d="M 2978 1563 
L 2978 1119 
L 2409 1119 
L 2409 0 
L 1894 0 
L 1894 1119 
L 100 1119 
L 100 1519 
L 2066 4325 
L 2409 4325 
L 2409 1563 
L 2978 1563 
z
M 1894 1563 
L 1894 3666 
L 406 1563 
L 1894 1563 
z
" transform="scale(0.015625)"/>
       </defs>
       <use xlink:href="#TimesNewRomanPSMT-30"/>
       <use xlink:href="#TimesNewRomanPSMT-2e" x="50"/>
       <use xlink:href="#TimesNewRomanPSMT-34" x="75"/>
      </g>
     </g>
    </g>
    <g id="xtick_4">
     <g id="line2d_4">
      <path d="M 461.7 704.88 
L 461.7 95.04 
" clip-path="url(#p23fc9f9a23)" style="fill: none; stroke: #cccccc; stroke-linecap: round"/>
     </g>
     <g id="text_4">
      <!-- 0.6 -->
      <g style="fill: #262626" transform="translate(447.95 729.65625) scale(0.22 -0.22)">
       <defs>
        <path id="TimesNewRomanPSMT-36" d="M 2869 4325 
L 2869 4209 
Q 2456 4169 2195 4045 
Q 1934 3922 1679 3669 
Q 1425 3416 1258 3105 
Q 1091 2794 978 2366 
Q 1428 2675 1881 2675 
Q 2316 2675 2634 2325 
Q 2953 1975 2953 1425 
Q 2953 894 2631 456 
Q 2244 -75 1606 -75 
Q 1172 -75 869 213 
Q 275 772 275 1663 
Q 275 2231 503 2743 
Q 731 3256 1154 3653 
Q 1578 4050 1965 4187 
Q 2353 4325 2688 4325 
L 2869 4325 
z
M 925 2138 
Q 869 1716 869 1456 
Q 869 1156 980 804 
Q 1091 453 1309 247 
Q 1469 100 1697 100 
Q 1969 100 2183 356 
Q 2397 613 2397 1088 
Q 2397 1622 2184 2012 
Q 1972 2403 1581 2403 
Q 1463 2403 1327 2353 
Q 1191 2303 925 2138 
z
" transform="scale(0.015625)"/>
       </defs>
       <use xlink:href="#TimesNewRomanPSMT-30"/>
       <use xlink:href="#TimesNewRomanPSMT-2e" x="50"/>
       <use xlink:href="#TimesNewRomanPSMT-36" x="75"/>
      </g>
     </g>
    </g>
    <g id="xtick_5">
     <g id="line2d_5">
      <path d="M 573.3 704.88 
L 573.3 95.04 
" clip-path="url(#p23fc9f9a23)" style="fill: none; stroke: #cccccc; stroke-linecap: round"/>
     </g>
     <g id="text_5">
      <!-- 0.8 -->
      <g style="fill: #262626" transform="translate(559.55 729.65625) scale(0.22 -0.22)">
       <defs>
        <path id="TimesNewRomanPSMT-38" d="M 1228 2134 
Q 725 2547 579 2797 
Q 434 3047 434 3316 
Q 434 3728 753 4026 
Q 1072 4325 1600 4325 
Q 2113 4325 2425 4047 
Q 2738 3769 2738 3413 
Q 2738 3175 2569 2928 
Q 2400 2681 1866 2347 
Q 2416 1922 2594 1678 
Q 2831 1359 2831 1006 
Q 2831 559 2490 242 
Q 2150 -75 1597 -75 
Q 994 -75 656 303 
Q 388 606 388 966 
Q 388 1247 577 1523 
Q 766 1800 1228 2134 
z
M 1719 2469 
Q 2094 2806 2194 3001 
Q 2294 3197 2294 3444 
Q 2294 3772 2109 3958 
Q 1925 4144 1606 4144 
Q 1288 4144 1088 3959 
Q 888 3775 888 3528 
Q 888 3366 970 3203 
Q 1053 3041 1206 2894 
L 1719 2469 
z
M 1375 2016 
Q 1116 1797 991 1539 
Q 866 1281 866 981 
Q 866 578 1086 336 
Q 1306 94 1647 94 
Q 1984 94 2187 284 
Q 2391 475 2391 747 
Q 2391 972 2272 1150 
Q 2050 1481 1375 2016 
z
" transform="scale(0.015625)"/>
       </defs>
       <use xlink:href="#TimesNewRomanPSMT-30"/>
       <use xlink:href="#TimesNewRomanPSMT-2e" x="50"/>
       <use xlink:href="#TimesNewRomanPSMT-38" x="75"/>
      </g>
     </g>
    </g>
    <g id="xtick_6">
     <g id="line2d_6">
      <path d="M 684.9 704.88 
L 684.9 95.04 
" clip-path="url(#p23fc9f9a23)" style="fill: none; stroke: #cccccc; stroke-linecap: round"/>
     </g>
     <g id="text_6">
      <!-- 1.0 -->
      <g style="fill: #262626" transform="translate(671.15 729.65625) scale(0.22 -0.22)">
       <defs>
        <path id="TimesNewRomanPSMT-31" d="M 750 3822 
L 1781 4325 
L 1884 4325 
L 1884 747 
Q 1884 391 1914 303 
Q 1944 216 2037 169 
Q 2131 122 2419 116 
L 2419 0 
L 825 0 
L 825 116 
Q 1125 122 1212 167 
Q 1300 213 1334 289 
Q 1369 366 1369 747 
L 1369 3034 
Q 1369 3497 1338 3628 
Q 1316 3728 1258 3775 
Q 1200 3822 1119 3822 
Q 1003 3822 797 3725 
L 750 3822 
z
" transform="scale(0.015625)"/>
       </defs>
       <use xlink:href="#TimesNewRomanPSMT-31"/>
       <use xlink:href="#TimesNewRomanPSMT-2e" x="50"/>
       <use xlink:href="#TimesNewRomanPSMT-30" x="75"/>
      </g>
     </g>
    </g>
    <g id="text_7">
     <!-- FPR -->
     <g style="fill: #262626" transform="translate(384.549375 755.027187) scale(0.24 -0.24)">
      <defs>
       <path id="TimesNewRomanPSMT-46" d="M 1309 4006 
L 1309 2341 
L 2081 2341 
Q 2347 2341 2470 2458 
Q 2594 2575 2634 2922 
L 2750 2922 
L 2750 1488 
L 2634 1488 
Q 2631 1734 2570 1850 
Q 2509 1966 2401 2023 
Q 2294 2081 2081 2081 
L 1309 2081 
L 1309 750 
Q 1309 428 1350 325 
Q 1381 247 1481 191 
Q 1619 116 1769 116 
L 1922 116 
L 1922 0 
L 103 0 
L 103 116 
L 253 116 
Q 516 116 634 269 
Q 709 369 709 750 
L 709 3488 
Q 709 3809 669 3913 
Q 638 3991 541 4047 
Q 406 4122 253 4122 
L 103 4122 
L 103 4238 
L 3256 4238 
L 3297 3306 
L 3188 3306 
Q 3106 3603 2998 3742 
Q 2891 3881 2733 3943 
Q 2575 4006 2244 4006 
L 1309 4006 
z
" transform="scale(0.015625)"/>
       <path id="TimesNewRomanPSMT-50" d="M 1313 1984 
L 1313 750 
Q 1313 350 1400 253 
Q 1519 116 1759 116 
L 1922 116 
L 1922 0 
L 106 0 
L 106 116 
L 266 116 
Q 534 116 650 291 
Q 713 388 713 750 
L 713 3488 
Q 713 3888 628 3984 
Q 506 4122 266 4122 
L 106 4122 
L 106 4238 
L 1659 4238 
Q 2228 4238 2556 4120 
Q 2884 4003 3109 3725 
Q 3334 3447 3334 3066 
Q 3334 2547 2992 2222 
Q 2650 1897 2025 1897 
Q 1872 1897 1694 1919 
Q 1516 1941 1313 1984 
z
M 1313 2163 
Q 1478 2131 1606 2115 
Q 1734 2100 1825 2100 
Q 2150 2100 2386 2351 
Q 2622 2603 2622 3003 
Q 2622 3278 2509 3514 
Q 2397 3750 2190 3867 
Q 1984 3984 1722 3984 
Q 1563 3984 1313 3925 
L 1313 2163 
z
" transform="scale(0.015625)"/>
       <path id="TimesNewRomanPSMT-52" d="M 4325 0 
L 3194 0 
L 1759 1981 
Q 1600 1975 1500 1975 
Q 1459 1975 1412 1976 
Q 1366 1978 1316 1981 
L 1316 750 
Q 1316 350 1403 253 
Q 1522 116 1759 116 
L 1925 116 
L 1925 0 
L 109 0 
L 109 116 
L 269 116 
Q 538 116 653 291 
Q 719 388 719 750 
L 719 3488 
Q 719 3888 631 3984 
Q 509 4122 269 4122 
L 109 4122 
L 109 4238 
L 1653 4238 
Q 2328 4238 2648 4139 
Q 2969 4041 3192 3777 
Q 3416 3513 3416 3147 
Q 3416 2756 3161 2468 
Q 2906 2181 2372 2063 
L 3247 847 
Q 3547 428 3762 290 
Q 3978 153 4325 116 
L 4325 0 
z
M 1316 2178 
Q 1375 2178 1419 2176 
Q 1463 2175 1491 2175 
Q 2097 2175 2405 2437 
Q 2713 2700 2713 3106 
Q 2713 3503 2464 3751 
Q 2216 4000 1806 4000 
Q 1625 4000 1316 3941 
L 1316 2178 
z
" transform="scale(0.015625)"/>
      </defs>
      <use xlink:href="#TimesNewRomanPSMT-46"/>
      <use xlink:href="#TimesNewRomanPSMT-50" x="55.615234"/>
      <use xlink:href="#TimesNewRomanPSMT-52" x="111.230469"/>
     </g>
    </g>
   </g>
   <g id="matplotlib.axis_2">
    <g id="ytick_1">
     <g id="line2d_7">
      <path d="M 99 677.16 
L 712.8 677.16 
" clip-path="url(#p23fc9f9a23)" style="fill: none; stroke: #cccccc; stroke-linecap: round"/>
     </g>
     <g id="text_8">
      <!-- 0.0 -->
      <g style="fill: #262626" transform="translate(62 684.798125) scale(0.22 -0.22)">
       <use xlink:href="#TimesNewRomanPSMT-30"/>
       <use xlink:href="#TimesNewRomanPSMT-2e" x="50"/>
       <use xlink:href="#TimesNewRomanPSMT-30" x="75"/>
      </g>
     </g>
    </g>
    <g id="ytick_2">
     <g id="line2d_8">
      <path d="M 99 566.28 
L 712.8 566.28 
" clip-path="url(#p23fc9f9a23)" style="fill: none; stroke: #cccccc; stroke-linecap: round"/>
     </g>
     <g id="text_9">
      <!-- 0.2 -->
      <g style="fill: #262626" transform="translate(62 573.918125) scale(0.22 -0.22)">
       <use xlink:href="#TimesNewRomanPSMT-30"/>
       <use xlink:href="#TimesNewRomanPSMT-2e" x="50"/>
       <use xlink:href="#TimesNewRomanPSMT-32" x="75"/>
      </g>
     </g>
    </g>
    <g id="ytick_3">
     <g id="line2d_9">
      <path d="M 99 455.4 
L 712.8 455.4 
" clip-path="url(#p23fc9f9a23)" style="fill: none; stroke: #cccccc; stroke-linecap: round"/>
     </g>
     <g id="text_10">
      <!-- 0.4 -->
      <g style="fill: #262626" transform="translate(62 463.038125) scale(0.22 -0.22)">
       <use xlink:href="#TimesNewRomanPSMT-30"/>
       <use xlink:href="#TimesNewRomanPSMT-2e" x="50"/>
       <use xlink:href="#TimesNewRomanPSMT-34" x="75"/>
      </g>
     </g>
    </g>
    <g id="ytick_4">
     <g id="line2d_10">
      <path d="M 99 344.52 
L 712.8 344.52 
" clip-path="url(#p23fc9f9a23)" style="fill: none; stroke: #cccccc; stroke-linecap: round"/>
     </g>
     <g id="text_11">
      <!-- 0.6 -->
      <g style="fill: #262626" transform="translate(62 352.158125) scale(0.22 -0.22)">
       <use xlink:href="#TimesNewRomanPSMT-30"/>
       <use xlink:href="#TimesNewRomanPSMT-2e" x="50"/>
       <use xlink:href="#TimesNewRomanPSMT-36" x="75"/>
      </g>
     </g>
    </g>
    <g id="ytick_5">
     <g id="line2d_11">
      <path d="M 99 233.64 
L 712.8 233.64 
" clip-path="url(#p23fc9f9a23)" style="fill: none; stroke: #cccccc; stroke-linecap: round"/>
     </g>
     <g id="text_12">
      <!-- 0.8 -->
      <g style="fill: #262626" transform="translate(62 241.278125) scale(0.22 -0.22)">
       <use xlink:href="#TimesNewRomanPSMT-30"/>
       <use xlink:href="#TimesNewRomanPSMT-2e" x="50"/>
       <use xlink:href="#TimesNewRomanPSMT-38" x="75"/>
      </g>
     </g>
    </g>
    <g id="ytick_6">
     <g id="line2d_12">
      <path d="M 99 122.76 
L 712.8 122.76 
" clip-path="url(#p23fc9f9a23)" style="fill: none; stroke: #cccccc; stroke-linecap: round"/>
     </g>
     <g id="text_13">
      <!-- 1.0 -->
      <g style="fill: #262626" transform="translate(62 130.398125) scale(0.22 -0.22)">
       <use xlink:href="#TimesNewRomanPSMT-31"/>
       <use xlink:href="#TimesNewRomanPSMT-2e" x="50"/>
       <use xlink:href="#TimesNewRomanPSMT-30" x="75"/>
      </g>
     </g>
    </g>
    <g id="text_14">
     <!-- TPR -->
     <g style="fill: #262626" transform="translate(52.86625 421.966875) rotate(-90) scale(0.24 -0.24)">
      <defs>
       <path id="TimesNewRomanPSMT-54" d="M 3703 4238 
L 3750 3244 
L 3631 3244 
Q 3597 3506 3538 3619 
Q 3441 3800 3280 3886 
Q 3119 3972 2856 3972 
L 2259 3972 
L 2259 734 
Q 2259 344 2344 247 
Q 2463 116 2709 116 
L 2856 116 
L 2856 0 
L 1059 0 
L 1059 116 
L 1209 116 
Q 1478 116 1591 278 
Q 1659 378 1659 734 
L 1659 3972 
L 1150 3972 
Q 853 3972 728 3928 
Q 566 3869 450 3700 
Q 334 3531 313 3244 
L 194 3244 
L 244 4238 
L 3703 4238 
z
" transform="scale(0.015625)"/>
      </defs>
      <use xlink:href="#TimesNewRomanPSMT-54"/>
      <use xlink:href="#TimesNewRomanPSMT-50" x="61.083984"/>
      <use xlink:href="#TimesNewRomanPSMT-52" x="116.699219"/>
     </g>
    </g>
   </g>
   <g id="PolyCollection_1">
    <path d="M 128.467416 672.93868 
L 128.467416 674.345787 
L 130.034831 672.235127 
L 130.818539 668.013807 
L 130.818539 663.088934 
L 130.818539 663.088934 
L 130.034831 669.420914 
L 128.467416 672.93868 
z
" clip-path="url(#p23fc9f9a23)" style="fill: #a1c9f4; fill-opacity: 0.2; stroke: #a1c9f4; stroke-opacity: 0.2"/>
    <path d="M 144.925281 654.646294 
L 144.925281 658.867614 
L 148.060112 652.535635 
L 149.627528 646.907208 
L 149.627528 645.500102 
L 149.627528 645.500102 
L 148.060112 651.128528 
L 144.925281 654.646294 
z
" clip-path="url(#p23fc9f9a23)" style="fill: #a1c9f4; fill-opacity: 0.2; stroke: #a1c9f4; stroke-opacity: 0.2"/>
    <path d="M 158.248315 640.575228 
L 158.248315 644.796548 
L 159.032022 639.168122 
L 159.81573 633.539695 
L 162.166854 629.318376 
L 162.166854 625.097056 
L 162.166854 625.097056 
L 159.81573 629.318376 
L 159.032022 634.946802 
L 158.248315 640.575228 
z
" clip-path="url(#p23fc9f9a23)" style="fill: #a1c9f4; fill-opacity: 0.2; stroke: #a1c9f4; stroke-opacity: 0.2"/>
    <path d="M 166.869101 620.875736 
L 166.869101 622.986396 
L 168.436517 619.468629 
L 168.436517 616.654416 
L 168.436517 616.654416 
L 166.869101 620.875736 
z
" clip-path="url(#p23fc9f9a23)" style="fill: #a1c9f4; fill-opacity: 0.2; stroke: #a1c9f4; stroke-opacity: 0.2"/>
    <path d="M 180.975843 602.58335 
L 180.975843 606.80467 
L 180.975843 602.58335 
L 180.975843 602.58335 
z
" clip-path="url(#p23fc9f9a23)" style="fill: #a1c9f4; fill-opacity: 0.2; stroke: #a1c9f4; stroke-opacity: 0.2"/>
    <path d="M 188.812921 594.844264 
L 188.812921 596.954924 
L 188.812921 594.844264 
L 188.812921 594.844264 
z
" clip-path="url(#p23fc9f9a23)" style="fill: #a1c9f4; fill-opacity: 0.2; stroke: #a1c9f4; stroke-opacity: 0.2"/>
    <path d="M 192.731461 582.883858 
L 192.731461 592.030051 
L 194.298876 582.180305 
L 196.65 580.773198 
L 196.65 577.255431 
L 196.65 577.255431 
L 194.298876 580.773198 
L 192.731461 582.883858 
z
" clip-path="url(#p23fc9f9a23)" style="fill: #a1c9f4; fill-opacity: 0.2; stroke: #a1c9f4; stroke-opacity: 0.2"/>
    <path d="M 202.135955 574.441218 
L 202.135955 575.848325 
L 202.919663 573.034112 
L 203.703371 569.516345 
L 203.703371 565.295025 
L 203.703371 565.295025 
L 202.919663 570.923452 
L 202.135955 574.441218 
z
" clip-path="url(#p23fc9f9a23)" style="fill: #a1c9f4; fill-opacity: 0.2; stroke: #a1c9f4; stroke-opacity: 0.2"/>
    <path d="M 206.054494 559.432081 
L 206.054494 563.184365 
L 208.405618 554.741726 
L 209.973034 549.816853 
L 214.675281 542.78132 
L 214.675281 539.967107 
L 214.675281 539.967107 
L 209.973034 542.78132 
L 208.405618 550.520406 
L 206.054494 559.432081 
z
" clip-path="url(#p23fc9f9a23)" style="fill: #a1c9f4; fill-opacity: 0.2; stroke: #a1c9f4; stroke-opacity: 0.2"/>
    <path d="M 219.377528 533.635127 
L 219.377528 537.856447 
L 219.377528 533.635127 
L 219.377528 533.635127 
z
" clip-path="url(#p23fc9f9a23)" style="fill: #a1c9f4; fill-opacity: 0.2; stroke: #a1c9f4; stroke-opacity: 0.2"/>
    <path d="M 221.728652 529.413807 
L 221.728652 532.22802 
L 221.728652 529.413807 
L 221.728652 529.413807 
z
" clip-path="url(#p23fc9f9a23)" style="fill: #a1c9f4; fill-opacity: 0.2; stroke: #a1c9f4; stroke-opacity: 0.2"/>
    <path d="M 224.863483 517.805178 
L 224.863483 526.960165 
L 227.214607 515.342741 
L 227.214607 511.121421 
L 227.214607 511.121421 
L 224.863483 517.805178 
z
" clip-path="url(#p23fc9f9a23)" style="fill: #a1c9f4; fill-opacity: 0.2; stroke: #a1c9f4; stroke-opacity: 0.2"/>
    <path d="M 235.835393 504.085888 
L 235.835393 508.307208 
L 235.835393 504.085888 
L 235.835393 504.085888 
z
" clip-path="url(#p23fc9f9a23)" style="fill: #a1c9f4; fill-opacity: 0.2; stroke: #a1c9f4; stroke-opacity: 0.2"/>
    <path d="M 242.888764 497.753909 
L 242.888764 501.975228 
L 245.239888 496.346802 
L 246.023596 493.532589 
L 246.023596 489.311269 
L 246.023596 489.311269 
L 245.239888 494.939695 
L 242.888764 497.753909 
z
" clip-path="url(#p23fc9f9a23)" style="fill: #a1c9f4; fill-opacity: 0.2; stroke: #a1c9f4; stroke-opacity: 0.2"/>
    <path d="M 249.942135 486.497056 
L 249.942135 488.607716 
L 249.942135 486.497056 
L 249.942135 486.497056 
z
" clip-path="url(#p23fc9f9a23)" style="fill: #a1c9f4; fill-opacity: 0.2; stroke: #a1c9f4; stroke-opacity: 0.2"/>
    <path d="M 256.995506 479.461523 
L 256.995506 483.682843 
L 256.995506 479.461523 
L 256.995506 479.461523 
z
" clip-path="url(#p23fc9f9a23)" style="fill: #a1c9f4; fill-opacity: 0.2; stroke: #a1c9f4; stroke-opacity: 0.2"/>
    <path d="M 264.048876 465.742234 
L 264.048876 473.833096 
L 271.102247 461.028426 
L 271.102247 450.756548 
L 271.102247 450.756548 
L 264.048876 465.742234 
z
" clip-path="url(#p23fc9f9a23)" style="fill: #a1c9f4; fill-opacity: 0.2; stroke: #a1c9f4; stroke-opacity: 0.2"/>
    <path d="M 273.453371 441.469645 
L 273.453371 444.283858 
L 273.453371 441.469645 
L 273.453371 441.469645 
z
" clip-path="url(#p23fc9f9a23)" style="fill: #a1c9f4; fill-opacity: 0.2; stroke: #a1c9f4; stroke-opacity: 0.2"/>
    <path d="M 279.723034 433.027005 
L 279.723034 438.655431 
L 279.723034 433.027005 
L 279.723034 433.027005 
z
" clip-path="url(#p23fc9f9a23)" style="fill: #a1c9f4; fill-opacity: 0.2; stroke: #a1c9f4; stroke-opacity: 0.2"/>
    <path d="M 283.641573 428.805685 
L 283.641573 433.027005 
L 283.641573 428.805685 
L 283.641573 428.805685 
z
" clip-path="url(#p23fc9f9a23)" style="fill: #a1c9f4; fill-opacity: 0.2; stroke: #a1c9f4; stroke-opacity: 0.2"/>
    <path d="M 295.397191 422.473706 
L 295.397191 424.584365 
L 297.748315 422.473706 
L 297.748315 420.363046 
L 297.748315 420.363046 
L 295.397191 422.473706 
z
" clip-path="url(#p23fc9f9a23)" style="fill: #a1c9f4; fill-opacity: 0.2; stroke: #a1c9f4; stroke-opacity: 0.2"/>
    <path d="M 303.23427 416.141726 
L 303.23427 418.955939 
L 304.801685 415.438173 
L 304.801685 411.216853 
L 304.801685 411.216853 
L 303.23427 416.141726 
z
" clip-path="url(#p23fc9f9a23)" style="fill: #a1c9f4; fill-opacity: 0.2; stroke: #a1c9f4; stroke-opacity: 0.2"/>
    <path d="M 307.936517 406.29198 
L 307.936517 407.699086 
L 307.936517 406.29198 
L 307.936517 406.29198 
z
" clip-path="url(#p23fc9f9a23)" style="fill: #a1c9f4; fill-opacity: 0.2; stroke: #a1c9f4; stroke-opacity: 0.2"/>
    <path d="M 318.124719 400.663553 
L 318.124719 404.884873 
L 318.908427 399.256447 
L 318.908427 394.331574 
L 318.908427 394.331574 
L 318.124719 400.663553 
z
" clip-path="url(#p23fc9f9a23)" style="fill: #a1c9f4; fill-opacity: 0.2; stroke: #a1c9f4; stroke-opacity: 0.2"/>
    <path d="M 321.259551 390.813807 
L 321.259551 392.924467 
L 322.826966 386.944264 
L 327.529213 379.556954 
L 334.582584 375.335635 
L 341.635955 373.224975 
L 343.203371 368.300102 
L 343.203371 366.189442 
L 343.203371 366.189442 
L 341.635955 369.003655 
L 334.582584 373.224975 
L 327.529213 375.335635 
L 322.826966 380.964061 
L 321.259551 390.813807 
z
" clip-path="url(#p23fc9f9a23)" style="fill: #a1c9f4; fill-opacity: 0.2; stroke: #a1c9f4; stroke-opacity: 0.2"/>
    <path d="M 348.689326 361.264569 
L 348.689326 362.671675 
L 349.473034 359.857462 
L 349.473034 358.450355 
L 349.473034 358.450355 
L 348.689326 361.264569 
z
" clip-path="url(#p23fc9f9a23)" style="fill: #a1c9f4; fill-opacity: 0.2; stroke: #a1c9f4; stroke-opacity: 0.2"/>
    <path d="M 353.391573 355.636142 
L 353.391573 357.746802 
L 358.09382 355.636142 
L 358.09382 348.600609 
L 358.09382 348.600609 
L 353.391573 355.636142 
z
" clip-path="url(#p23fc9f9a23)" style="fill: #a1c9f4; fill-opacity: 0.2; stroke: #a1c9f4; stroke-opacity: 0.2"/>
    <path d="M 365.930899 345.786396 
L 365.930899 347.193503 
L 365.930899 345.786396 
L 365.930899 345.786396 
z
" clip-path="url(#p23fc9f9a23)" style="fill: #a1c9f4; fill-opacity: 0.2; stroke: #a1c9f4; stroke-opacity: 0.2"/>
    <path d="M 369.849438 337.343756 
L 369.849438 345.082843 
L 369.849438 337.343756 
L 369.849438 337.343756 
z
" clip-path="url(#p23fc9f9a23)" style="fill: #a1c9f4; fill-opacity: 0.2; stroke: #a1c9f4; stroke-opacity: 0.2"/>
    <path d="M 373.767978 332.418883 
L 373.767978 336.640203 
L 383.172472 332.418883 
L 384.739888 329.60467 
L 387.091011 325.38335 
L 387.091011 321.865584 
L 387.091011 321.865584 
L 384.739888 325.38335 
L 383.172472 330.308223 
L 373.767978 332.418883 
z
" clip-path="url(#p23fc9f9a23)" style="fill: #a1c9f4; fill-opacity: 0.2; stroke: #a1c9f4; stroke-opacity: 0.2"/>
    <path d="M 393.360674 315.533604 
L 393.360674 319.754924 
L 393.360674 315.533604 
L 393.360674 315.533604 
z
" clip-path="url(#p23fc9f9a23)" style="fill: #a1c9f4; fill-opacity: 0.2; stroke: #a1c9f4; stroke-opacity: 0.2"/>
    <path d="M 401.197753 307.794518 
L 401.197753 310.608731 
L 401.197753 307.794518 
L 401.197753 307.794518 
z
" clip-path="url(#p23fc9f9a23)" style="fill: #a1c9f4; fill-opacity: 0.2; stroke: #a1c9f4; stroke-opacity: 0.2"/>
    <path d="M 404.332584 304.980305 
L 404.332584 306.387411 
L 404.332584 304.980305 
L 404.332584 304.980305 
z
" clip-path="url(#p23fc9f9a23)" style="fill: #a1c9f4; fill-opacity: 0.2; stroke: #a1c9f4; stroke-opacity: 0.2"/>
    <path d="M 411.385955 289.853909 
L 411.385955 298.648325 
L 411.385955 289.853909 
L 411.385955 289.853909 
z
" clip-path="url(#p23fc9f9a23)" style="fill: #a1c9f4; fill-opacity: 0.2; stroke: #a1c9f4; stroke-opacity: 0.2"/>
    <path d="M 413.737079 284.577259 
L 413.737079 287.391472 
L 413.737079 284.577259 
L 413.737079 284.577259 
z
" clip-path="url(#p23fc9f9a23)" style="fill: #a1c9f4; fill-opacity: 0.2; stroke: #a1c9f4; stroke-opacity: 0.2"/>
    <path d="M 417.655618 276.134619 
L 417.655618 283.873706 
L 418.439326 274.727513 
L 418.439326 272.616853 
L 418.439326 272.616853 
L 417.655618 276.134619 
z
" clip-path="url(#p23fc9f9a23)" style="fill: #a1c9f4; fill-opacity: 0.2; stroke: #a1c9f4; stroke-opacity: 0.2"/>
    <path d="M 420.790449 267.69198 
L 420.790449 270.506193 
L 423.925281 266.284873 
L 423.925281 263.47066 
L 423.925281 263.47066 
L 420.790449 267.69198 
z
" clip-path="url(#p23fc9f9a23)" style="fill: #a1c9f4; fill-opacity: 0.2; stroke: #a1c9f4; stroke-opacity: 0.2"/>
    <path d="M 436.464607 257.842234 
L 436.464607 262.063553 
L 438.81573 257.13868 
L 440.383146 252.213807 
L 441.950562 247.288934 
L 442.73427 243.067614 
L 442.73427 240.956954 
L 442.73427 240.956954 
L 441.950562 244.474721 
L 440.383146 247.992487 
L 438.81573 253.620914 
L 436.464607 257.842234 
z
" clip-path="url(#p23fc9f9a23)" style="fill: #a1c9f4; fill-opacity: 0.2; stroke: #a1c9f4; stroke-opacity: 0.2"/>
    <path d="M 449.78764 236.735635 
L 449.78764 238.846294 
L 449.78764 236.735635 
L 449.78764 236.735635 
z
" clip-path="url(#p23fc9f9a23)" style="fill: #a1c9f4; fill-opacity: 0.2; stroke: #a1c9f4; stroke-opacity: 0.2"/>
    <path d="M 460.759551 226.885888 
L 460.759551 229.700102 
L 463.110674 226.885888 
L 463.110674 224.775228 
L 463.110674 224.775228 
L 460.759551 226.885888 
z
" clip-path="url(#p23fc9f9a23)" style="fill: #a1c9f4; fill-opacity: 0.2; stroke: #a1c9f4; stroke-opacity: 0.2"/>
    <path d="M 468.596629 220.553909 
L 468.596629 223.368122 
L 470.947753 220.553909 
L 475.65 218.443249 
L 477.217416 216.332589 
L 477.217416 214.925482 
L 477.217416 214.925482 
L 475.65 217.036142 
L 470.947753 218.443249 
L 468.596629 220.553909 
z
" clip-path="url(#p23fc9f9a23)" style="fill: #a1c9f4; fill-opacity: 0.2; stroke: #a1c9f4; stroke-opacity: 0.2"/>
    <path d="M 485.054494 210.000609 
L 485.054494 213.518376 
L 485.054494 210.000609 
L 485.054494 210.000609 
z
" clip-path="url(#p23fc9f9a23)" style="fill: #a1c9f4; fill-opacity: 0.2; stroke: #a1c9f4; stroke-opacity: 0.2"/>
    <path d="M 496.810112 203.668629 
L 496.810112 208.593503 
L 499.161236 203.668629 
L 499.161236 200.854416 
L 499.161236 200.854416 
L 496.810112 203.668629 
z
" clip-path="url(#p23fc9f9a23)" style="fill: #a1c9f4; fill-opacity: 0.2; stroke: #a1c9f4; stroke-opacity: 0.2"/>
    <path d="M 502.296067 196.633096 
L 502.296067 199.44731 
L 502.296067 196.633096 
L 502.296067 196.633096 
z
" clip-path="url(#p23fc9f9a23)" style="fill: #a1c9f4; fill-opacity: 0.2; stroke: #a1c9f4; stroke-opacity: 0.2"/>
    <path d="M 508.56573 193.818883 
L 508.56573 195.22599 
L 508.56573 193.818883 
L 508.56573 193.818883 
z
" clip-path="url(#p23fc9f9a23)" style="fill: #a1c9f4; fill-opacity: 0.2; stroke: #a1c9f4; stroke-opacity: 0.2"/>
    <path d="M 530.509551 188.89401 
L 530.509551 190.301117 
L 530.509551 188.89401 
L 530.509551 188.89401 
z
" clip-path="url(#p23fc9f9a23)" style="fill: #a1c9f4; fill-opacity: 0.2; stroke: #a1c9f4; stroke-opacity: 0.2"/>
    <path d="M 539.914045 184.67269 
L 539.914045 186.079797 
L 539.914045 184.67269 
L 539.914045 184.67269 
z
" clip-path="url(#p23fc9f9a23)" style="fill: #a1c9f4; fill-opacity: 0.2; stroke: #a1c9f4; stroke-opacity: 0.2"/>
    <path d="M 552.453371 179.747817 
L 552.453371 181.154924 
L 552.453371 179.747817 
L 552.453371 179.747817 
z
" clip-path="url(#p23fc9f9a23)" style="fill: #a1c9f4; fill-opacity: 0.2; stroke: #a1c9f4; stroke-opacity: 0.2"/>
    <path d="M 564.208989 175.526497 
L 564.208989 177.637157 
L 564.208989 175.526497 
L 564.208989 175.526497 
z
" clip-path="url(#p23fc9f9a23)" style="fill: #a1c9f4; fill-opacity: 0.2; stroke: #a1c9f4; stroke-opacity: 0.2"/>
    <path d="M 574.397191 172.712284 
L 574.397191 174.119391 
L 574.397191 172.712284 
L 574.397191 172.712284 
z
" clip-path="url(#p23fc9f9a23)" style="fill: #a1c9f4; fill-opacity: 0.2; stroke: #a1c9f4; stroke-opacity: 0.2"/>
    <path d="M 582.23427 169.898071 
L 582.23427 171.305178 
L 582.23427 169.898071 
L 582.23427 169.898071 
z
" clip-path="url(#p23fc9f9a23)" style="fill: #a1c9f4; fill-opacity: 0.2; stroke: #a1c9f4; stroke-opacity: 0.2"/>
    <path d="M 588.503933 167.787411 
L 588.503933 169.194518 
L 590.855056 167.787411 
L 590.855056 165.676751 
L 590.855056 165.676751 
L 588.503933 167.787411 
z
" clip-path="url(#p23fc9f9a23)" style="fill: #a1c9f4; fill-opacity: 0.2; stroke: #a1c9f4; stroke-opacity: 0.2"/>
    <path d="M 601.043258 162.862538 
L 601.043258 164.269645 
L 601.043258 162.862538 
L 601.043258 162.862538 
z
" clip-path="url(#p23fc9f9a23)" style="fill: #a1c9f4; fill-opacity: 0.2; stroke: #a1c9f4; stroke-opacity: 0.2"/>
    <path d="M 614.366292 160.048325 
L 614.366292 162.158985 
L 614.366292 160.048325 
L 614.366292 160.048325 
z
" clip-path="url(#p23fc9f9a23)" style="fill: #a1c9f4; fill-opacity: 0.2; stroke: #a1c9f4; stroke-opacity: 0.2"/>
    <path d="M 626.905618 155.827005 
L 626.905618 158.641218 
L 626.905618 155.827005 
L 626.905618 155.827005 
z
" clip-path="url(#p23fc9f9a23)" style="fill: #a1c9f4; fill-opacity: 0.2; stroke: #a1c9f4; stroke-opacity: 0.2"/>
    <path d="M 637.877528 151.605685 
L 637.877528 153.012792 
L 639.444944 150.198579 
L 641.796067 144.570152 
L 641.796067 141.755939 
L 641.796067 141.755939 
L 639.444944 144.570152 
L 637.877528 151.605685 
z
" clip-path="url(#p23fc9f9a23)" style="fill: #a1c9f4; fill-opacity: 0.2; stroke: #a1c9f4; stroke-opacity: 0.2"/>
    <path d="M 651.200562 128.388426 
L 651.200562 139.645279 
L 651.200562 128.388426 
L 651.200562 128.388426 
z
" clip-path="url(#p23fc9f9a23)" style="fill: #a1c9f4; fill-opacity: 0.2; stroke: #a1c9f4; stroke-opacity: 0.2"/>
    <path d="M 663.739888 125.574213 
L 663.739888 126.98132 
L 663.739888 125.574213 
L 663.739888 125.574213 
z
" clip-path="url(#p23fc9f9a23)" style="fill: #a1c9f4; fill-opacity: 0.2; stroke: #a1c9f4; stroke-opacity: 0.2"/>
   </g>
   <g id="line2d_13">
    <path d="M 126.9 677.16 
L 128.467416 673.642234 
L 130.034831 670.82802 
L 130.818539 665.434112 
L 132.385955 663.088934 
L 137.088202 663.088934 
L 138.655618 662.385381 
L 139.439326 660.978274 
L 141.006742 659.571168 
L 142.574157 659.571168 
L 144.925281 656.756954 
L 148.060112 651.832081 
L 149.627528 646.203655 
L 151.978652 645.500102 
L 158.248315 642.685888 
L 159.81573 631.429036 
L 163.73427 624.393503 
L 166.085393 624.393503 
L 166.869101 621.931066 
L 168.436517 618.061523 
L 170.003933 612.433096 
L 171.571348 611.729543 
L 173.922472 611.729543 
L 177.057303 610.322437 
L 177.841011 608.91533 
L 179.408427 607.508223 
L 182.543258 601.879797 
L 184.894382 601.879797 
L 186.461798 601.176244 
L 188.812921 595.899594 
L 191.164045 594.844264 
L 192.731461 587.339695 
L 194.298876 581.476751 
L 196.65 579.014315 
L 198.217416 575.848325 
L 199.784831 575.848325 
L 202.135955 575.144772 
L 202.919663 571.978782 
L 203.703371 567.405685 
L 205.270787 564.591472 
L 206.054494 560.839188 
L 208.405618 552.865584 
L 209.973034 546.064569 
L 214.675281 541.374213 
L 217.026404 539.967107 
L 219.377528 535.745787 
L 220.944944 533.635127 
L 221.728652 530.820914 
L 224.079775 529.413807 
L 224.863483 523.081827 
L 227.214607 513.466599 
L 233.48427 510.417868 
L 235.835393 506.196548 
L 238.186517 504.085888 
L 239.753933 503.382335 
L 242.105056 503.382335 
L 242.888764 500.099086 
L 245.239888 495.643249 
L 246.023596 491.421929 
L 247.591011 488.607716 
L 249.942135 487.552386 
L 251.509551 485.793503 
L 253.076966 484.386396 
L 254.644382 483.682843 
L 256.995506 481.572183 
L 258.562921 476.64731 
L 261.697753 475.240203 
L 264.048876 469.963553 
L 271.102247 456.525685 
L 271.885955 444.987411 
L 273.453371 442.876751 
L 276.588202 440.062538 
L 277.37191 438.655431 
L 279.723034 435.841218 
L 281.290449 433.027005 
L 283.641573 430.681827 
L 284.425281 427.398579 
L 289.127528 427.398579 
L 290.694944 425.991472 
L 292.26236 425.991472 
L 295.397191 423.529036 
L 297.748315 421.418376 
L 300.099438 420.363046 
L 300.883146 418.955939 
L 303.23427 417.548832 
L 306.369101 408.40264 
L 307.936517 406.995533 
L 310.28764 406.29198 
L 311.855056 405.588426 
L 316.557303 405.588426 
L 318.124719 402.774213 
L 318.908427 396.79401 
L 319.692135 392.924467 
L 321.259551 391.869137 
L 322.826966 384.130051 
L 327.529213 377.446294 
L 334.582584 374.280305 
L 341.635955 371.348832 
L 343.203371 367.244772 
L 346.338202 364.782335 
L 347.12191 363.375228 
L 348.689326 361.968122 
L 349.473034 359.153909 
L 351.824157 358.450355 
L 353.391573 356.691472 
L 358.09382 351.883858 
L 359.661236 347.897056 
L 364.363483 347.897056 
L 365.930899 346.489949 
L 368.282022 345.786396 
L 369.849438 340.861523 
L 371.416854 336.640203 
L 373.767978 334.764061 
L 383.172472 331.363553 
L 384.739888 327.728528 
L 387.091011 323.27269 
L 389.442135 321.865584 
L 391.009551 321.16203 
L 392.576966 321.16203 
L 393.360674 317.644264 
L 394.92809 314.126497 
L 396.495506 313.422944 
L 398.846629 313.422944 
L 400.414045 312.015838 
L 401.981461 306.387411 
L 404.332584 305.683858 
L 405.116292 303.573198 
L 407.467416 303.573198 
L 408.251124 302.166091 
L 410.602247 302.166091 
L 412.169663 287.391472 
L 413.737079 285.984365 
L 415.304494 283.873706 
L 417.655618 279.417868 
L 418.439326 273.672183 
L 420.006742 271.913299 
L 420.790449 269.099086 
L 423.925281 264.877766 
L 428.627528 263.47066 
L 430.194944 262.767107 
L 432.546067 262.767107 
L 434.113483 262.063553 
L 436.464607 259.952893 
L 438.81573 255.379797 
L 440.383146 250.103147 
L 441.950562 245.881827 
L 442.73427 242.012284 
L 446.652809 240.253401 
L 449.003933 240.253401 
L 449.78764 237.790964 
L 453.70618 236.032081 
L 456.841011 230.403655 
L 458.408427 229.700102 
L 460.759551 228.292995 
L 463.110674 225.830558 
L 465.461798 224.775228 
L 468.596629 221.961015 
L 470.947753 219.498579 
L 475.65 217.739695 
L 477.217416 215.629036 
L 481.919663 214.925482 
L 485.054494 211.759492 
L 489.756742 210.000609 
L 490.540449 208.593503 
L 494.458989 208.593503 
L 496.810112 206.248325 
L 499.161236 202.261523 
L 499.944944 199.44731 
L 504.647191 196.633096 
L 506.214607 196.633096 
L 506.998315 195.22599 
L 508.56573 194.522437 
L 510.133146 193.11533 
L 517.186517 193.11533 
L 517.970225 191.708223 
L 519.53764 191.00467 
L 526.591011 191.00467 
L 528.158427 190.301117 
L 530.509551 189.597563 
L 533.644382 187.486904 
L 535.211798 186.079797 
L 539.914045 185.376244 
L 541.481461 183.969137 
L 542.265169 182.56203 
L 543.832584 181.858477 
L 550.885955 181.858477 
L 552.453371 180.451371 
L 557.155618 179.747817 
L 557.939326 178.340711 
L 559.506742 177.637157 
L 564.208989 176.581827 
L 565.776404 174.822944 
L 572.829775 174.822944 
L 574.397191 173.415838 
L 577.532022 171.305178 
L 586.936517 169.898071 
L 588.503933 168.490964 
L 590.855056 166.732081 
L 597.908427 165.676751 
L 601.043258 163.566091 
L 608.096629 162.862538 
L 609.664045 162.158985 
L 614.366292 161.103655 
L 616.717416 160.048325 
L 625.338202 160.048325 
L 626.905618 157.234112 
L 629.256742 155.827005 
L 630.040449 154.419898 
L 632.391573 154.419898 
L 633.175281 153.012792 
L 637.877528 152.309239 
L 639.444944 147.384365 
L 641.796067 143.163046 
L 644.147191 141.755939 
L 645.714607 141.052386 
L 648.06573 141.052386 
L 651.200562 133.078782 
L 660.605056 128.388426 
L 661.388764 126.98132 
L 663.739888 126.277766 
L 675.495506 125.574213 
L 678.630337 124.167107 
L 680.197753 122.76 
L 684.9 122.76 
L 684.9 122.76 
" clip-path="url(#p23fc9f9a23)" style="fill: none; stroke: #a1c9f4; stroke-width: 6; stroke-linecap: round"/>
   </g>
   <g id="patch_3">
    <path d="M 99 704.88 
L 99 95.04 
" style="fill: none; stroke: #cccccc; stroke-width: 1.25; stroke-linejoin: miter; stroke-linecap: square"/>
   </g>
   <g id="patch_4">
    <path d="M 712.8 704.88 
L 712.8 95.04 
" style="fill: none; stroke: #cccccc; stroke-width: 1.25; stroke-linejoin: miter; stroke-linecap: square"/>
   </g>
   <g id="patch_5">
    <path d="M 99 704.88 
L 712.8 704.88 
" style="fill: none; stroke: #cccccc; stroke-width: 1.25; stroke-linejoin: miter; stroke-linecap: square"/>
   </g>
   <g id="patch_6">
    <path d="M 99 95.04 
L 712.8 95.04 
" style="fill: none; stroke: #cccccc; stroke-width: 1.25; stroke-linejoin: miter; stroke-linecap: square"/>
   </g>
   <g id="text_15">
    <!-- ROC Curve: white_female_conservative -->
    <g style="fill: #262626" transform="translate(210.61875 89.04) scale(0.24 -0.24)">
     <defs>
      <path id="TimesNewRomanPSMT-4f" d="M 2341 4334 
Q 3166 4334 3770 3707 
Q 4375 3081 4375 2144 
Q 4375 1178 3765 540 
Q 3156 -97 2291 -97 
Q 1416 -97 820 525 
Q 225 1147 225 2134 
Q 225 3144 913 3781 
Q 1509 4334 2341 4334 
z
M 2281 4106 
Q 1713 4106 1369 3684 
Q 941 3159 941 2147 
Q 941 1109 1384 550 
Q 1725 125 2284 125 
Q 2881 125 3270 590 
Q 3659 1056 3659 2059 
Q 3659 3147 3231 3681 
Q 2888 4106 2281 4106 
z
" transform="scale(0.015625)"/>
      <path id="TimesNewRomanPSMT-43" d="M 3853 4334 
L 3950 2894 
L 3853 2894 
Q 3659 3541 3300 3825 
Q 2941 4109 2438 4109 
Q 2016 4109 1675 3895 
Q 1334 3681 1139 3212 
Q 944 2744 944 2047 
Q 944 1472 1128 1050 
Q 1313 628 1683 403 
Q 2053 178 2528 178 
Q 2941 178 3256 354 
Q 3572 531 3950 1056 
L 4047 994 
Q 3728 428 3303 165 
Q 2878 -97 2294 -97 
Q 1241 -97 663 684 
Q 231 1266 231 2053 
Q 231 2688 515 3219 
Q 800 3750 1298 4042 
Q 1797 4334 2388 4334 
Q 2847 4334 3294 4109 
Q 3425 4041 3481 4041 
Q 3566 4041 3628 4100 
Q 3709 4184 3744 4334 
L 3853 4334 
z
" transform="scale(0.015625)"/>
      <path id="TimesNewRomanPSMT-20" transform="scale(0.015625)"/>
      <path id="TimesNewRomanPSMT-75" d="M 2709 2863 
L 2709 1128 
Q 2709 631 2732 520 
Q 2756 409 2807 365 
Q 2859 322 2928 322 
Q 3025 322 3147 375 
L 3191 266 
L 2334 -88 
L 2194 -88 
L 2194 519 
Q 1825 119 1631 15 
Q 1438 -88 1222 -88 
Q 981 -88 804 51 
Q 628 191 559 409 
Q 491 628 491 1028 
L 491 2306 
Q 491 2509 447 2587 
Q 403 2666 317 2708 
Q 231 2750 6 2747 
L 6 2863 
L 1009 2863 
L 1009 947 
Q 1009 547 1148 422 
Q 1288 297 1484 297 
Q 1619 297 1789 381 
Q 1959 466 2194 703 
L 2194 2325 
Q 2194 2569 2105 2655 
Q 2016 2741 1734 2747 
L 1734 2863 
L 2709 2863 
z
" transform="scale(0.015625)"/>
      <path id="TimesNewRomanPSMT-72" d="M 1038 2947 
L 1038 2303 
Q 1397 2947 1775 2947 
Q 1947 2947 2059 2842 
Q 2172 2738 2172 2600 
Q 2172 2478 2090 2393 
Q 2009 2309 1897 2309 
Q 1788 2309 1652 2417 
Q 1516 2525 1450 2525 
Q 1394 2525 1328 2463 
Q 1188 2334 1038 2041 
L 1038 669 
Q 1038 431 1097 309 
Q 1138 225 1241 169 
Q 1344 113 1538 113 
L 1538 0 
L 72 0 
L 72 113 
Q 291 113 397 181 
Q 475 231 506 341 
Q 522 394 522 644 
L 522 1753 
Q 522 2253 501 2348 
Q 481 2444 426 2487 
Q 372 2531 291 2531 
Q 194 2531 72 2484 
L 41 2597 
L 906 2947 
L 1038 2947 
z
" transform="scale(0.015625)"/>
      <path id="TimesNewRomanPSMT-76" d="M 53 2863 
L 1400 2863 
L 1400 2747 
L 1313 2747 
Q 1191 2747 1127 2687 
Q 1063 2628 1063 2528 
Q 1063 2419 1128 2269 
L 1794 688 
L 2463 2328 
Q 2534 2503 2534 2594 
Q 2534 2638 2509 2666 
Q 2475 2713 2422 2730 
Q 2369 2747 2206 2747 
L 2206 2863 
L 3141 2863 
L 3141 2747 
Q 2978 2734 2916 2681 
Q 2806 2588 2719 2369 
L 1703 -88 
L 1575 -88 
L 553 2328 
Q 484 2497 421 2570 
Q 359 2644 263 2694 
Q 209 2722 53 2747 
L 53 2863 
z
" transform="scale(0.015625)"/>
      <path id="TimesNewRomanPSMT-65" d="M 681 1784 
Q 678 1147 991 784 
Q 1303 422 1725 422 
Q 2006 422 2214 576 
Q 2422 731 2563 1106 
L 2659 1044 
Q 2594 616 2278 264 
Q 1963 -88 1488 -88 
Q 972 -88 605 314 
Q 238 716 238 1394 
Q 238 2128 614 2539 
Q 991 2950 1559 2950 
Q 2041 2950 2350 2633 
Q 2659 2316 2659 1784 
L 681 1784 
z
M 681 1966 
L 2006 1966 
Q 1991 2241 1941 2353 
Q 1863 2528 1708 2628 
Q 1553 2728 1384 2728 
Q 1125 2728 920 2526 
Q 716 2325 681 1966 
z
" transform="scale(0.015625)"/>
      <path id="TimesNewRomanPSMT-3a" d="M 903 2950 
Q 1047 2950 1148 2848 
Q 1250 2747 1250 2603 
Q 1250 2459 1148 2357 
Q 1047 2256 903 2256 
Q 759 2256 657 2357 
Q 556 2459 556 2603 
Q 556 2747 657 2848 
Q 759 2950 903 2950 
z
M 897 609 
Q 1044 609 1145 506 
Q 1247 403 1247 259 
Q 1247 116 1144 14 
Q 1041 -88 897 -88 
Q 753 -88 651 14 
Q 550 116 550 259 
Q 550 403 651 506 
Q 753 609 897 609 
z
" transform="scale(0.015625)"/>
      <path id="TimesNewRomanPSMT-77" d="M 41 2863 
L 1241 2863 
L 1241 2747 
Q 1075 2734 1023 2687 
Q 972 2641 972 2553 
Q 972 2456 1025 2319 
L 1638 672 
L 2253 2013 
L 2091 2434 
Q 2016 2622 1894 2694 
Q 1825 2738 1638 2747 
L 1638 2863 
L 3000 2863 
L 3000 2747 
Q 2775 2738 2681 2666 
Q 2619 2616 2619 2506 
Q 2619 2444 2644 2378 
L 3294 734 
L 3897 2319 
Q 3959 2488 3959 2588 
Q 3959 2647 3898 2694 
Q 3838 2741 3659 2747 
L 3659 2863 
L 4563 2863 
L 4563 2747 
Q 4291 2706 4163 2378 
L 3206 -88 
L 3078 -88 
L 2363 1741 
L 1528 -88 
L 1413 -88 
L 494 2319 
Q 403 2547 315 2626 
Q 228 2706 41 2747 
L 41 2863 
z
" transform="scale(0.015625)"/>
      <path id="TimesNewRomanPSMT-68" d="M 1041 4444 
L 1041 2350 
Q 1388 2731 1591 2839 
Q 1794 2947 1997 2947 
Q 2241 2947 2416 2812 
Q 2591 2678 2675 2391 
Q 2734 2191 2734 1659 
L 2734 647 
Q 2734 375 2778 275 
Q 2809 200 2884 156 
Q 2959 113 3159 113 
L 3159 0 
L 1753 0 
L 1753 113 
L 1819 113 
Q 2019 113 2097 173 
Q 2175 234 2206 353 
Q 2216 403 2216 647 
L 2216 1659 
Q 2216 2128 2167 2275 
Q 2119 2422 2012 2495 
Q 1906 2569 1756 2569 
Q 1603 2569 1437 2487 
Q 1272 2406 1041 2159 
L 1041 647 
Q 1041 353 1073 281 
Q 1106 209 1195 161 
Q 1284 113 1503 113 
L 1503 0 
L 84 0 
L 84 113 
Q 275 113 384 172 
Q 447 203 484 290 
Q 522 378 522 647 
L 522 3238 
Q 522 3728 498 3840 
Q 475 3953 426 3993 
Q 378 4034 297 4034 
Q 231 4034 84 3984 
L 41 4094 
L 897 4444 
L 1041 4444 
z
" transform="scale(0.015625)"/>
      <path id="TimesNewRomanPSMT-69" d="M 928 4444 
Q 1059 4444 1151 4351 
Q 1244 4259 1244 4128 
Q 1244 3997 1151 3903 
Q 1059 3809 928 3809 
Q 797 3809 703 3903 
Q 609 3997 609 4128 
Q 609 4259 701 4351 
Q 794 4444 928 4444 
z
M 1188 2947 
L 1188 647 
Q 1188 378 1227 289 
Q 1266 200 1342 156 
Q 1419 113 1622 113 
L 1622 0 
L 231 0 
L 231 113 
Q 441 113 512 153 
Q 584 194 626 287 
Q 669 381 669 647 
L 669 1750 
Q 669 2216 641 2353 
Q 619 2453 572 2492 
Q 525 2531 444 2531 
Q 356 2531 231 2484 
L 188 2597 
L 1050 2947 
L 1188 2947 
z
" transform="scale(0.015625)"/>
      <path id="TimesNewRomanPSMT-74" d="M 1031 3803 
L 1031 2863 
L 1700 2863 
L 1700 2644 
L 1031 2644 
L 1031 788 
Q 1031 509 1111 412 
Q 1191 316 1316 316 
Q 1419 316 1516 380 
Q 1613 444 1666 569 
L 1788 569 
Q 1678 263 1478 108 
Q 1278 -47 1066 -47 
Q 922 -47 784 33 
Q 647 113 581 261 
Q 516 409 516 719 
L 516 2644 
L 63 2644 
L 63 2747 
Q 234 2816 414 2980 
Q 594 3144 734 3369 
Q 806 3488 934 3803 
L 1031 3803 
z
" transform="scale(0.015625)"/>
      <path id="TimesNewRomanPSMT-5f" d="M 3256 -1381 
L -53 -1381 
L -53 -1119 
L 3256 -1119 
L 3256 -1381 
z
" transform="scale(0.015625)"/>
      <path id="TimesNewRomanPSMT-66" d="M 1319 2638 
L 1319 756 
Q 1319 356 1406 250 
Q 1522 113 1716 113 
L 1975 113 
L 1975 0 
L 266 0 
L 266 113 
L 394 113 
Q 519 113 622 175 
Q 725 238 764 344 
Q 803 450 803 756 
L 803 2638 
L 247 2638 
L 247 2863 
L 803 2863 
L 803 3050 
Q 803 3478 940 3775 
Q 1078 4072 1361 4255 
Q 1644 4438 1997 4438 
Q 2325 4438 2600 4225 
Q 2781 4084 2781 3909 
Q 2781 3816 2700 3733 
Q 2619 3650 2525 3650 
Q 2453 3650 2373 3701 
Q 2294 3753 2178 3923 
Q 2063 4094 1966 4153 
Q 1869 4213 1750 4213 
Q 1606 4213 1506 4136 
Q 1406 4059 1362 3898 
Q 1319 3738 1319 3069 
L 1319 2863 
L 2056 2863 
L 2056 2638 
L 1319 2638 
z
" transform="scale(0.015625)"/>
      <path id="TimesNewRomanPSMT-6d" d="M 1050 2338 
Q 1363 2650 1419 2697 
Q 1559 2816 1721 2881 
Q 1884 2947 2044 2947 
Q 2313 2947 2506 2790 
Q 2700 2634 2766 2338 
Q 3088 2713 3309 2830 
Q 3531 2947 3766 2947 
Q 3994 2947 4170 2830 
Q 4347 2713 4450 2447 
Q 4519 2266 4519 1878 
L 4519 647 
Q 4519 378 4559 278 
Q 4591 209 4675 161 
Q 4759 113 4950 113 
L 4950 0 
L 3538 0 
L 3538 113 
L 3597 113 
Q 3781 113 3884 184 
Q 3956 234 3988 344 
Q 4000 397 4000 647 
L 4000 1878 
Q 4000 2228 3916 2372 
Q 3794 2572 3525 2572 
Q 3359 2572 3192 2489 
Q 3025 2406 2788 2181 
L 2781 2147 
L 2788 2013 
L 2788 647 
Q 2788 353 2820 281 
Q 2853 209 2943 161 
Q 3034 113 3253 113 
L 3253 0 
L 1806 0 
L 1806 113 
Q 2044 113 2133 169 
Q 2222 225 2256 338 
Q 2272 391 2272 647 
L 2272 1878 
Q 2272 2228 2169 2381 
Q 2031 2581 1784 2581 
Q 1616 2581 1450 2491 
Q 1191 2353 1050 2181 
L 1050 647 
Q 1050 366 1089 281 
Q 1128 197 1204 155 
Q 1281 113 1516 113 
L 1516 0 
L 100 0 
L 100 113 
Q 297 113 375 155 
Q 453 197 493 289 
Q 534 381 534 647 
L 534 1741 
Q 534 2213 506 2350 
Q 484 2453 437 2492 
Q 391 2531 309 2531 
Q 222 2531 100 2484 
L 53 2597 
L 916 2947 
L 1050 2947 
L 1050 2338 
z
" transform="scale(0.015625)"/>
      <path id="TimesNewRomanPSMT-61" d="M 1822 413 
Q 1381 72 1269 19 
Q 1100 -59 909 -59 
Q 613 -59 420 144 
Q 228 347 228 678 
Q 228 888 322 1041 
Q 450 1253 767 1440 
Q 1084 1628 1822 1897 
L 1822 2009 
Q 1822 2438 1686 2597 
Q 1550 2756 1291 2756 
Q 1094 2756 978 2650 
Q 859 2544 859 2406 
L 866 2225 
Q 866 2081 792 2003 
Q 719 1925 600 1925 
Q 484 1925 411 2006 
Q 338 2088 338 2228 
Q 338 2497 613 2722 
Q 888 2947 1384 2947 
Q 1766 2947 2009 2819 
Q 2194 2722 2281 2516 
Q 2338 2381 2338 1966 
L 2338 994 
Q 2338 584 2353 492 
Q 2369 400 2405 369 
Q 2441 338 2488 338 
Q 2538 338 2575 359 
Q 2641 400 2828 588 
L 2828 413 
Q 2478 -56 2159 -56 
Q 2006 -56 1915 50 
Q 1825 156 1822 413 
z
M 1822 616 
L 1822 1706 
Q 1350 1519 1213 1441 
Q 966 1303 859 1153 
Q 753 1003 753 825 
Q 753 600 887 451 
Q 1022 303 1197 303 
Q 1434 303 1822 616 
z
" transform="scale(0.015625)"/>
      <path id="TimesNewRomanPSMT-6c" d="M 1184 4444 
L 1184 647 
Q 1184 378 1223 290 
Q 1263 203 1344 158 
Q 1425 113 1647 113 
L 1647 0 
L 244 0 
L 244 113 
Q 441 113 512 153 
Q 584 194 625 287 
Q 666 381 666 647 
L 666 3247 
Q 666 3731 644 3842 
Q 622 3953 573 3993 
Q 525 4034 450 4034 
Q 369 4034 244 3984 
L 191 4094 
L 1044 4444 
L 1184 4444 
z
" transform="scale(0.015625)"/>
      <path id="TimesNewRomanPSMT-63" d="M 2631 1088 
Q 2516 522 2178 217 
Q 1841 -88 1431 -88 
Q 944 -88 581 321 
Q 219 731 219 1428 
Q 219 2103 620 2525 
Q 1022 2947 1584 2947 
Q 2006 2947 2278 2723 
Q 2550 2500 2550 2259 
Q 2550 2141 2473 2067 
Q 2397 1994 2259 1994 
Q 2075 1994 1981 2113 
Q 1928 2178 1911 2362 
Q 1894 2547 1784 2644 
Q 1675 2738 1481 2738 
Q 1169 2738 978 2506 
Q 725 2200 725 1697 
Q 725 1184 976 792 
Q 1228 400 1656 400 
Q 1963 400 2206 609 
Q 2378 753 2541 1131 
L 2631 1088 
z
" transform="scale(0.015625)"/>
      <path id="TimesNewRomanPSMT-6f" d="M 1600 2947 
Q 2250 2947 2644 2453 
Q 2978 2031 2978 1484 
Q 2978 1100 2793 706 
Q 2609 313 2286 112 
Q 1963 -88 1566 -88 
Q 919 -88 538 428 
Q 216 863 216 1403 
Q 216 1797 411 2186 
Q 606 2575 925 2761 
Q 1244 2947 1600 2947 
z
M 1503 2744 
Q 1338 2744 1170 2645 
Q 1003 2547 900 2300 
Q 797 2053 797 1666 
Q 797 1041 1045 587 
Q 1294 134 1700 134 
Q 2003 134 2200 384 
Q 2397 634 2397 1244 
Q 2397 2006 2069 2444 
Q 1847 2744 1503 2744 
z
" transform="scale(0.015625)"/>
      <path id="TimesNewRomanPSMT-6e" d="M 1034 2341 
Q 1538 2947 1994 2947 
Q 2228 2947 2397 2830 
Q 2566 2713 2666 2444 
Q 2734 2256 2734 1869 
L 2734 647 
Q 2734 375 2778 278 
Q 2813 200 2889 156 
Q 2966 113 3172 113 
L 3172 0 
L 1756 0 
L 1756 113 
L 1816 113 
Q 2016 113 2095 173 
Q 2175 234 2206 353 
Q 2219 400 2219 647 
L 2219 1819 
Q 2219 2209 2117 2386 
Q 2016 2563 1775 2563 
Q 1403 2563 1034 2156 
L 1034 647 
Q 1034 356 1069 288 
Q 1113 197 1189 155 
Q 1266 113 1500 113 
L 1500 0 
L 84 0 
L 84 113 
L 147 113 
Q 366 113 442 223 
Q 519 334 519 647 
L 519 1709 
Q 519 2225 495 2337 
Q 472 2450 423 2490 
Q 375 2531 294 2531 
Q 206 2531 84 2484 
L 38 2597 
L 900 2947 
L 1034 2947 
L 1034 2341 
z
" transform="scale(0.015625)"/>
      <path id="TimesNewRomanPSMT-73" d="M 2050 2947 
L 2050 1972 
L 1947 1972 
Q 1828 2431 1642 2597 
Q 1456 2763 1169 2763 
Q 950 2763 815 2647 
Q 681 2531 681 2391 
Q 681 2216 781 2091 
Q 878 1963 1175 1819 
L 1631 1597 
Q 2266 1288 2266 781 
Q 2266 391 1970 151 
Q 1675 -88 1309 -88 
Q 1047 -88 709 6 
Q 606 38 541 38 
Q 469 38 428 -44 
L 325 -44 
L 325 978 
L 428 978 
Q 516 541 762 319 
Q 1009 97 1316 97 
Q 1531 97 1667 223 
Q 1803 350 1803 528 
Q 1803 744 1651 891 
Q 1500 1038 1047 1263 
Q 594 1488 453 1669 
Q 313 1847 313 2119 
Q 313 2472 555 2709 
Q 797 2947 1181 2947 
Q 1350 2947 1591 2875 
Q 1750 2828 1803 2828 
Q 1853 2828 1881 2850 
Q 1909 2872 1947 2947 
L 2050 2947 
z
" transform="scale(0.015625)"/>
     </defs>
     <use xlink:href="#TimesNewRomanPSMT-52"/>
     <use xlink:href="#TimesNewRomanPSMT-4f" x="66.699219"/>
     <use xlink:href="#TimesNewRomanPSMT-43" x="138.916016"/>
     <use xlink:href="#TimesNewRomanPSMT-20" x="205.615234"/>
     <use xlink:href="#TimesNewRomanPSMT-43" x="230.615234"/>
     <use xlink:href="#TimesNewRomanPSMT-75" x="297.314453"/>
     <use xlink:href="#TimesNewRomanPSMT-72" x="347.314453"/>
     <use xlink:href="#TimesNewRomanPSMT-76" x="380.615234"/>
     <use xlink:href="#TimesNewRomanPSMT-65" x="430.615234"/>
     <use xlink:href="#TimesNewRomanPSMT-3a" x="475"/>
     <use xlink:href="#TimesNewRomanPSMT-20" x="502.783203"/>
     <use xlink:href="#TimesNewRomanPSMT-77" x="527.783203"/>
     <use xlink:href="#TimesNewRomanPSMT-68" x="600"/>
     <use xlink:href="#TimesNewRomanPSMT-69" x="650"/>
     <use xlink:href="#TimesNewRomanPSMT-74" x="677.783203"/>
     <use xlink:href="#TimesNewRomanPSMT-65" x="705.566406"/>
     <use xlink:href="#TimesNewRomanPSMT-5f" x="749.951172"/>
     <use xlink:href="#TimesNewRomanPSMT-66" x="799.951172"/>
     <use xlink:href="#TimesNewRomanPSMT-65" x="833.251953"/>
     <use xlink:href="#TimesNewRomanPSMT-6d" x="877.636719"/>
     <use xlink:href="#TimesNewRomanPSMT-61" x="955.419922"/>
     <use xlink:href="#TimesNewRomanPSMT-6c" x="999.804688"/>
     <use xlink:href="#TimesNewRomanPSMT-65" x="1027.587891"/>
     <use xlink:href="#TimesNewRomanPSMT-5f" x="1071.972656"/>
     <use xlink:href="#TimesNewRomanPSMT-63" x="1121.972656"/>
     <use xlink:href="#TimesNewRomanPSMT-6f" x="1166.357422"/>
     <use xlink:href="#TimesNewRomanPSMT-6e" x="1216.357422"/>
     <use xlink:href="#TimesNewRomanPSMT-73" x="1266.357422"/>
     <use xlink:href="#TimesNewRomanPSMT-65" x="1305.273438"/>
     <use xlink:href="#TimesNewRomanPSMT-72" x="1349.658203"/>
     <use xlink:href="#TimesNewRomanPSMT-76" x="1382.958984"/>
     <use xlink:href="#TimesNewRomanPSMT-61" x="1432.958984"/>
     <use xlink:href="#TimesNewRomanPSMT-74" x="1477.34375"/>
     <use xlink:href="#TimesNewRomanPSMT-69" x="1505.126953"/>
     <use xlink:href="#TimesNewRomanPSMT-76" x="1532.910156"/>
     <use xlink:href="#TimesNewRomanPSMT-65" x="1582.910156"/>
    </g>
   </g>
  </g>
 </g>
 <defs>
  <clipPath id="p23fc9f9a23">
   <rect x="99" y="95.04" width="613.8" height="609.84"/>
  </clipPath>
 </defs>
</svg>
