<?xml version="1.0" encoding="utf-8" standalone="no"?>
<!DOCTYPE svg PUBLIC "-//W3C//DTD SVG 1.1//EN"
  "http://www.w3.org/Graphics/SVG/1.1/DTD/svg11.dtd">
<svg xmlns:xlink="http://www.w3.org/1999/xlink" width="792pt" height="792pt" viewBox="0 0 792 792" xmlns="http://www.w3.org/2000/svg" version="1.1">
 <metadata>
  <rdf:RDF xmlns:dc="http://purl.org/dc/elements/1.1/" xmlns:cc="http://creativecommons.org/ns#" xmlns:rdf="http://www.w3.org/1999/02/22-rdf-syntax-ns#">
   <cc:Work>
    <dc:type rdf:resource="http://purl.org/dc/dcmitype/StillImage"/>
    <dc:date>2024-04-30T17:08:27.248445</dc:date>
    <dc:format>image/svg+xml</dc:format>
    <dc:creator>
     <cc:Agent>
      <dc:title>Matplotlib v3.8.4, https://matplotlib.org/</dc:title>
     </cc:Agent>
    </dc:creator>
   </cc:Work>
  </rdf:RDF>
 </metadata>
 <defs>
  <style type="text/css">*{stroke-linejoin: round; stroke-linecap: butt}</style>
 </defs>
 <g id="figure_1">
  <g id="patch_1">
   <path d="M 0 792 
L 792 792 
L 792 0 
L 0 0 
z
" style="fill: #ffffff"/>
  </g>
  <g id="axes_1">
   <g id="patch_2">
    <path d="M 99 704.88 
L 712.8 704.88 
L 712.8 95.04 
L 99 95.04 
z
" style="fill: #ffffff"/>
   </g>
   <g id="matplotlib.axis_1">
    <g id="xtick_1">
     <g id="line2d_1">
      <path d="M 126.9 704.88 
L 126.9 95.04 
" clip-path="url(#p3c137466b7)" style="fill: none; stroke: #cccccc; stroke-linecap: round"/>
     </g>
     <g id="text_1">
      <!-- 0.0 -->
      <g style="fill: #262626" transform="translate(113.15 729.65625) scale(0.22 -0.22)">
       <defs>
        <path id="TimesNewRomanPSMT-30" d="M 231 2094 
Q 231 2819 450 3342 
Q 669 3866 1031 4122 
Q 1313 4325 1613 4325 
Q 2100 4325 2488 3828 
Q 2972 3213 2972 2159 
Q 2972 1422 2759 906 
Q 2547 391 2217 158 
Q 1888 -75 1581 -75 
Q 975 -75 572 641 
Q 231 1244 231 2094 
z
M 844 2016 
Q 844 1141 1059 588 
Q 1238 122 1591 122 
Q 1759 122 1940 273 
Q 2122 425 2216 781 
Q 2359 1319 2359 2297 
Q 2359 3022 2209 3506 
Q 2097 3866 1919 4016 
Q 1791 4119 1609 4119 
Q 1397 4119 1231 3928 
Q 1006 3669 925 3112 
Q 844 2556 844 2016 
z
" transform="scale(0.015625)"/>
        <path id="TimesNewRomanPSMT-2e" d="M 800 606 
Q 947 606 1047 504 
Q 1147 403 1147 259 
Q 1147 116 1045 14 
Q 944 -88 800 -88 
Q 656 -88 554 14 
Q 453 116 453 259 
Q 453 406 554 506 
Q 656 606 800 606 
z
" transform="scale(0.015625)"/>
       </defs>
       <use xlink:href="#TimesNewRomanPSMT-30"/>
       <use xlink:href="#TimesNewRomanPSMT-2e" x="50"/>
       <use xlink:href="#TimesNewRomanPSMT-30" x="75"/>
      </g>
     </g>
    </g>
    <g id="xtick_2">
     <g id="line2d_2">
      <path d="M 238.5 704.88 
L 238.5 95.04 
" clip-path="url(#p3c137466b7)" style="fill: none; stroke: #cccccc; stroke-linecap: round"/>
     </g>
     <g id="text_2">
      <!-- 0.2 -->
      <g style="fill: #262626" transform="translate(224.75 729.65625) scale(0.22 -0.22)">
       <defs>
        <path id="TimesNewRomanPSMT-32" d="M 2934 816 
L 2638 0 
L 138 0 
L 138 116 
Q 1241 1122 1691 1759 
Q 2141 2397 2141 2925 
Q 2141 3328 1894 3587 
Q 1647 3847 1303 3847 
Q 991 3847 742 3664 
Q 494 3481 375 3128 
L 259 3128 
Q 338 3706 661 4015 
Q 984 4325 1469 4325 
Q 1984 4325 2329 3994 
Q 2675 3663 2675 3213 
Q 2675 2891 2525 2569 
Q 2294 2063 1775 1497 
Q 997 647 803 472 
L 1909 472 
Q 2247 472 2383 497 
Q 2519 522 2628 598 
Q 2738 675 2819 816 
L 2934 816 
z
" transform="scale(0.015625)"/>
       </defs>
       <use xlink:href="#TimesNewRomanPSMT-30"/>
       <use xlink:href="#TimesNewRomanPSMT-2e" x="50"/>
       <use xlink:href="#TimesNewRomanPSMT-32" x="75"/>
      </g>
     </g>
    </g>
    <g id="xtick_3">
     <g id="line2d_3">
      <path d="M 350.1 704.88 
L 350.1 95.04 
" clip-path="url(#p3c137466b7)" style="fill: none; stroke: #cccccc; stroke-linecap: round"/>
     </g>
     <g id="text_3">
      <!-- 0.4 -->
      <g style="fill: #262626" transform="translate(336.35 729.65625) scale(0.22 -0.22)">
       <defs>
        <path id="TimesNewRomanPSMT-34" d="M 2978 1563 
L 2978 1119 
L 2409 1119 
L 2409 0 
L 1894 0 
L 1894 1119 
L 100 1119 
L 100 1519 
L 2066 4325 
L 2409 4325 
L 2409 1563 
L 2978 1563 
z
M 1894 1563 
L 1894 3666 
L 406 1563 
L 1894 1563 
z
" transform="scale(0.015625)"/>
       </defs>
       <use xlink:href="#TimesNewRomanPSMT-30"/>
       <use xlink:href="#TimesNewRomanPSMT-2e" x="50"/>
       <use xlink:href="#TimesNewRomanPSMT-34" x="75"/>
      </g>
     </g>
    </g>
    <g id="xtick_4">
     <g id="line2d_4">
      <path d="M 461.7 704.88 
L 461.7 95.04 
" clip-path="url(#p3c137466b7)" style="fill: none; stroke: #cccccc; stroke-linecap: round"/>
     </g>
     <g id="text_4">
      <!-- 0.6 -->
      <g style="fill: #262626" transform="translate(447.95 729.65625) scale(0.22 -0.22)">
       <defs>
        <path id="TimesNewRomanPSMT-36" d="M 2869 4325 
L 2869 4209 
Q 2456 4169 2195 4045 
Q 1934 3922 1679 3669 
Q 1425 3416 1258 3105 
Q 1091 2794 978 2366 
Q 1428 2675 1881 2675 
Q 2316 2675 2634 2325 
Q 2953 1975 2953 1425 
Q 2953 894 2631 456 
Q 2244 -75 1606 -75 
Q 1172 -75 869 213 
Q 275 772 275 1663 
Q 275 2231 503 2743 
Q 731 3256 1154 3653 
Q 1578 4050 1965 4187 
Q 2353 4325 2688 4325 
L 2869 4325 
z
M 925 2138 
Q 869 1716 869 1456 
Q 869 1156 980 804 
Q 1091 453 1309 247 
Q 1469 100 1697 100 
Q 1969 100 2183 356 
Q 2397 613 2397 1088 
Q 2397 1622 2184 2012 
Q 1972 2403 1581 2403 
Q 1463 2403 1327 2353 
Q 1191 2303 925 2138 
z
" transform="scale(0.015625)"/>
       </defs>
       <use xlink:href="#TimesNewRomanPSMT-30"/>
       <use xlink:href="#TimesNewRomanPSMT-2e" x="50"/>
       <use xlink:href="#TimesNewRomanPSMT-36" x="75"/>
      </g>
     </g>
    </g>
    <g id="xtick_5">
     <g id="line2d_5">
      <path d="M 573.3 704.88 
L 573.3 95.04 
" clip-path="url(#p3c137466b7)" style="fill: none; stroke: #cccccc; stroke-linecap: round"/>
     </g>
     <g id="text_5">
      <!-- 0.8 -->
      <g style="fill: #262626" transform="translate(559.55 729.65625) scale(0.22 -0.22)">
       <defs>
        <path id="TimesNewRomanPSMT-38" d="M 1228 2134 
Q 725 2547 579 2797 
Q 434 3047 434 3316 
Q 434 3728 753 4026 
Q 1072 4325 1600 4325 
Q 2113 4325 2425 4047 
Q 2738 3769 2738 3413 
Q 2738 3175 2569 2928 
Q 2400 2681 1866 2347 
Q 2416 1922 2594 1678 
Q 2831 1359 2831 1006 
Q 2831 559 2490 242 
Q 2150 -75 1597 -75 
Q 994 -75 656 303 
Q 388 606 388 966 
Q 388 1247 577 1523 
Q 766 1800 1228 2134 
z
M 1719 2469 
Q 2094 2806 2194 3001 
Q 2294 3197 2294 3444 
Q 2294 3772 2109 3958 
Q 1925 4144 1606 4144 
Q 1288 4144 1088 3959 
Q 888 3775 888 3528 
Q 888 3366 970 3203 
Q 1053 3041 1206 2894 
L 1719 2469 
z
M 1375 2016 
Q 1116 1797 991 1539 
Q 866 1281 866 981 
Q 866 578 1086 336 
Q 1306 94 1647 94 
Q 1984 94 2187 284 
Q 2391 475 2391 747 
Q 2391 972 2272 1150 
Q 2050 1481 1375 2016 
z
" transform="scale(0.015625)"/>
       </defs>
       <use xlink:href="#TimesNewRomanPSMT-30"/>
       <use xlink:href="#TimesNewRomanPSMT-2e" x="50"/>
       <use xlink:href="#TimesNewRomanPSMT-38" x="75"/>
      </g>
     </g>
    </g>
    <g id="xtick_6">
     <g id="line2d_6">
      <path d="M 684.9 704.88 
L 684.9 95.04 
" clip-path="url(#p3c137466b7)" style="fill: none; stroke: #cccccc; stroke-linecap: round"/>
     </g>
     <g id="text_6">
      <!-- 1.0 -->
      <g style="fill: #262626" transform="translate(671.15 729.65625) scale(0.22 -0.22)">
       <defs>
        <path id="TimesNewRomanPSMT-31" d="M 750 3822 
L 1781 4325 
L 1884 4325 
L 1884 747 
Q 1884 391 1914 303 
Q 1944 216 2037 169 
Q 2131 122 2419 116 
L 2419 0 
L 825 0 
L 825 116 
Q 1125 122 1212 167 
Q 1300 213 1334 289 
Q 1369 366 1369 747 
L 1369 3034 
Q 1369 3497 1338 3628 
Q 1316 3728 1258 3775 
Q 1200 3822 1119 3822 
Q 1003 3822 797 3725 
L 750 3822 
z
" transform="scale(0.015625)"/>
       </defs>
       <use xlink:href="#TimesNewRomanPSMT-31"/>
       <use xlink:href="#TimesNewRomanPSMT-2e" x="50"/>
       <use xlink:href="#TimesNewRomanPSMT-30" x="75"/>
      </g>
     </g>
    </g>
    <g id="text_7">
     <!-- FPR -->
     <g style="fill: #262626" transform="translate(384.549375 755.027187) scale(0.24 -0.24)">
      <defs>
       <path id="TimesNewRomanPSMT-46" d="M 1309 4006 
L 1309 2341 
L 2081 2341 
Q 2347 2341 2470 2458 
Q 2594 2575 2634 2922 
L 2750 2922 
L 2750 1488 
L 2634 1488 
Q 2631 1734 2570 1850 
Q 2509 1966 2401 2023 
Q 2294 2081 2081 2081 
L 1309 2081 
L 1309 750 
Q 1309 428 1350 325 
Q 1381 247 1481 191 
Q 1619 116 1769 116 
L 1922 116 
L 1922 0 
L 103 0 
L 103 116 
L 253 116 
Q 516 116 634 269 
Q 709 369 709 750 
L 709 3488 
Q 709 3809 669 3913 
Q 638 3991 541 4047 
Q 406 4122 253 4122 
L 103 4122 
L 103 4238 
L 3256 4238 
L 3297 3306 
L 3188 3306 
Q 3106 3603 2998 3742 
Q 2891 3881 2733 3943 
Q 2575 4006 2244 4006 
L 1309 4006 
z
" transform="scale(0.015625)"/>
       <path id="TimesNewRomanPSMT-50" d="M 1313 1984 
L 1313 750 
Q 1313 350 1400 253 
Q 1519 116 1759 116 
L 1922 116 
L 1922 0 
L 106 0 
L 106 116 
L 266 116 
Q 534 116 650 291 
Q 713 388 713 750 
L 713 3488 
Q 713 3888 628 3984 
Q 506 4122 266 4122 
L 106 4122 
L 106 4238 
L 1659 4238 
Q 2228 4238 2556 4120 
Q 2884 4003 3109 3725 
Q 3334 3447 3334 3066 
Q 3334 2547 2992 2222 
Q 2650 1897 2025 1897 
Q 1872 1897 1694 1919 
Q 1516 1941 1313 1984 
z
M 1313 2163 
Q 1478 2131 1606 2115 
Q 1734 2100 1825 2100 
Q 2150 2100 2386 2351 
Q 2622 2603 2622 3003 
Q 2622 3278 2509 3514 
Q 2397 3750 2190 3867 
Q 1984 3984 1722 3984 
Q 1563 3984 1313 3925 
L 1313 2163 
z
" transform="scale(0.015625)"/>
       <path id="TimesNewRomanPSMT-52" d="M 4325 0 
L 3194 0 
L 1759 1981 
Q 1600 1975 1500 1975 
Q 1459 1975 1412 1976 
Q 1366 1978 1316 1981 
L 1316 750 
Q 1316 350 1403 253 
Q 1522 116 1759 116 
L 1925 116 
L 1925 0 
L 109 0 
L 109 116 
L 269 116 
Q 538 116 653 291 
Q 719 388 719 750 
L 719 3488 
Q 719 3888 631 3984 
Q 509 4122 269 4122 
L 109 4122 
L 109 4238 
L 1653 4238 
Q 2328 4238 2648 4139 
Q 2969 4041 3192 3777 
Q 3416 3513 3416 3147 
Q 3416 2756 3161 2468 
Q 2906 2181 2372 2063 
L 3247 847 
Q 3547 428 3762 290 
Q 3978 153 4325 116 
L 4325 0 
z
M 1316 2178 
Q 1375 2178 1419 2176 
Q 1463 2175 1491 2175 
Q 2097 2175 2405 2437 
Q 2713 2700 2713 3106 
Q 2713 3503 2464 3751 
Q 2216 4000 1806 4000 
Q 1625 4000 1316 3941 
L 1316 2178 
z
" transform="scale(0.015625)"/>
      </defs>
      <use xlink:href="#TimesNewRomanPSMT-46"/>
      <use xlink:href="#TimesNewRomanPSMT-50" x="55.615234"/>
      <use xlink:href="#TimesNewRomanPSMT-52" x="111.230469"/>
     </g>
    </g>
   </g>
   <g id="matplotlib.axis_2">
    <g id="ytick_1">
     <g id="line2d_7">
      <path d="M 99 677.16 
L 712.8 677.16 
" clip-path="url(#p3c137466b7)" style="fill: none; stroke: #cccccc; stroke-linecap: round"/>
     </g>
     <g id="text_8">
      <!-- 0.0 -->
      <g style="fill: #262626" transform="translate(62 684.798125) scale(0.22 -0.22)">
       <use xlink:href="#TimesNewRomanPSMT-30"/>
       <use xlink:href="#TimesNewRomanPSMT-2e" x="50"/>
       <use xlink:href="#TimesNewRomanPSMT-30" x="75"/>
      </g>
     </g>
    </g>
    <g id="ytick_2">
     <g id="line2d_8">
      <path d="M 99 566.28 
L 712.8 566.28 
" clip-path="url(#p3c137466b7)" style="fill: none; stroke: #cccccc; stroke-linecap: round"/>
     </g>
     <g id="text_9">
      <!-- 0.2 -->
      <g style="fill: #262626" transform="translate(62 573.918125) scale(0.22 -0.22)">
       <use xlink:href="#TimesNewRomanPSMT-30"/>
       <use xlink:href="#TimesNewRomanPSMT-2e" x="50"/>
       <use xlink:href="#TimesNewRomanPSMT-32" x="75"/>
      </g>
     </g>
    </g>
    <g id="ytick_3">
     <g id="line2d_9">
      <path d="M 99 455.4 
L 712.8 455.4 
" clip-path="url(#p3c137466b7)" style="fill: none; stroke: #cccccc; stroke-linecap: round"/>
     </g>
     <g id="text_10">
      <!-- 0.4 -->
      <g style="fill: #262626" transform="translate(62 463.038125) scale(0.22 -0.22)">
       <use xlink:href="#TimesNewRomanPSMT-30"/>
       <use xlink:href="#TimesNewRomanPSMT-2e" x="50"/>
       <use xlink:href="#TimesNewRomanPSMT-34" x="75"/>
      </g>
     </g>
    </g>
    <g id="ytick_4">
     <g id="line2d_10">
      <path d="M 99 344.52 
L 712.8 344.52 
" clip-path="url(#p3c137466b7)" style="fill: none; stroke: #cccccc; stroke-linecap: round"/>
     </g>
     <g id="text_11">
      <!-- 0.6 -->
      <g style="fill: #262626" transform="translate(62 352.158125) scale(0.22 -0.22)">
       <use xlink:href="#TimesNewRomanPSMT-30"/>
       <use xlink:href="#TimesNewRomanPSMT-2e" x="50"/>
       <use xlink:href="#TimesNewRomanPSMT-36" x="75"/>
      </g>
     </g>
    </g>
    <g id="ytick_5">
     <g id="line2d_11">
      <path d="M 99 233.64 
L 712.8 233.64 
" clip-path="url(#p3c137466b7)" style="fill: none; stroke: #cccccc; stroke-linecap: round"/>
     </g>
     <g id="text_12">
      <!-- 0.8 -->
      <g style="fill: #262626" transform="translate(62 241.278125) scale(0.22 -0.22)">
       <use xlink:href="#TimesNewRomanPSMT-30"/>
       <use xlink:href="#TimesNewRomanPSMT-2e" x="50"/>
       <use xlink:href="#TimesNewRomanPSMT-38" x="75"/>
      </g>
     </g>
    </g>
    <g id="ytick_6">
     <g id="line2d_12">
      <path d="M 99 122.76 
L 712.8 122.76 
" clip-path="url(#p3c137466b7)" style="fill: none; stroke: #cccccc; stroke-linecap: round"/>
     </g>
     <g id="text_13">
      <!-- 1.0 -->
      <g style="fill: #262626" transform="translate(62 130.398125) scale(0.22 -0.22)">
       <use xlink:href="#TimesNewRomanPSMT-31"/>
       <use xlink:href="#TimesNewRomanPSMT-2e" x="50"/>
       <use xlink:href="#TimesNewRomanPSMT-30" x="75"/>
      </g>
     </g>
    </g>
    <g id="text_14">
     <!-- TPR -->
     <g style="fill: #262626" transform="translate(52.86625 421.966875) rotate(-90) scale(0.24 -0.24)">
      <defs>
       <path id="TimesNewRomanPSMT-54" d="M 3703 4238 
L 3750 3244 
L 3631 3244 
Q 3597 3506 3538 3619 
Q 3441 3800 3280 3886 
Q 3119 3972 2856 3972 
L 2259 3972 
L 2259 734 
Q 2259 344 2344 247 
Q 2463 116 2709 116 
L 2856 116 
L 2856 0 
L 1059 0 
L 1059 116 
L 1209 116 
Q 1478 116 1591 278 
Q 1659 378 1659 734 
L 1659 3972 
L 1150 3972 
Q 853 3972 728 3928 
Q 566 3869 450 3700 
Q 334 3531 313 3244 
L 194 3244 
L 244 4238 
L 3703 4238 
z
" transform="scale(0.015625)"/>
      </defs>
      <use xlink:href="#TimesNewRomanPSMT-54"/>
      <use xlink:href="#TimesNewRomanPSMT-50" x="61.083984"/>
      <use xlink:href="#TimesNewRomanPSMT-52" x="116.699219"/>
     </g>
    </g>
   </g>
   <g id="PolyCollection_1">
    <path d="M 126.9 675.752893 
L 126.9 677.16 
L 128.467416 675.752893 
L 130.034831 661.857716 
L 130.034831 651.216472 
L 130.034831 651.216472 
L 128.467416 672.93868 
L 126.9 675.752893 
z
" clip-path="url(#p3c137466b7)" style="fill: #a1c9f4; fill-opacity: 0.2; stroke: #a1c9f4; stroke-opacity: 0.2"/>
    <path d="M 133.953371 630.021929 
L 133.953371 638.464569 
L 133.953371 630.021929 
L 133.953371 630.021929 
z
" clip-path="url(#p3c137466b7)" style="fill: #a1c9f4; fill-opacity: 0.2; stroke: #a1c9f4; stroke-opacity: 0.2"/>
    <path d="M 139.439326 620.172183 
L 139.439326 624.393503 
L 140.223034 618.765076 
L 140.223034 616.654416 
L 140.223034 616.654416 
L 139.439326 620.172183 
z
" clip-path="url(#p3c137466b7)" style="fill: #a1c9f4; fill-opacity: 0.2; stroke: #a1c9f4; stroke-opacity: 0.2"/>
    <path d="M 142.574157 606.80467 
L 142.574157 611.02599 
L 142.574157 606.80467 
L 142.574157 606.80467 
z
" clip-path="url(#p3c137466b7)" style="fill: #a1c9f4; fill-opacity: 0.2; stroke: #a1c9f4; stroke-opacity: 0.2"/>
    <path d="M 147.276404 593.437157 
L 147.276404 604.69401 
L 147.276404 593.437157 
L 147.276404 593.437157 
z
" clip-path="url(#p3c137466b7)" style="fill: #a1c9f4; fill-opacity: 0.2; stroke: #a1c9f4; stroke-opacity: 0.2"/>
    <path d="M 151.978652 584.994518 
L 151.978652 591.326497 
L 153.546067 582.180305 
L 153.546067 580.773198 
L 153.546067 580.773198 
L 151.978652 584.994518 
z
" clip-path="url(#p3c137466b7)" style="fill: #a1c9f4; fill-opacity: 0.2; stroke: #a1c9f4; stroke-opacity: 0.2"/>
    <path d="M 156.680899 576.551878 
L 156.680899 579.366091 
L 157.464607 573.561777 
L 157.464607 565.998579 
L 157.464607 565.998579 
L 156.680899 576.551878 
z
" clip-path="url(#p3c137466b7)" style="fill: #a1c9f4; fill-opacity: 0.2; stroke: #a1c9f4; stroke-opacity: 0.2"/>
    <path d="M 163.73427 551.223959 
L 163.73427 557.69665 
L 166.085393 549.816853 
L 167.652809 543.484873 
L 167.652809 539.263553 
L 167.652809 539.263553 
L 166.085393 544.188426 
L 163.73427 551.223959 
z
" clip-path="url(#p3c137466b7)" style="fill: #a1c9f4; fill-opacity: 0.2; stroke: #a1c9f4; stroke-opacity: 0.2"/>
    <path d="M 176.273596 532.22802 
L 176.273596 536.625228 
L 178.624719 528.850964 
L 178.624719 519.553508 
L 178.624719 519.553508 
L 176.273596 532.22802 
z
" clip-path="url(#p3c137466b7)" style="fill: #a1c9f4; fill-opacity: 0.2; stroke: #a1c9f4; stroke-opacity: 0.2"/>
    <path d="M 190.380337 503.382335 
L 190.380337 511.262132 
L 190.380337 503.382335 
L 190.380337 503.382335 
z
" clip-path="url(#p3c137466b7)" style="fill: #a1c9f4; fill-opacity: 0.2; stroke: #a1c9f4; stroke-opacity: 0.2"/>
    <path d="M 192.731461 482.041218 
L 192.731461 493.532589 
L 192.731461 482.041218 
L 192.731461 482.041218 
z
" clip-path="url(#p3c137466b7)" style="fill: #a1c9f4; fill-opacity: 0.2; stroke: #a1c9f4; stroke-opacity: 0.2"/>
    <path d="M 195.866292 469.611777 
L 195.866292 475.240203 
L 195.866292 469.611777 
L 195.866292 469.611777 
z
" clip-path="url(#p3c137466b7)" style="fill: #a1c9f4; fill-opacity: 0.2; stroke: #a1c9f4; stroke-opacity: 0.2"/>
    <path d="M 198.217416 464.686904 
L 198.217416 467.501117 
L 200.568539 464.686904 
L 200.568539 463.279797 
L 200.568539 463.279797 
L 198.217416 464.686904 
z
" clip-path="url(#p3c137466b7)" style="fill: #a1c9f4; fill-opacity: 0.2; stroke: #a1c9f4; stroke-opacity: 0.2"/>
    <path d="M 203.703371 459.76203 
L 203.703371 461.169137 
L 204.487079 458.354924 
L 206.054494 450.615838 
L 206.054494 449.208731 
L 206.054494 449.208731 
L 204.487079 451.319391 
L 203.703371 459.76203 
z
" clip-path="url(#p3c137466b7)" style="fill: #a1c9f4; fill-opacity: 0.2; stroke: #a1c9f4; stroke-opacity: 0.2"/>
    <path d="M 208.405618 440.062538 
L 208.405618 447.098071 
L 208.405618 440.062538 
L 208.405618 440.062538 
z
" clip-path="url(#p3c137466b7)" style="fill: #a1c9f4; fill-opacity: 0.2; stroke: #a1c9f4; stroke-opacity: 0.2"/>
    <path d="M 213.107865 425.991472 
L 213.107865 438.655431 
L 214.675281 425.287919 
L 214.675281 420.363046 
L 214.675281 420.363046 
L 213.107865 425.991472 
z
" clip-path="url(#p3c137466b7)" style="fill: #a1c9f4; fill-opacity: 0.2; stroke: #a1c9f4; stroke-opacity: 0.2"/>
    <path d="M 220.161236 410.513299 
L 220.161236 416.141726 
L 221.728652 409.123782 
L 221.728652 406.29198 
L 221.728652 406.29198 
L 220.161236 410.513299 
z
" clip-path="url(#p3c137466b7)" style="fill: #a1c9f4; fill-opacity: 0.2; stroke: #a1c9f4; stroke-opacity: 0.2"/>
    <path d="M 224.863483 398.552893 
L 224.863483 403.477766 
L 225.647191 395.914569 
L 227.214607 389.406701 
L 227.214607 384.481827 
L 227.214607 384.481827 
L 225.647191 391.51736 
L 224.863483 398.552893 
z
" clip-path="url(#p3c137466b7)" style="fill: #a1c9f4; fill-opacity: 0.2; stroke: #a1c9f4; stroke-opacity: 0.2"/>
    <path d="M 234.267978 379.556954 
L 234.267978 382.371168 
L 236.619101 379.556954 
L 236.619101 375.335635 
L 236.619101 375.335635 
L 234.267978 379.556954 
z
" clip-path="url(#p3c137466b7)" style="fill: #a1c9f4; fill-opacity: 0.2; stroke: #a1c9f4; stroke-opacity: 0.2"/>
    <path d="M 243.672472 368.300102 
L 243.672472 373.224975 
L 243.672472 368.300102 
L 243.672472 368.300102 
z
" clip-path="url(#p3c137466b7)" style="fill: #a1c9f4; fill-opacity: 0.2; stroke: #a1c9f4; stroke-opacity: 0.2"/>
    <path d="M 246.023596 363.375228 
L 246.023596 366.189442 
L 246.023596 363.375228 
L 246.023596 363.375228 
z
" clip-path="url(#p3c137466b7)" style="fill: #a1c9f4; fill-opacity: 0.2; stroke: #a1c9f4; stroke-opacity: 0.2"/>
    <path d="M 250.725843 357.746802 
L 250.725843 359.857462 
L 250.725843 357.746802 
L 250.725843 357.746802 
z
" clip-path="url(#p3c137466b7)" style="fill: #a1c9f4; fill-opacity: 0.2; stroke: #a1c9f4; stroke-opacity: 0.2"/>
    <path d="M 255.42809 351.414822 
L 255.42809 355.636142 
L 257.779213 351.414822 
L 257.779213 345.082843 
L 257.779213 345.082843 
L 255.42809 351.414822 
z
" clip-path="url(#p3c137466b7)" style="fill: #a1c9f4; fill-opacity: 0.2; stroke: #a1c9f4; stroke-opacity: 0.2"/>
    <path d="M 266.4 333.82599 
L 266.4 339.454416 
L 266.4 333.82599 
L 266.4 333.82599 
z
" clip-path="url(#p3c137466b7)" style="fill: #a1c9f4; fill-opacity: 0.2; stroke: #a1c9f4; stroke-opacity: 0.2"/>
    <path d="M 281.290449 315.533604 
L 281.290449 326.790457 
L 281.290449 315.533604 
L 281.290449 315.533604 
z
" clip-path="url(#p3c137466b7)" style="fill: #a1c9f4; fill-opacity: 0.2; stroke: #a1c9f4; stroke-opacity: 0.2"/>
    <path d="M 293.046067 312.015838 
L 293.046067 313.422944 
L 295.397191 312.015838 
L 295.397191 304.980305 
L 295.397191 304.980305 
L 293.046067 312.015838 
z
" clip-path="url(#p3c137466b7)" style="fill: #a1c9f4; fill-opacity: 0.2; stroke: #a1c9f4; stroke-opacity: 0.2"/>
    <path d="M 305.585393 301.462538 
L 305.585393 302.869645 
L 306.369101 300.055431 
L 307.936517 296.537665 
L 307.936517 292.316345 
L 307.936517 292.316345 
L 306.369101 297.241218 
L 305.585393 301.462538 
z
" clip-path="url(#p3c137466b7)" style="fill: #a1c9f4; fill-opacity: 0.2; stroke: #a1c9f4; stroke-opacity: 0.2"/>
    <path d="M 311.071348 289.502132 
L 311.071348 290.909239 
L 311.071348 289.502132 
L 311.071348 289.502132 
z
" clip-path="url(#p3c137466b7)" style="fill: #a1c9f4; fill-opacity: 0.2; stroke: #a1c9f4; stroke-opacity: 0.2"/>
    <path d="M 314.20618 282.466599 
L 314.20618 288.798579 
L 315.773596 281.763046 
L 317.341011 278.245279 
L 317.341011 276.838173 
L 317.341011 276.838173 
L 315.773596 278.948832 
L 314.20618 282.466599 
z
" clip-path="url(#p3c137466b7)" style="fill: #a1c9f4; fill-opacity: 0.2; stroke: #a1c9f4; stroke-opacity: 0.2"/>
    <path d="M 325.17809 269.099086 
L 325.17809 273.320406 
L 325.17809 269.099086 
L 325.17809 269.099086 
z
" clip-path="url(#p3c137466b7)" style="fill: #a1c9f4; fill-opacity: 0.2; stroke: #a1c9f4; stroke-opacity: 0.2"/>
    <path d="M 337.717416 262.063553 
L 337.717416 266.284873 
L 338.501124 260.656447 
L 338.501124 257.842234 
L 338.501124 257.842234 
L 337.717416 262.063553 
z
" clip-path="url(#p3c137466b7)" style="fill: #a1c9f4; fill-opacity: 0.2; stroke: #a1c9f4; stroke-opacity: 0.2"/>
    <path d="M 347.905618 252.91736 
L 347.905618 255.731574 
L 349.473034 250.103147 
L 350.256742 247.288934 
L 350.256742 245.881827 
L 350.256742 245.881827 
L 349.473034 248.696041 
L 347.905618 252.91736 
z
" clip-path="url(#p3c137466b7)" style="fill: #a1c9f4; fill-opacity: 0.2; stroke: #a1c9f4; stroke-opacity: 0.2"/>
    <path d="M 371.416854 242.364061 
L 371.416854 243.771168 
L 371.416854 242.364061 
L 371.416854 242.364061 
z
" clip-path="url(#p3c137466b7)" style="fill: #a1c9f4; fill-opacity: 0.2; stroke: #a1c9f4; stroke-opacity: 0.2"/>
    <path d="M 383.172472 236.032081 
L 383.172472 238.846294 
L 383.172472 236.032081 
L 383.172472 236.032081 
z
" clip-path="url(#p3c137466b7)" style="fill: #a1c9f4; fill-opacity: 0.2; stroke: #a1c9f4; stroke-opacity: 0.2"/>
    <path d="M 386.307303 231.810761 
L 386.307303 234.624975 
L 387.874719 231.107208 
L 387.874719 229.700102 
L 387.874719 229.700102 
L 386.307303 231.810761 
z
" clip-path="url(#p3c137466b7)" style="fill: #a1c9f4; fill-opacity: 0.2; stroke: #a1c9f4; stroke-opacity: 0.2"/>
    <path d="M 394.144382 223.368122 
L 394.144382 224.775228 
L 396.495506 223.368122 
L 398.062921 219.850355 
L 399.630337 216.332589 
L 399.630337 214.221929 
L 399.630337 214.221929 
L 398.062921 217.036142 
L 396.495506 220.553909 
L 394.144382 223.368122 
z
" clip-path="url(#p3c137466b7)" style="fill: #a1c9f4; fill-opacity: 0.2; stroke: #a1c9f4; stroke-opacity: 0.2"/>
    <path d="M 409.034831 212.111269 
L 409.034831 213.518376 
L 411.385955 212.111269 
L 411.385955 206.482843 
L 411.385955 206.482843 
L 409.034831 212.111269 
z
" clip-path="url(#p3c137466b7)" style="fill: #a1c9f4; fill-opacity: 0.2; stroke: #a1c9f4; stroke-opacity: 0.2"/>
    <path d="M 414.520787 202.261523 
L 414.520787 205.779289 
L 416.088202 201.55797 
L 416.088202 200.150863 
L 416.088202 200.150863 
L 414.520787 202.261523 
z
" clip-path="url(#p3c137466b7)" style="fill: #a1c9f4; fill-opacity: 0.2; stroke: #a1c9f4; stroke-opacity: 0.2"/>
    <path d="M 426.276404 193.818883 
L 426.276404 195.22599 
L 426.276404 193.818883 
L 426.276404 193.818883 
z
" clip-path="url(#p3c137466b7)" style="fill: #a1c9f4; fill-opacity: 0.2; stroke: #a1c9f4; stroke-opacity: 0.2"/>
    <path d="M 430.194944 191.00467 
L 430.194944 193.11533 
L 430.194944 191.00467 
L 430.194944 191.00467 
z
" clip-path="url(#p3c137466b7)" style="fill: #a1c9f4; fill-opacity: 0.2; stroke: #a1c9f4; stroke-opacity: 0.2"/>
    <path d="M 435.680899 188.89401 
L 435.680899 189.597563 
L 438.81573 187.486904 
L 438.81573 184.67269 
L 438.81573 184.67269 
L 435.680899 188.89401 
z
" clip-path="url(#p3c137466b7)" style="fill: #a1c9f4; fill-opacity: 0.2; stroke: #a1c9f4; stroke-opacity: 0.2"/>
    <path d="M 442.73427 181.858477 
L 442.73427 183.969137 
L 442.73427 181.858477 
L 442.73427 181.858477 
z
" clip-path="url(#p3c137466b7)" style="fill: #a1c9f4; fill-opacity: 0.2; stroke: #a1c9f4; stroke-opacity: 0.2"/>
    <path d="M 459.975843 176.933604 
L 459.975843 178.340711 
L 459.975843 176.933604 
L 459.975843 176.933604 
z
" clip-path="url(#p3c137466b7)" style="fill: #a1c9f4; fill-opacity: 0.2; stroke: #a1c9f4; stroke-opacity: 0.2"/>
    <path d="M 466.245506 173.415838 
L 466.245506 176.230051 
L 466.245506 173.415838 
L 466.245506 173.415838 
z
" clip-path="url(#p3c137466b7)" style="fill: #a1c9f4; fill-opacity: 0.2; stroke: #a1c9f4; stroke-opacity: 0.2"/>
    <path d="M 477.217416 169.194518 
L 477.217416 170.601624 
L 477.217416 169.194518 
L 477.217416 169.194518 
z
" clip-path="url(#p3c137466b7)" style="fill: #a1c9f4; fill-opacity: 0.2; stroke: #a1c9f4; stroke-opacity: 0.2"/>
    <path d="M 487.405618 161.455431 
L 487.405618 163.566091 
L 487.405618 161.455431 
L 487.405618 161.455431 
z
" clip-path="url(#p3c137466b7)" style="fill: #a1c9f4; fill-opacity: 0.2; stroke: #a1c9f4; stroke-opacity: 0.2"/>
    <path d="M 492.891573 155.123452 
L 492.891573 160.751878 
L 492.891573 155.123452 
L 492.891573 155.123452 
z
" clip-path="url(#p3c137466b7)" style="fill: #a1c9f4; fill-opacity: 0.2; stroke: #a1c9f4; stroke-opacity: 0.2"/>
    <path d="M 521.888764 148.087919 
L 521.888764 149.495025 
L 521.888764 148.087919 
L 521.888764 148.087919 
z
" clip-path="url(#p3c137466b7)" style="fill: #a1c9f4; fill-opacity: 0.2; stroke: #a1c9f4; stroke-opacity: 0.2"/>
    <path d="M 537.562921 142.459492 
L 537.562921 144.570152 
L 544.616292 142.459492 
L 544.616292 140.348832 
L 544.616292 140.348832 
L 537.562921 142.459492 
z
" clip-path="url(#p3c137466b7)" style="fill: #a1c9f4; fill-opacity: 0.2; stroke: #a1c9f4; stroke-opacity: 0.2"/>
    <path d="M 577.532022 134.720406 
L 577.532022 136.127513 
L 577.532022 134.720406 
L 577.532022 134.720406 
z
" clip-path="url(#p3c137466b7)" style="fill: #a1c9f4; fill-opacity: 0.2; stroke: #a1c9f4; stroke-opacity: 0.2"/>
    <path d="M 650.416854 123.463553 
L 650.416854 126.277766 
L 650.416854 123.463553 
L 650.416854 123.463553 
z
" clip-path="url(#p3c137466b7)" style="fill: #a1c9f4; fill-opacity: 0.2; stroke: #a1c9f4; stroke-opacity: 0.2"/>
   </g>
   <g id="line2d_13">
    <path d="M 126.9 676.456447 
L 128.467416 674.345787 
L 130.034831 656.581066 
L 132.385955 644.092995 
L 133.953371 633.979416 
L 134.737079 624.393503 
L 139.439326 622.282843 
L 140.223034 617.709746 
L 141.790449 612.433096 
L 143.357865 605.397563 
L 144.925281 604.69401 
L 147.276404 599.065584 
L 151.978652 588.746802 
L 153.546067 581.476751 
L 154.329775 579.366091 
L 156.680899 577.958985 
L 157.464607 569.692234 
L 158.248315 563.184365 
L 160.599438 563.184365 
L 162.166854 560.370152 
L 163.73427 554.601015 
L 167.652809 541.374213 
L 172.355056 539.263553 
L 173.922472 537.856447 
L 176.273596 534.33868 
L 178.624719 524.207513 
L 180.975843 517.453401 
L 182.543258 516.749848 
L 183.326966 515.342741 
L 188.029213 513.232081 
L 190.380337 507.603655 
L 191.947753 499.161015 
L 192.731461 487.669645 
L 195.866292 472.895025 
L 196.65 468.20467 
L 198.217416 466.09401 
L 200.568539 463.98335 
L 202.135955 461.87269 
L 203.703371 460.465584 
L 204.487079 455.071675 
L 206.054494 449.912284 
L 208.405618 443.814822 
L 213.107865 432.323452 
L 214.675281 422.942741 
L 215.458989 418.955939 
L 217.810112 418.955939 
L 218.59382 417.548832 
L 220.161236 413.327513 
L 221.728652 407.933604 
L 223.296067 403.477766 
L 224.863483 400.898071 
L 225.647191 393.62802 
L 227.214607 386.592487 
L 228.782022 383.778274 
L 230.349438 383.074721 
L 232.700562 383.074721 
L 234.267978 380.964061 
L 236.619101 377.211777 
L 237.402809 373.928528 
L 242.105056 373.928528 
L 245.239888 367.596548 
L 246.023596 364.782335 
L 247.591011 363.375228 
L 249.158427 362.671675 
L 250.725843 358.802132 
L 254.644382 357.043249 
L 255.42809 353.525482 
L 257.779213 347.897056 
L 258.562921 343.675736 
L 260.130337 342.268629 
L 260.914045 340.861523 
L 264.832584 340.861523 
L 266.4 336.640203 
L 267.183708 332.418883 
L 268.751124 331.71533 
L 270.318539 331.71533 
L 271.102247 330.308223 
L 275.804494 330.308223 
L 277.37191 329.60467 
L 278.155618 328.197563 
L 280.506742 328.197563 
L 281.290449 322.100102 
L 285.992697 315.533604 
L 290.694944 313.422944 
L 293.046067 312.719391 
L 295.397191 308.263553 
L 297.748315 304.980305 
L 299.31573 303.573198 
L 300.883146 302.869645 
L 305.585393 302.166091 
L 306.369101 298.648325 
L 307.936517 294.661523 
L 310.28764 292.316345 
L 311.071348 290.205685 
L 312.638764 288.798579 
L 314.20618 285.749848 
L 315.773596 280.355939 
L 317.341011 277.541726 
L 318.908427 276.134619 
L 322.043258 274.727513 
L 324.394382 274.727513 
L 325.17809 271.209746 
L 327.529213 269.099086 
L 333.798876 266.284873 
L 336.15 266.284873 
L 337.717416 264.174213 
L 338.501124 259.24934 
L 340.068539 257.13868 
L 340.852247 255.731574 
L 347.905618 254.324467 
L 350.256742 246.585381 
L 357.310112 245.881827 
L 358.09382 244.474721 
L 359.661236 243.771168 
L 371.416854 243.067614 
L 372.98427 240.956954 
L 375.335393 240.956954 
L 376.902809 240.253401 
L 379.253933 240.253401 
L 380.821348 238.846294 
L 385.523596 236.032081 
L 386.307303 233.217868 
L 387.874719 230.403655 
L 389.442135 226.885888 
L 391.009551 226.182335 
L 391.793258 224.775228 
L 394.144382 224.071675 
L 396.495506 221.961015 
L 398.062921 218.443249 
L 399.630337 215.277259 
L 401.197753 214.221929 
L 402.765169 213.518376 
L 404.332584 213.518376 
L 409.034831 212.814822 
L 411.385955 208.82802 
L 412.953371 206.482843 
L 414.520787 203.903147 
L 416.088202 200.854416 
L 417.655618 198.743756 
L 420.006742 198.743756 
L 421.574157 197.33665 
L 423.141573 196.633096 
L 425.492697 196.633096 
L 426.276404 194.522437 
L 428.627528 193.818883 
L 430.194944 192.06 
L 434.897191 191.00467 
L 435.680899 189.245787 
L 438.81573 186.079797 
L 441.166854 184.67269 
L 442.73427 182.913807 
L 452.138764 181.858477 
L 453.70618 181.154924 
L 454.489888 179.747817 
L 456.057303 179.044264 
L 458.408427 179.044264 
L 461.543258 176.230051 
L 466.245506 174.822944 
L 473.298876 173.415838 
L 474.866292 172.712284 
L 475.65 171.305178 
L 477.217416 169.898071 
L 478.001124 167.787411 
L 479.568539 167.083858 
L 484.270787 167.083858 
L 485.838202 166.380305 
L 487.405618 162.510761 
L 488.973034 160.751878 
L 490.540449 160.751878 
L 492.891573 157.937665 
L 501.51236 154.419898 
L 502.296067 153.012792 
L 509.349438 153.012792 
L 510.916854 152.309239 
L 513.267978 152.309239 
L 514.051685 150.902132 
L 517.186517 149.495025 
L 521.888764 148.791472 
L 525.023596 145.977259 
L 526.591011 145.273706 
L 535.995506 145.273706 
L 537.562921 143.514822 
L 544.616292 141.404162 
L 546.967416 140.348832 
L 547.751124 138.941726 
L 552.453371 138.941726 
L 554.020787 138.238173 
L 561.074157 138.238173 
L 562.641573 137.534619 
L 563.425281 136.127513 
L 577.532022 135.423959 
L 582.23427 134.720406 
L 583.017978 133.313299 
L 585.369101 133.313299 
L 586.936517 132.609746 
L 596.341011 132.609746 
L 597.908427 131.906193 
L 602.610674 131.906193 
L 603.394382 130.499086 
L 622.203371 130.499086 
L 622.987079 129.09198 
L 630.040449 129.09198 
L 631.607865 128.388426 
L 636.310112 128.388426 
L 637.877528 127.684873 
L 640.228652 127.684873 
L 641.796067 126.98132 
L 646.498315 126.98132 
L 648.06573 126.277766 
L 652.767978 123.463553 
L 654.335393 122.76 
L 684.9 122.76 
L 684.9 122.76 
" clip-path="url(#p3c137466b7)" style="fill: none; stroke: #a1c9f4; stroke-width: 6; stroke-linecap: round"/>
   </g>
   <g id="patch_3">
    <path d="M 99 704.88 
L 99 95.04 
" style="fill: none; stroke: #cccccc; stroke-width: 1.25; stroke-linejoin: miter; stroke-linecap: square"/>
   </g>
   <g id="patch_4">
    <path d="M 712.8 704.88 
L 712.8 95.04 
" style="fill: none; stroke: #cccccc; stroke-width: 1.25; stroke-linejoin: miter; stroke-linecap: square"/>
   </g>
   <g id="patch_5">
    <path d="M 99 704.88 
L 712.8 704.88 
" style="fill: none; stroke: #cccccc; stroke-width: 1.25; stroke-linejoin: miter; stroke-linecap: square"/>
   </g>
   <g id="patch_6">
    <path d="M 99 95.04 
L 712.8 95.04 
" style="fill: none; stroke: #cccccc; stroke-width: 1.25; stroke-linejoin: miter; stroke-linecap: square"/>
   </g>
   <g id="text_15">
    <!-- ROC Curve: white_female_liberal -->
    <g style="fill: #262626" transform="translate(240.609375 89.04) scale(0.24 -0.24)">
     <defs>
      <path id="TimesNewRomanPSMT-4f" d="M 2341 4334 
Q 3166 4334 3770 3707 
Q 4375 3081 4375 2144 
Q 4375 1178 3765 540 
Q 3156 -97 2291 -97 
Q 1416 -97 820 525 
Q 225 1147 225 2134 
Q 225 3144 913 3781 
Q 1509 4334 2341 4334 
z
M 2281 4106 
Q 1713 4106 1369 3684 
Q 941 3159 941 2147 
Q 941 1109 1384 550 
Q 1725 125 2284 125 
Q 2881 125 3270 590 
Q 3659 1056 3659 2059 
Q 3659 3147 3231 3681 
Q 2888 4106 2281 4106 
z
" transform="scale(0.015625)"/>
      <path id="TimesNewRomanPSMT-43" d="M 3853 4334 
L 3950 2894 
L 3853 2894 
Q 3659 3541 3300 3825 
Q 2941 4109 2438 4109 
Q 2016 4109 1675 3895 
Q 1334 3681 1139 3212 
Q 944 2744 944 2047 
Q 944 1472 1128 1050 
Q 1313 628 1683 403 
Q 2053 178 2528 178 
Q 2941 178 3256 354 
Q 3572 531 3950 1056 
L 4047 994 
Q 3728 428 3303 165 
Q 2878 -97 2294 -97 
Q 1241 -97 663 684 
Q 231 1266 231 2053 
Q 231 2688 515 3219 
Q 800 3750 1298 4042 
Q 1797 4334 2388 4334 
Q 2847 4334 3294 4109 
Q 3425 4041 3481 4041 
Q 3566 4041 3628 4100 
Q 3709 4184 3744 4334 
L 3853 4334 
z
" transform="scale(0.015625)"/>
      <path id="TimesNewRomanPSMT-20" transform="scale(0.015625)"/>
      <path id="TimesNewRomanPSMT-75" d="M 2709 2863 
L 2709 1128 
Q 2709 631 2732 520 
Q 2756 409 2807 365 
Q 2859 322 2928 322 
Q 3025 322 3147 375 
L 3191 266 
L 2334 -88 
L 2194 -88 
L 2194 519 
Q 1825 119 1631 15 
Q 1438 -88 1222 -88 
Q 981 -88 804 51 
Q 628 191 559 409 
Q 491 628 491 1028 
L 491 2306 
Q 491 2509 447 2587 
Q 403 2666 317 2708 
Q 231 2750 6 2747 
L 6 2863 
L 1009 2863 
L 1009 947 
Q 1009 547 1148 422 
Q 1288 297 1484 297 
Q 1619 297 1789 381 
Q 1959 466 2194 703 
L 2194 2325 
Q 2194 2569 2105 2655 
Q 2016 2741 1734 2747 
L 1734 2863 
L 2709 2863 
z
" transform="scale(0.015625)"/>
      <path id="TimesNewRomanPSMT-72" d="M 1038 2947 
L 1038 2303 
Q 1397 2947 1775 2947 
Q 1947 2947 2059 2842 
Q 2172 2738 2172 2600 
Q 2172 2478 2090 2393 
Q 2009 2309 1897 2309 
Q 1788 2309 1652 2417 
Q 1516 2525 1450 2525 
Q 1394 2525 1328 2463 
Q 1188 2334 1038 2041 
L 1038 669 
Q 1038 431 1097 309 
Q 1138 225 1241 169 
Q 1344 113 1538 113 
L 1538 0 
L 72 0 
L 72 113 
Q 291 113 397 181 
Q 475 231 506 341 
Q 522 394 522 644 
L 522 1753 
Q 522 2253 501 2348 
Q 481 2444 426 2487 
Q 372 2531 291 2531 
Q 194 2531 72 2484 
L 41 2597 
L 906 2947 
L 1038 2947 
z
" transform="scale(0.015625)"/>
      <path id="TimesNewRomanPSMT-76" d="M 53 2863 
L 1400 2863 
L 1400 2747 
L 1313 2747 
Q 1191 2747 1127 2687 
Q 1063 2628 1063 2528 
Q 1063 2419 1128 2269 
L 1794 688 
L 2463 2328 
Q 2534 2503 2534 2594 
Q 2534 2638 2509 2666 
Q 2475 2713 2422 2730 
Q 2369 2747 2206 2747 
L 2206 2863 
L 3141 2863 
L 3141 2747 
Q 2978 2734 2916 2681 
Q 2806 2588 2719 2369 
L 1703 -88 
L 1575 -88 
L 553 2328 
Q 484 2497 421 2570 
Q 359 2644 263 2694 
Q 209 2722 53 2747 
L 53 2863 
z
" transform="scale(0.015625)"/>
      <path id="TimesNewRomanPSMT-65" d="M 681 1784 
Q 678 1147 991 784 
Q 1303 422 1725 422 
Q 2006 422 2214 576 
Q 2422 731 2563 1106 
L 2659 1044 
Q 2594 616 2278 264 
Q 1963 -88 1488 -88 
Q 972 -88 605 314 
Q 238 716 238 1394 
Q 238 2128 614 2539 
Q 991 2950 1559 2950 
Q 2041 2950 2350 2633 
Q 2659 2316 2659 1784 
L 681 1784 
z
M 681 1966 
L 2006 1966 
Q 1991 2241 1941 2353 
Q 1863 2528 1708 2628 
Q 1553 2728 1384 2728 
Q 1125 2728 920 2526 
Q 716 2325 681 1966 
z
" transform="scale(0.015625)"/>
      <path id="TimesNewRomanPSMT-3a" d="M 903 2950 
Q 1047 2950 1148 2848 
Q 1250 2747 1250 2603 
Q 1250 2459 1148 2357 
Q 1047 2256 903 2256 
Q 759 2256 657 2357 
Q 556 2459 556 2603 
Q 556 2747 657 2848 
Q 759 2950 903 2950 
z
M 897 609 
Q 1044 609 1145 506 
Q 1247 403 1247 259 
Q 1247 116 1144 14 
Q 1041 -88 897 -88 
Q 753 -88 651 14 
Q 550 116 550 259 
Q 550 403 651 506 
Q 753 609 897 609 
z
" transform="scale(0.015625)"/>
      <path id="TimesNewRomanPSMT-77" d="M 41 2863 
L 1241 2863 
L 1241 2747 
Q 1075 2734 1023 2687 
Q 972 2641 972 2553 
Q 972 2456 1025 2319 
L 1638 672 
L 2253 2013 
L 2091 2434 
Q 2016 2622 1894 2694 
Q 1825 2738 1638 2747 
L 1638 2863 
L 3000 2863 
L 3000 2747 
Q 2775 2738 2681 2666 
Q 2619 2616 2619 2506 
Q 2619 2444 2644 2378 
L 3294 734 
L 3897 2319 
Q 3959 2488 3959 2588 
Q 3959 2647 3898 2694 
Q 3838 2741 3659 2747 
L 3659 2863 
L 4563 2863 
L 4563 2747 
Q 4291 2706 4163 2378 
L 3206 -88 
L 3078 -88 
L 2363 1741 
L 1528 -88 
L 1413 -88 
L 494 2319 
Q 403 2547 315 2626 
Q 228 2706 41 2747 
L 41 2863 
z
" transform="scale(0.015625)"/>
      <path id="TimesNewRomanPSMT-68" d="M 1041 4444 
L 1041 2350 
Q 1388 2731 1591 2839 
Q 1794 2947 1997 2947 
Q 2241 2947 2416 2812 
Q 2591 2678 2675 2391 
Q 2734 2191 2734 1659 
L 2734 647 
Q 2734 375 2778 275 
Q 2809 200 2884 156 
Q 2959 113 3159 113 
L 3159 0 
L 1753 0 
L 1753 113 
L 1819 113 
Q 2019 113 2097 173 
Q 2175 234 2206 353 
Q 2216 403 2216 647 
L 2216 1659 
Q 2216 2128 2167 2275 
Q 2119 2422 2012 2495 
Q 1906 2569 1756 2569 
Q 1603 2569 1437 2487 
Q 1272 2406 1041 2159 
L 1041 647 
Q 1041 353 1073 281 
Q 1106 209 1195 161 
Q 1284 113 1503 113 
L 1503 0 
L 84 0 
L 84 113 
Q 275 113 384 172 
Q 447 203 484 290 
Q 522 378 522 647 
L 522 3238 
Q 522 3728 498 3840 
Q 475 3953 426 3993 
Q 378 4034 297 4034 
Q 231 4034 84 3984 
L 41 4094 
L 897 4444 
L 1041 4444 
z
" transform="scale(0.015625)"/>
      <path id="TimesNewRomanPSMT-69" d="M 928 4444 
Q 1059 4444 1151 4351 
Q 1244 4259 1244 4128 
Q 1244 3997 1151 3903 
Q 1059 3809 928 3809 
Q 797 3809 703 3903 
Q 609 3997 609 4128 
Q 609 4259 701 4351 
Q 794 4444 928 4444 
z
M 1188 2947 
L 1188 647 
Q 1188 378 1227 289 
Q 1266 200 1342 156 
Q 1419 113 1622 113 
L 1622 0 
L 231 0 
L 231 113 
Q 441 113 512 153 
Q 584 194 626 287 
Q 669 381 669 647 
L 669 1750 
Q 669 2216 641 2353 
Q 619 2453 572 2492 
Q 525 2531 444 2531 
Q 356 2531 231 2484 
L 188 2597 
L 1050 2947 
L 1188 2947 
z
" transform="scale(0.015625)"/>
      <path id="TimesNewRomanPSMT-74" d="M 1031 3803 
L 1031 2863 
L 1700 2863 
L 1700 2644 
L 1031 2644 
L 1031 788 
Q 1031 509 1111 412 
Q 1191 316 1316 316 
Q 1419 316 1516 380 
Q 1613 444 1666 569 
L 1788 569 
Q 1678 263 1478 108 
Q 1278 -47 1066 -47 
Q 922 -47 784 33 
Q 647 113 581 261 
Q 516 409 516 719 
L 516 2644 
L 63 2644 
L 63 2747 
Q 234 2816 414 2980 
Q 594 3144 734 3369 
Q 806 3488 934 3803 
L 1031 3803 
z
" transform="scale(0.015625)"/>
      <path id="TimesNewRomanPSMT-5f" d="M 3256 -1381 
L -53 -1381 
L -53 -1119 
L 3256 -1119 
L 3256 -1381 
z
" transform="scale(0.015625)"/>
      <path id="TimesNewRomanPSMT-66" d="M 1319 2638 
L 1319 756 
Q 1319 356 1406 250 
Q 1522 113 1716 113 
L 1975 113 
L 1975 0 
L 266 0 
L 266 113 
L 394 113 
Q 519 113 622 175 
Q 725 238 764 344 
Q 803 450 803 756 
L 803 2638 
L 247 2638 
L 247 2863 
L 803 2863 
L 803 3050 
Q 803 3478 940 3775 
Q 1078 4072 1361 4255 
Q 1644 4438 1997 4438 
Q 2325 4438 2600 4225 
Q 2781 4084 2781 3909 
Q 2781 3816 2700 3733 
Q 2619 3650 2525 3650 
Q 2453 3650 2373 3701 
Q 2294 3753 2178 3923 
Q 2063 4094 1966 4153 
Q 1869 4213 1750 4213 
Q 1606 4213 1506 4136 
Q 1406 4059 1362 3898 
Q 1319 3738 1319 3069 
L 1319 2863 
L 2056 2863 
L 2056 2638 
L 1319 2638 
z
" transform="scale(0.015625)"/>
      <path id="TimesNewRomanPSMT-6d" d="M 1050 2338 
Q 1363 2650 1419 2697 
Q 1559 2816 1721 2881 
Q 1884 2947 2044 2947 
Q 2313 2947 2506 2790 
Q 2700 2634 2766 2338 
Q 3088 2713 3309 2830 
Q 3531 2947 3766 2947 
Q 3994 2947 4170 2830 
Q 4347 2713 4450 2447 
Q 4519 2266 4519 1878 
L 4519 647 
Q 4519 378 4559 278 
Q 4591 209 4675 161 
Q 4759 113 4950 113 
L 4950 0 
L 3538 0 
L 3538 113 
L 3597 113 
Q 3781 113 3884 184 
Q 3956 234 3988 344 
Q 4000 397 4000 647 
L 4000 1878 
Q 4000 2228 3916 2372 
Q 3794 2572 3525 2572 
Q 3359 2572 3192 2489 
Q 3025 2406 2788 2181 
L 2781 2147 
L 2788 2013 
L 2788 647 
Q 2788 353 2820 281 
Q 2853 209 2943 161 
Q 3034 113 3253 113 
L 3253 0 
L 1806 0 
L 1806 113 
Q 2044 113 2133 169 
Q 2222 225 2256 338 
Q 2272 391 2272 647 
L 2272 1878 
Q 2272 2228 2169 2381 
Q 2031 2581 1784 2581 
Q 1616 2581 1450 2491 
Q 1191 2353 1050 2181 
L 1050 647 
Q 1050 366 1089 281 
Q 1128 197 1204 155 
Q 1281 113 1516 113 
L 1516 0 
L 100 0 
L 100 113 
Q 297 113 375 155 
Q 453 197 493 289 
Q 534 381 534 647 
L 534 1741 
Q 534 2213 506 2350 
Q 484 2453 437 2492 
Q 391 2531 309 2531 
Q 222 2531 100 2484 
L 53 2597 
L 916 2947 
L 1050 2947 
L 1050 2338 
z
" transform="scale(0.015625)"/>
      <path id="TimesNewRomanPSMT-61" d="M 1822 413 
Q 1381 72 1269 19 
Q 1100 -59 909 -59 
Q 613 -59 420 144 
Q 228 347 228 678 
Q 228 888 322 1041 
Q 450 1253 767 1440 
Q 1084 1628 1822 1897 
L 1822 2009 
Q 1822 2438 1686 2597 
Q 1550 2756 1291 2756 
Q 1094 2756 978 2650 
Q 859 2544 859 2406 
L 866 2225 
Q 866 2081 792 2003 
Q 719 1925 600 1925 
Q 484 1925 411 2006 
Q 338 2088 338 2228 
Q 338 2497 613 2722 
Q 888 2947 1384 2947 
Q 1766 2947 2009 2819 
Q 2194 2722 2281 2516 
Q 2338 2381 2338 1966 
L 2338 994 
Q 2338 584 2353 492 
Q 2369 400 2405 369 
Q 2441 338 2488 338 
Q 2538 338 2575 359 
Q 2641 400 2828 588 
L 2828 413 
Q 2478 -56 2159 -56 
Q 2006 -56 1915 50 
Q 1825 156 1822 413 
z
M 1822 616 
L 1822 1706 
Q 1350 1519 1213 1441 
Q 966 1303 859 1153 
Q 753 1003 753 825 
Q 753 600 887 451 
Q 1022 303 1197 303 
Q 1434 303 1822 616 
z
" transform="scale(0.015625)"/>
      <path id="TimesNewRomanPSMT-6c" d="M 1184 4444 
L 1184 647 
Q 1184 378 1223 290 
Q 1263 203 1344 158 
Q 1425 113 1647 113 
L 1647 0 
L 244 0 
L 244 113 
Q 441 113 512 153 
Q 584 194 625 287 
Q 666 381 666 647 
L 666 3247 
Q 666 3731 644 3842 
Q 622 3953 573 3993 
Q 525 4034 450 4034 
Q 369 4034 244 3984 
L 191 4094 
L 1044 4444 
L 1184 4444 
z
" transform="scale(0.015625)"/>
      <path id="TimesNewRomanPSMT-62" d="M 984 2369 
Q 1400 2947 1881 2947 
Q 2322 2947 2650 2570 
Q 2978 2194 2978 1541 
Q 2978 778 2472 313 
Q 2038 -88 1503 -88 
Q 1253 -88 995 3 
Q 738 94 469 275 
L 469 3241 
Q 469 3728 445 3840 
Q 422 3953 372 3993 
Q 322 4034 247 4034 
Q 159 4034 28 3984 
L -16 4094 
L 844 4444 
L 984 4444 
L 984 2369 
z
M 984 2169 
L 984 456 
Q 1144 300 1314 220 
Q 1484 141 1663 141 
Q 1947 141 2192 453 
Q 2438 766 2438 1363 
Q 2438 1913 2192 2208 
Q 1947 2503 1634 2503 
Q 1469 2503 1303 2419 
Q 1178 2356 984 2169 
z
" transform="scale(0.015625)"/>
     </defs>
     <use xlink:href="#TimesNewRomanPSMT-52"/>
     <use xlink:href="#TimesNewRomanPSMT-4f" x="66.699219"/>
     <use xlink:href="#TimesNewRomanPSMT-43" x="138.916016"/>
     <use xlink:href="#TimesNewRomanPSMT-20" x="205.615234"/>
     <use xlink:href="#TimesNewRomanPSMT-43" x="230.615234"/>
     <use xlink:href="#TimesNewRomanPSMT-75" x="297.314453"/>
     <use xlink:href="#TimesNewRomanPSMT-72" x="347.314453"/>
     <use xlink:href="#TimesNewRomanPSMT-76" x="380.615234"/>
     <use xlink:href="#TimesNewRomanPSMT-65" x="430.615234"/>
     <use xlink:href="#TimesNewRomanPSMT-3a" x="475"/>
     <use xlink:href="#TimesNewRomanPSMT-20" x="502.783203"/>
     <use xlink:href="#TimesNewRomanPSMT-77" x="527.783203"/>
     <use xlink:href="#TimesNewRomanPSMT-68" x="600"/>
     <use xlink:href="#TimesNewRomanPSMT-69" x="650"/>
     <use xlink:href="#TimesNewRomanPSMT-74" x="677.783203"/>
     <use xlink:href="#TimesNewRomanPSMT-65" x="705.566406"/>
     <use xlink:href="#TimesNewRomanPSMT-5f" x="749.951172"/>
     <use xlink:href="#TimesNewRomanPSMT-66" x="799.951172"/>
     <use xlink:href="#TimesNewRomanPSMT-65" x="833.251953"/>
     <use xlink:href="#TimesNewRomanPSMT-6d" x="877.636719"/>
     <use xlink:href="#TimesNewRomanPSMT-61" x="955.419922"/>
     <use xlink:href="#TimesNewRomanPSMT-6c" x="999.804688"/>
     <use xlink:href="#TimesNewRomanPSMT-65" x="1027.587891"/>
     <use xlink:href="#TimesNewRomanPSMT-5f" x="1071.972656"/>
     <use xlink:href="#TimesNewRomanPSMT-6c" x="1121.972656"/>
     <use xlink:href="#TimesNewRomanPSMT-69" x="1149.755859"/>
     <use xlink:href="#TimesNewRomanPSMT-62" x="1177.539062"/>
     <use xlink:href="#TimesNewRomanPSMT-65" x="1227.539062"/>
     <use xlink:href="#TimesNewRomanPSMT-72" x="1271.923828"/>
     <use xlink:href="#TimesNewRomanPSMT-61" x="1305.224609"/>
     <use xlink:href="#TimesNewRomanPSMT-6c" x="1349.609375"/>
    </g>
   </g>
  </g>
 </g>
 <defs>
  <clipPath id="p3c137466b7">
   <rect x="99" y="95.04" width="613.8" height="609.84"/>
  </clipPath>
 </defs>
</svg>
