<?xml version="1.0" encoding="utf-8" standalone="no"?>
<!DOCTYPE svg PUBLIC "-//W3C//DTD SVG 1.1//EN"
  "http://www.w3.org/Graphics/SVG/1.1/DTD/svg11.dtd">
<svg xmlns:xlink="http://www.w3.org/1999/xlink" width="792pt" height="792pt" viewBox="0 0 792 792" xmlns="http://www.w3.org/2000/svg" version="1.1">
 <metadata>
  <rdf:RDF xmlns:dc="http://purl.org/dc/elements/1.1/" xmlns:cc="http://creativecommons.org/ns#" xmlns:rdf="http://www.w3.org/1999/02/22-rdf-syntax-ns#">
   <cc:Work>
    <dc:type rdf:resource="http://purl.org/dc/dcmitype/StillImage"/>
    <dc:date>2024-04-30T17:08:26.444053</dc:date>
    <dc:format>image/svg+xml</dc:format>
    <dc:creator>
     <cc:Agent>
      <dc:title>Matplotlib v3.8.4, https://matplotlib.org/</dc:title>
     </cc:Agent>
    </dc:creator>
   </cc:Work>
  </rdf:RDF>
 </metadata>
 <defs>
  <style type="text/css">*{stroke-linejoin: round; stroke-linecap: butt}</style>
 </defs>
 <g id="figure_1">
  <g id="patch_1">
   <path d="M 0 792 
L 792 792 
L 792 0 
L 0 0 
z
" style="fill: #ffffff"/>
  </g>
  <g id="axes_1">
   <g id="patch_2">
    <path d="M 99 704.88 
L 712.8 704.88 
L 712.8 95.04 
L 99 95.04 
z
" style="fill: #ffffff"/>
   </g>
   <g id="matplotlib.axis_1">
    <g id="xtick_1">
     <g id="line2d_1">
      <path d="M 126.9 704.88 
L 126.9 95.04 
" clip-path="url(#paeea3557da)" style="fill: none; stroke: #cccccc; stroke-linecap: round"/>
     </g>
     <g id="text_1">
      <!-- 0.0 -->
      <g style="fill: #262626" transform="translate(113.15 729.65625) scale(0.22 -0.22)">
       <defs>
        <path id="TimesNewRomanPSMT-30" d="M 231 2094 
Q 231 2819 450 3342 
Q 669 3866 1031 4122 
Q 1313 4325 1613 4325 
Q 2100 4325 2488 3828 
Q 2972 3213 2972 2159 
Q 2972 1422 2759 906 
Q 2547 391 2217 158 
Q 1888 -75 1581 -75 
Q 975 -75 572 641 
Q 231 1244 231 2094 
z
M 844 2016 
Q 844 1141 1059 588 
Q 1238 122 1591 122 
Q 1759 122 1940 273 
Q 2122 425 2216 781 
Q 2359 1319 2359 2297 
Q 2359 3022 2209 3506 
Q 2097 3866 1919 4016 
Q 1791 4119 1609 4119 
Q 1397 4119 1231 3928 
Q 1006 3669 925 3112 
Q 844 2556 844 2016 
z
" transform="scale(0.015625)"/>
        <path id="TimesNewRomanPSMT-2e" d="M 800 606 
Q 947 606 1047 504 
Q 1147 403 1147 259 
Q 1147 116 1045 14 
Q 944 -88 800 -88 
Q 656 -88 554 14 
Q 453 116 453 259 
Q 453 406 554 506 
Q 656 606 800 606 
z
" transform="scale(0.015625)"/>
       </defs>
       <use xlink:href="#TimesNewRomanPSMT-30"/>
       <use xlink:href="#TimesNewRomanPSMT-2e" x="50"/>
       <use xlink:href="#TimesNewRomanPSMT-30" x="75"/>
      </g>
     </g>
    </g>
    <g id="xtick_2">
     <g id="line2d_2">
      <path d="M 238.5 704.88 
L 238.5 95.04 
" clip-path="url(#paeea3557da)" style="fill: none; stroke: #cccccc; stroke-linecap: round"/>
     </g>
     <g id="text_2">
      <!-- 0.2 -->
      <g style="fill: #262626" transform="translate(224.75 729.65625) scale(0.22 -0.22)">
       <defs>
        <path id="TimesNewRomanPSMT-32" d="M 2934 816 
L 2638 0 
L 138 0 
L 138 116 
Q 1241 1122 1691 1759 
Q 2141 2397 2141 2925 
Q 2141 3328 1894 3587 
Q 1647 3847 1303 3847 
Q 991 3847 742 3664 
Q 494 3481 375 3128 
L 259 3128 
Q 338 3706 661 4015 
Q 984 4325 1469 4325 
Q 1984 4325 2329 3994 
Q 2675 3663 2675 3213 
Q 2675 2891 2525 2569 
Q 2294 2063 1775 1497 
Q 997 647 803 472 
L 1909 472 
Q 2247 472 2383 497 
Q 2519 522 2628 598 
Q 2738 675 2819 816 
L 2934 816 
z
" transform="scale(0.015625)"/>
       </defs>
       <use xlink:href="#TimesNewRomanPSMT-30"/>
       <use xlink:href="#TimesNewRomanPSMT-2e" x="50"/>
       <use xlink:href="#TimesNewRomanPSMT-32" x="75"/>
      </g>
     </g>
    </g>
    <g id="xtick_3">
     <g id="line2d_3">
      <path d="M 350.1 704.88 
L 350.1 95.04 
" clip-path="url(#paeea3557da)" style="fill: none; stroke: #cccccc; stroke-linecap: round"/>
     </g>
     <g id="text_3">
      <!-- 0.4 -->
      <g style="fill: #262626" transform="translate(336.35 729.65625) scale(0.22 -0.22)">
       <defs>
        <path id="TimesNewRomanPSMT-34" d="M 2978 1563 
L 2978 1119 
L 2409 1119 
L 2409 0 
L 1894 0 
L 1894 1119 
L 100 1119 
L 100 1519 
L 2066 4325 
L 2409 4325 
L 2409 1563 
L 2978 1563 
z
M 1894 1563 
L 1894 3666 
L 406 1563 
L 1894 1563 
z
" transform="scale(0.015625)"/>
       </defs>
       <use xlink:href="#TimesNewRomanPSMT-30"/>
       <use xlink:href="#TimesNewRomanPSMT-2e" x="50"/>
       <use xlink:href="#TimesNewRomanPSMT-34" x="75"/>
      </g>
     </g>
    </g>
    <g id="xtick_4">
     <g id="line2d_4">
      <path d="M 461.7 704.88 
L 461.7 95.04 
" clip-path="url(#paeea3557da)" style="fill: none; stroke: #cccccc; stroke-linecap: round"/>
     </g>
     <g id="text_4">
      <!-- 0.6 -->
      <g style="fill: #262626" transform="translate(447.95 729.65625) scale(0.22 -0.22)">
       <defs>
        <path id="TimesNewRomanPSMT-36" d="M 2869 4325 
L 2869 4209 
Q 2456 4169 2195 4045 
Q 1934 3922 1679 3669 
Q 1425 3416 1258 3105 
Q 1091 2794 978 2366 
Q 1428 2675 1881 2675 
Q 2316 2675 2634 2325 
Q 2953 1975 2953 1425 
Q 2953 894 2631 456 
Q 2244 -75 1606 -75 
Q 1172 -75 869 213 
Q 275 772 275 1663 
Q 275 2231 503 2743 
Q 731 3256 1154 3653 
Q 1578 4050 1965 4187 
Q 2353 4325 2688 4325 
L 2869 4325 
z
M 925 2138 
Q 869 1716 869 1456 
Q 869 1156 980 804 
Q 1091 453 1309 247 
Q 1469 100 1697 100 
Q 1969 100 2183 356 
Q 2397 613 2397 1088 
Q 2397 1622 2184 2012 
Q 1972 2403 1581 2403 
Q 1463 2403 1327 2353 
Q 1191 2303 925 2138 
z
" transform="scale(0.015625)"/>
       </defs>
       <use xlink:href="#TimesNewRomanPSMT-30"/>
       <use xlink:href="#TimesNewRomanPSMT-2e" x="50"/>
       <use xlink:href="#TimesNewRomanPSMT-36" x="75"/>
      </g>
     </g>
    </g>
    <g id="xtick_5">
     <g id="line2d_5">
      <path d="M 573.3 704.88 
L 573.3 95.04 
" clip-path="url(#paeea3557da)" style="fill: none; stroke: #cccccc; stroke-linecap: round"/>
     </g>
     <g id="text_5">
      <!-- 0.8 -->
      <g style="fill: #262626" transform="translate(559.55 729.65625) scale(0.22 -0.22)">
       <defs>
        <path id="TimesNewRomanPSMT-38" d="M 1228 2134 
Q 725 2547 579 2797 
Q 434 3047 434 3316 
Q 434 3728 753 4026 
Q 1072 4325 1600 4325 
Q 2113 4325 2425 4047 
Q 2738 3769 2738 3413 
Q 2738 3175 2569 2928 
Q 2400 2681 1866 2347 
Q 2416 1922 2594 1678 
Q 2831 1359 2831 1006 
Q 2831 559 2490 242 
Q 2150 -75 1597 -75 
Q 994 -75 656 303 
Q 388 606 388 966 
Q 388 1247 577 1523 
Q 766 1800 1228 2134 
z
M 1719 2469 
Q 2094 2806 2194 3001 
Q 2294 3197 2294 3444 
Q 2294 3772 2109 3958 
Q 1925 4144 1606 4144 
Q 1288 4144 1088 3959 
Q 888 3775 888 3528 
Q 888 3366 970 3203 
Q 1053 3041 1206 2894 
L 1719 2469 
z
M 1375 2016 
Q 1116 1797 991 1539 
Q 866 1281 866 981 
Q 866 578 1086 336 
Q 1306 94 1647 94 
Q 1984 94 2187 284 
Q 2391 475 2391 747 
Q 2391 972 2272 1150 
Q 2050 1481 1375 2016 
z
" transform="scale(0.015625)"/>
       </defs>
       <use xlink:href="#TimesNewRomanPSMT-30"/>
       <use xlink:href="#TimesNewRomanPSMT-2e" x="50"/>
       <use xlink:href="#TimesNewRomanPSMT-38" x="75"/>
      </g>
     </g>
    </g>
    <g id="xtick_6">
     <g id="line2d_6">
      <path d="M 684.9 704.88 
L 684.9 95.04 
" clip-path="url(#paeea3557da)" style="fill: none; stroke: #cccccc; stroke-linecap: round"/>
     </g>
     <g id="text_6">
      <!-- 1.0 -->
      <g style="fill: #262626" transform="translate(671.15 729.65625) scale(0.22 -0.22)">
       <defs>
        <path id="TimesNewRomanPSMT-31" d="M 750 3822 
L 1781 4325 
L 1884 4325 
L 1884 747 
Q 1884 391 1914 303 
Q 1944 216 2037 169 
Q 2131 122 2419 116 
L 2419 0 
L 825 0 
L 825 116 
Q 1125 122 1212 167 
Q 1300 213 1334 289 
Q 1369 366 1369 747 
L 1369 3034 
Q 1369 3497 1338 3628 
Q 1316 3728 1258 3775 
Q 1200 3822 1119 3822 
Q 1003 3822 797 3725 
L 750 3822 
z
" transform="scale(0.015625)"/>
       </defs>
       <use xlink:href="#TimesNewRomanPSMT-31"/>
       <use xlink:href="#TimesNewRomanPSMT-2e" x="50"/>
       <use xlink:href="#TimesNewRomanPSMT-30" x="75"/>
      </g>
     </g>
    </g>
    <g id="text_7">
     <!-- FPR -->
     <g style="fill: #262626" transform="translate(384.549375 755.027187) scale(0.24 -0.24)">
      <defs>
       <path id="TimesNewRomanPSMT-46" d="M 1309 4006 
L 1309 2341 
L 2081 2341 
Q 2347 2341 2470 2458 
Q 2594 2575 2634 2922 
L 2750 2922 
L 2750 1488 
L 2634 1488 
Q 2631 1734 2570 1850 
Q 2509 1966 2401 2023 
Q 2294 2081 2081 2081 
L 1309 2081 
L 1309 750 
Q 1309 428 1350 325 
Q 1381 247 1481 191 
Q 1619 116 1769 116 
L 1922 116 
L 1922 0 
L 103 0 
L 103 116 
L 253 116 
Q 516 116 634 269 
Q 709 369 709 750 
L 709 3488 
Q 709 3809 669 3913 
Q 638 3991 541 4047 
Q 406 4122 253 4122 
L 103 4122 
L 103 4238 
L 3256 4238 
L 3297 3306 
L 3188 3306 
Q 3106 3603 2998 3742 
Q 2891 3881 2733 3943 
Q 2575 4006 2244 4006 
L 1309 4006 
z
" transform="scale(0.015625)"/>
       <path id="TimesNewRomanPSMT-50" d="M 1313 1984 
L 1313 750 
Q 1313 350 1400 253 
Q 1519 116 1759 116 
L 1922 116 
L 1922 0 
L 106 0 
L 106 116 
L 266 116 
Q 534 116 650 291 
Q 713 388 713 750 
L 713 3488 
Q 713 3888 628 3984 
Q 506 4122 266 4122 
L 106 4122 
L 106 4238 
L 1659 4238 
Q 2228 4238 2556 4120 
Q 2884 4003 3109 3725 
Q 3334 3447 3334 3066 
Q 3334 2547 2992 2222 
Q 2650 1897 2025 1897 
Q 1872 1897 1694 1919 
Q 1516 1941 1313 1984 
z
M 1313 2163 
Q 1478 2131 1606 2115 
Q 1734 2100 1825 2100 
Q 2150 2100 2386 2351 
Q 2622 2603 2622 3003 
Q 2622 3278 2509 3514 
Q 2397 3750 2190 3867 
Q 1984 3984 1722 3984 
Q 1563 3984 1313 3925 
L 1313 2163 
z
" transform="scale(0.015625)"/>
       <path id="TimesNewRomanPSMT-52" d="M 4325 0 
L 3194 0 
L 1759 1981 
Q 1600 1975 1500 1975 
Q 1459 1975 1412 1976 
Q 1366 1978 1316 1981 
L 1316 750 
Q 1316 350 1403 253 
Q 1522 116 1759 116 
L 1925 116 
L 1925 0 
L 109 0 
L 109 116 
L 269 116 
Q 538 116 653 291 
Q 719 388 719 750 
L 719 3488 
Q 719 3888 631 3984 
Q 509 4122 269 4122 
L 109 4122 
L 109 4238 
L 1653 4238 
Q 2328 4238 2648 4139 
Q 2969 4041 3192 3777 
Q 3416 3513 3416 3147 
Q 3416 2756 3161 2468 
Q 2906 2181 2372 2063 
L 3247 847 
Q 3547 428 3762 290 
Q 3978 153 4325 116 
L 4325 0 
z
M 1316 2178 
Q 1375 2178 1419 2176 
Q 1463 2175 1491 2175 
Q 2097 2175 2405 2437 
Q 2713 2700 2713 3106 
Q 2713 3503 2464 3751 
Q 2216 4000 1806 4000 
Q 1625 4000 1316 3941 
L 1316 2178 
z
" transform="scale(0.015625)"/>
      </defs>
      <use xlink:href="#TimesNewRomanPSMT-46"/>
      <use xlink:href="#TimesNewRomanPSMT-50" x="55.615234"/>
      <use xlink:href="#TimesNewRomanPSMT-52" x="111.230469"/>
     </g>
    </g>
   </g>
   <g id="matplotlib.axis_2">
    <g id="ytick_1">
     <g id="line2d_7">
      <path d="M 99 681.413708 
L 712.8 681.413708 
" clip-path="url(#paeea3557da)" style="fill: none; stroke: #cccccc; stroke-linecap: round"/>
     </g>
     <g id="text_8">
      <!-- 0.0 -->
      <g style="fill: #262626" transform="translate(62 689.051833) scale(0.22 -0.22)">
       <use xlink:href="#TimesNewRomanPSMT-30"/>
       <use xlink:href="#TimesNewRomanPSMT-2e" x="50"/>
       <use xlink:href="#TimesNewRomanPSMT-30" x="75"/>
      </g>
     </g>
    </g>
    <g id="ytick_2">
     <g id="line2d_8">
      <path d="M 99 569.682967 
L 712.8 569.682967 
" clip-path="url(#paeea3557da)" style="fill: none; stroke: #cccccc; stroke-linecap: round"/>
     </g>
     <g id="text_9">
      <!-- 0.2 -->
      <g style="fill: #262626" transform="translate(62 577.321092) scale(0.22 -0.22)">
       <use xlink:href="#TimesNewRomanPSMT-30"/>
       <use xlink:href="#TimesNewRomanPSMT-2e" x="50"/>
       <use xlink:href="#TimesNewRomanPSMT-32" x="75"/>
      </g>
     </g>
    </g>
    <g id="ytick_3">
     <g id="line2d_9">
      <path d="M 99 457.952225 
L 712.8 457.952225 
" clip-path="url(#paeea3557da)" style="fill: none; stroke: #cccccc; stroke-linecap: round"/>
     </g>
     <g id="text_10">
      <!-- 0.4 -->
      <g style="fill: #262626" transform="translate(62 465.59035) scale(0.22 -0.22)">
       <use xlink:href="#TimesNewRomanPSMT-30"/>
       <use xlink:href="#TimesNewRomanPSMT-2e" x="50"/>
       <use xlink:href="#TimesNewRomanPSMT-34" x="75"/>
      </g>
     </g>
    </g>
    <g id="ytick_4">
     <g id="line2d_10">
      <path d="M 99 346.221483 
L 712.8 346.221483 
" clip-path="url(#paeea3557da)" style="fill: none; stroke: #cccccc; stroke-linecap: round"/>
     </g>
     <g id="text_11">
      <!-- 0.6 -->
      <g style="fill: #262626" transform="translate(62 353.859608) scale(0.22 -0.22)">
       <use xlink:href="#TimesNewRomanPSMT-30"/>
       <use xlink:href="#TimesNewRomanPSMT-2e" x="50"/>
       <use xlink:href="#TimesNewRomanPSMT-36" x="75"/>
      </g>
     </g>
    </g>
    <g id="ytick_5">
     <g id="line2d_11">
      <path d="M 99 234.490742 
L 712.8 234.490742 
" clip-path="url(#paeea3557da)" style="fill: none; stroke: #cccccc; stroke-linecap: round"/>
     </g>
     <g id="text_12">
      <!-- 0.8 -->
      <g style="fill: #262626" transform="translate(62 242.128867) scale(0.22 -0.22)">
       <use xlink:href="#TimesNewRomanPSMT-30"/>
       <use xlink:href="#TimesNewRomanPSMT-2e" x="50"/>
       <use xlink:href="#TimesNewRomanPSMT-38" x="75"/>
      </g>
     </g>
    </g>
    <g id="ytick_6">
     <g id="line2d_12">
      <path d="M 99 122.76 
L 712.8 122.76 
" clip-path="url(#paeea3557da)" style="fill: none; stroke: #cccccc; stroke-linecap: round"/>
     </g>
     <g id="text_13">
      <!-- 1.0 -->
      <g style="fill: #262626" transform="translate(62 130.398125) scale(0.22 -0.22)">
       <use xlink:href="#TimesNewRomanPSMT-31"/>
       <use xlink:href="#TimesNewRomanPSMT-2e" x="50"/>
       <use xlink:href="#TimesNewRomanPSMT-30" x="75"/>
      </g>
     </g>
    </g>
    <g id="text_14">
     <!-- TPR -->
     <g style="fill: #262626" transform="translate(52.86625 421.966875) rotate(-90) scale(0.24 -0.24)">
      <defs>
       <path id="TimesNewRomanPSMT-54" d="M 3703 4238 
L 3750 3244 
L 3631 3244 
Q 3597 3506 3538 3619 
Q 3441 3800 3280 3886 
Q 3119 3972 2856 3972 
L 2259 3972 
L 2259 734 
Q 2259 344 2344 247 
Q 2463 116 2709 116 
L 2856 116 
L 2856 0 
L 1059 0 
L 1059 116 
L 1209 116 
Q 1478 116 1591 278 
Q 1659 378 1659 734 
L 1659 3972 
L 1150 3972 
Q 853 3972 728 3928 
Q 566 3869 450 3700 
Q 334 3531 313 3244 
L 194 3244 
L 244 4238 
L 3703 4238 
z
" transform="scale(0.015625)"/>
      </defs>
      <use xlink:href="#TimesNewRomanPSMT-54"/>
      <use xlink:href="#TimesNewRomanPSMT-50" x="61.083984"/>
      <use xlink:href="#TimesNewRomanPSMT-52" x="116.699219"/>
     </g>
    </g>
   </g>
   <g id="PolyCollection_1">
    <path d="M 126.9 670.273043 
L 126.9 677.16 
L 126.9 670.273043 
L 126.9 670.273043 
z
" clip-path="url(#paeea3557da)" style="fill: #a1c9f4; fill-opacity: 0.2; stroke: #a1c9f4; stroke-opacity: 0.2"/>
    <path d="M 131.602247 658.727263 
L 131.602247 661.563069 
L 132.385955 657.309361 
L 134.737079 655.891458 
L 134.737079 649.510895 
L 134.737079 649.510895 
L 132.385955 655.891458 
L 131.602247 658.727263 
z
" clip-path="url(#paeea3557da)" style="fill: #a1c9f4; fill-opacity: 0.2; stroke: #a1c9f4; stroke-opacity: 0.2"/>
    <path d="M 139.439326 641.71243 
L 139.439326 647.384041 
L 141.006742 641.003478 
L 141.790449 635.331867 
L 142.574157 629.660256 
L 144.925281 628.242353 
L 144.925281 626.115499 
L 144.925281 626.115499 
L 142.574157 628.242353 
L 141.790449 631.078159 
L 141.006742 636.74977 
L 139.439326 641.71243 
z
" clip-path="url(#paeea3557da)" style="fill: #a1c9f4; fill-opacity: 0.2; stroke: #a1c9f4; stroke-opacity: 0.2"/>
    <path d="M 149.627528 609.809616 
L 149.627528 619.025985 
L 149.627528 609.809616 
L 149.627528 609.809616 
z
" clip-path="url(#paeea3557da)" style="fill: #a1c9f4; fill-opacity: 0.2; stroke: #a1c9f4; stroke-opacity: 0.2"/>
    <path d="M 152.76236 601.302199 
L 152.76236 604.138005 
L 154.329775 599.529821 
L 156.680899 583.578414 
L 158.248315 572.235192 
L 158.248315 565.145678 
L 158.248315 565.145678 
L 156.680899 575.070997 
L 154.329775 588.541074 
L 152.76236 601.302199 
z
" clip-path="url(#paeea3557da)" style="fill: #a1c9f4; fill-opacity: 0.2; stroke: #a1c9f4; stroke-opacity: 0.2"/>
    <path d="M 166.085393 555.929309 
L 166.085393 560.891969 
L 167.652809 554.156931 
L 167.652809 548.121982 
L 167.652809 548.121982 
L 166.085393 555.929309 
z
" clip-path="url(#paeea3557da)" style="fill: #a1c9f4; fill-opacity: 0.2; stroke: #a1c9f4; stroke-opacity: 0.2"/>
    <path d="M 173.922472 542.459233 
L 173.922472 546.712941 
L 173.922472 542.459233 
L 173.922472 542.459233 
z
" clip-path="url(#paeea3557da)" style="fill: #a1c9f4; fill-opacity: 0.2; stroke: #a1c9f4; stroke-opacity: 0.2"/>
    <path d="M 179.408427 538.914476 
L 179.408427 540.332379 
L 180.975843 538.205524 
L 182.543258 530.407059 
L 182.543258 527.571253 
L 182.543258 527.571253 
L 180.975843 533.242864 
L 179.408427 538.914476 
z
" clip-path="url(#paeea3557da)" style="fill: #a1c9f4; fill-opacity: 0.2; stroke: #a1c9f4; stroke-opacity: 0.2"/>
    <path d="M 189.596629 517.645934 
L 189.596629 525.444399 
L 189.596629 517.645934 
L 189.596629 517.645934 
z
" clip-path="url(#paeea3557da)" style="fill: #a1c9f4; fill-opacity: 0.2; stroke: #a1c9f4; stroke-opacity: 0.2"/>
    <path d="M 192.731461 514.101176 
L 192.731461 516.228031 
L 192.731461 514.101176 
L 192.731461 514.101176 
z
" clip-path="url(#paeea3557da)" style="fill: #a1c9f4; fill-opacity: 0.2; stroke: #a1c9f4; stroke-opacity: 0.2"/>
    <path d="M 195.866292 507.720614 
L 195.866292 510.556419 
L 198.217416 505.062046 
L 199.784831 499.922148 
L 201.352247 495.66844 
L 201.352247 491.414731 
L 201.352247 491.414731 
L 199.784831 498.504246 
L 198.217416 500.6311 
L 195.866292 507.720614 
z
" clip-path="url(#paeea3557da)" style="fill: #a1c9f4; fill-opacity: 0.2; stroke: #a1c9f4; stroke-opacity: 0.2"/>
    <path d="M 205.270787 485.74312 
L 205.270787 488.578926 
L 205.270787 485.74312 
L 205.270787 485.74312 
z
" clip-path="url(#paeea3557da)" style="fill: #a1c9f4; fill-opacity: 0.2; stroke: #a1c9f4; stroke-opacity: 0.2"/>
    <path d="M 210.756742 479.835192 
L 210.756742 484.325217 
L 210.756742 479.835192 
L 210.756742 479.835192 
z
" clip-path="url(#paeea3557da)" style="fill: #a1c9f4; fill-opacity: 0.2; stroke: #a1c9f4; stroke-opacity: 0.2"/>
    <path d="M 213.891573 471.564092 
L 213.891573 475.817801 
L 214.675281 470.146189 
L 216.242697 465.892481 
L 218.59382 463.056675 
L 220.161236 453.840307 
L 223.296067 448.168696 
L 223.296067 446.750793 
L 223.296067 446.750793 
L 220.161236 449.586598 
L 218.59382 454.549258 
L 216.242697 463.056675 
L 214.675281 467.310384 
L 213.891573 471.564092 
z
" clip-path="url(#paeea3557da)" style="fill: #a1c9f4; fill-opacity: 0.2; stroke: #a1c9f4; stroke-opacity: 0.2"/>
    <path d="M 227.214607 441.788133 
L 227.214607 443.206036 
L 227.214607 441.788133 
L 227.214607 441.788133 
z
" clip-path="url(#paeea3557da)" style="fill: #a1c9f4; fill-opacity: 0.2; stroke: #a1c9f4; stroke-opacity: 0.2"/>
    <path d="M 232.700562 439.661279 
L 232.700562 441.079182 
L 232.700562 439.661279 
L 232.700562 439.661279 
z
" clip-path="url(#paeea3557da)" style="fill: #a1c9f4; fill-opacity: 0.2; stroke: #a1c9f4; stroke-opacity: 0.2"/>
    <path d="M 249.942135 428.318056 
L 249.942135 435.40757 
L 252.293258 427.041944 
L 253.860674 419.810639 
L 254.644382 415.556931 
L 256.211798 408.467417 
L 256.211798 404.213708 
L 256.211798 404.213708 
L 254.644382 408.467417 
L 253.860674 416.974834 
L 252.293258 421.937494 
L 249.942135 428.318056 
z
" clip-path="url(#paeea3557da)" style="fill: #a1c9f4; fill-opacity: 0.2; stroke: #a1c9f4; stroke-opacity: 0.2"/>
    <path d="M 260.130337 398.542097 
L 260.130337 400.668951 
L 261.697753 397.833146 
L 261.697753 396.415243 
L 261.697753 396.415243 
L 260.130337 398.542097 
z
" clip-path="url(#paeea3557da)" style="fill: #a1c9f4; fill-opacity: 0.2; stroke: #a1c9f4; stroke-opacity: 0.2"/>
    <path d="M 268.751124 385.780972 
L 268.751124 392.161535 
L 268.751124 385.780972 
L 268.751124 385.780972 
z
" clip-path="url(#paeea3557da)" style="fill: #a1c9f4; fill-opacity: 0.2; stroke: #a1c9f4; stroke-opacity: 0.2"/>
    <path d="M 274.237079 380.109361 
L 274.237079 382.236215 
L 274.237079 380.109361 
L 274.237079 380.109361 
z
" clip-path="url(#paeea3557da)" style="fill: #a1c9f4; fill-opacity: 0.2; stroke: #a1c9f4; stroke-opacity: 0.2"/>
    <path d="M 276.588202 372.310895 
L 276.588202 377.982506 
L 276.588202 372.310895 
L 276.588202 372.310895 
z
" clip-path="url(#paeea3557da)" style="fill: #a1c9f4; fill-opacity: 0.2; stroke: #a1c9f4; stroke-opacity: 0.2"/>
    <path d="M 284.425281 361.667762 
L 284.425281 367.702711 
L 286.776404 356.713964 
L 286.776404 350.097084 
L 286.776404 350.097084 
L 284.425281 361.667762 
z
" clip-path="url(#paeea3557da)" style="fill: #a1c9f4; fill-opacity: 0.2; stroke: #a1c9f4; stroke-opacity: 0.2"/>
    <path d="M 292.26236 341.825985 
L 292.26236 343.243887 
L 293.829775 341.117033 
L 295.397191 335.977136 
L 296.180899 329.064859 
L 297.748315 326.938005 
L 297.748315 325.520102 
L 297.748315 325.520102 
L 296.180899 326.938005 
L 295.397191 331.546189 
L 293.829775 337.572276 
L 292.26236 341.825985 
z
" clip-path="url(#paeea3557da)" style="fill: #a1c9f4; fill-opacity: 0.2; stroke: #a1c9f4; stroke-opacity: 0.2"/>
    <path d="M 304.017978 313.467928 
L 304.017978 319.848491 
L 304.017978 313.467928 
L 304.017978 313.467928 
z
" clip-path="url(#paeea3557da)" style="fill: #a1c9f4; fill-opacity: 0.2; stroke: #a1c9f4; stroke-opacity: 0.2"/>
    <path d="M 313.422472 300.352327 
L 313.422472 308.150793 
L 313.422472 300.352327 
L 313.422472 300.352327 
z
" clip-path="url(#paeea3557da)" style="fill: #a1c9f4; fill-opacity: 0.2; stroke: #a1c9f4; stroke-opacity: 0.2"/>
    <path d="M 333.798876 287.236726 
L 333.798876 291.490435 
L 333.798876 287.236726 
L 333.798876 287.236726 
z
" clip-path="url(#paeea3557da)" style="fill: #a1c9f4; fill-opacity: 0.2; stroke: #a1c9f4; stroke-opacity: 0.2"/>
    <path d="M 343.203371 279.438261 
L 343.203371 281.565115 
L 344.770787 278.729309 
L 344.770787 277.311407 
L 344.770787 277.311407 
L 343.203371 279.438261 
z
" clip-path="url(#paeea3557da)" style="fill: #a1c9f4; fill-opacity: 0.2; stroke: #a1c9f4; stroke-opacity: 0.2"/>
    <path d="M 348.689326 275.184552 
L 348.689326 276.602455 
L 358.09382 275.184552 
L 358.09382 273.76665 
L 358.09382 273.76665 
L 348.689326 275.184552 
z
" clip-path="url(#paeea3557da)" style="fill: #a1c9f4; fill-opacity: 0.2; stroke: #a1c9f4; stroke-opacity: 0.2"/>
    <path d="M 361.228652 270.221893 
L 361.228652 272.348747 
L 361.228652 270.221893 
L 361.228652 270.221893 
z
" clip-path="url(#paeea3557da)" style="fill: #a1c9f4; fill-opacity: 0.2; stroke: #a1c9f4; stroke-opacity: 0.2"/>
    <path d="M 364.363483 265.968184 
L 364.363483 268.80399 
L 365.930899 264.550281 
L 365.930899 263.132379 
L 365.930899 263.132379 
L 364.363483 265.968184 
z
" clip-path="url(#paeea3557da)" style="fill: #a1c9f4; fill-opacity: 0.2; stroke: #a1c9f4; stroke-opacity: 0.2"/>
    <path d="M 369.06573 260.296573 
L 369.06573 261.714476 
L 373.767978 260.296573 
L 374.551685 256.042864 
L 376.902809 250.371253 
L 378.470225 248.244399 
L 378.470225 245.408593 
L 378.470225 245.408593 
L 376.902809 248.95335 
L 374.551685 250.371253 
L 373.767978 257.460767 
L 369.06573 260.296573 
z
" clip-path="url(#paeea3557da)" style="fill: #a1c9f4; fill-opacity: 0.2; stroke: #a1c9f4; stroke-opacity: 0.2"/>
    <path d="M 388.658427 241.154885 
L 388.658427 242.572788 
L 390.225843 236.103606 
L 391.793258 221.304246 
L 391.793258 219.886343 
L 391.793258 219.886343 
L 390.225843 227.684808 
L 388.658427 241.154885 
z
" clip-path="url(#paeea3557da)" style="fill: #a1c9f4; fill-opacity: 0.2; stroke: #a1c9f4; stroke-opacity: 0.2"/>
    <path d="M 394.92809 213.50578 
L 394.92809 218.46844 
L 394.92809 213.50578 
L 394.92809 213.50578 
z
" clip-path="url(#paeea3557da)" style="fill: #a1c9f4; fill-opacity: 0.2; stroke: #a1c9f4; stroke-opacity: 0.2"/>
    <path d="M 398.846629 211.378926 
L 398.846629 212.796829 
L 401.197753 211.378926 
L 401.197753 209.252072 
L 401.197753 209.252072 
L 398.846629 211.378926 
z
" clip-path="url(#paeea3557da)" style="fill: #a1c9f4; fill-opacity: 0.2; stroke: #a1c9f4; stroke-opacity: 0.2"/>
    <path d="M 427.84382 199.326752 
L 427.84382 201.453606 
L 429.411236 198.617801 
L 434.113483 197.199898 
L 434.113483 195.781995 
L 434.113483 195.781995 
L 429.411236 197.199898 
L 427.84382 199.326752 
z
" clip-path="url(#paeea3557da)" style="fill: #a1c9f4; fill-opacity: 0.2; stroke: #a1c9f4; stroke-opacity: 0.2"/>
    <path d="M 441.166854 190.819335 
L 441.166854 193.655141 
L 441.166854 190.819335 
L 441.166854 190.819335 
z
" clip-path="url(#paeea3557da)" style="fill: #a1c9f4; fill-opacity: 0.2; stroke: #a1c9f4; stroke-opacity: 0.2"/>
    <path d="M 447.436517 187.274578 
L 447.436517 190.110384 
L 452.138764 187.274578 
L 453.70618 184.438772 
L 456.057303 183.02087 
L 458.408427 179.476113 
L 458.408427 178.05821 
L 458.408427 178.05821 
L 456.057303 179.476113 
L 453.70618 183.02087 
L 452.138764 185.147724 
L 447.436517 187.274578 
z
" clip-path="url(#paeea3557da)" style="fill: #a1c9f4; fill-opacity: 0.2; stroke: #a1c9f4; stroke-opacity: 0.2"/>
    <path d="M 461.543258 174.513453 
L 461.543258 175.931355 
L 461.543258 174.513453 
L 461.543258 174.513453 
z
" clip-path="url(#paeea3557da)" style="fill: #a1c9f4; fill-opacity: 0.2; stroke: #a1c9f4; stroke-opacity: 0.2"/>
    <path d="M 465.461798 171.677647 
L 465.461798 173.09555 
L 465.461798 171.677647 
L 465.461798 171.677647 
z
" clip-path="url(#paeea3557da)" style="fill: #a1c9f4; fill-opacity: 0.2; stroke: #a1c9f4; stroke-opacity: 0.2"/>
    <path d="M 473.298876 168.13289 
L 473.298876 170.259744 
L 473.298876 168.13289 
L 473.298876 168.13289 
z
" clip-path="url(#paeea3557da)" style="fill: #a1c9f4; fill-opacity: 0.2; stroke: #a1c9f4; stroke-opacity: 0.2"/>
    <path d="M 476.433708 163.879182 
L 476.433708 166.714987 
L 476.433708 163.879182 
L 476.433708 163.879182 
z
" clip-path="url(#paeea3557da)" style="fill: #a1c9f4; fill-opacity: 0.2; stroke: #a1c9f4; stroke-opacity: 0.2"/>
    <path d="M 484.270787 161.752327 
L 484.270787 162.461279 
L 484.270787 161.752327 
L 484.270787 161.752327 
z
" clip-path="url(#paeea3557da)" style="fill: #a1c9f4; fill-opacity: 0.2; stroke: #a1c9f4; stroke-opacity: 0.2"/>
    <path d="M 522.672472 153.24491 
L 522.672472 156.080716 
L 529.725843 153.24491 
L 529.725843 151.118056 
L 529.725843 151.118056 
L 522.672472 153.24491 
z
" clip-path="url(#paeea3557da)" style="fill: #a1c9f4; fill-opacity: 0.2; stroke: #a1c9f4; stroke-opacity: 0.2"/>
    <path d="M 566.560112 139.065882 
L 566.560112 141.901688 
L 566.560112 139.065882 
L 566.560112 139.065882 
z
" clip-path="url(#paeea3557da)" style="fill: #a1c9f4; fill-opacity: 0.2; stroke: #a1c9f4; stroke-opacity: 0.2"/>
    <path d="M 571.26236 135.521125 
L 571.26236 136.939028 
L 571.26236 135.521125 
L 571.26236 135.521125 
z
" clip-path="url(#paeea3557da)" style="fill: #a1c9f4; fill-opacity: 0.2; stroke: #a1c9f4; stroke-opacity: 0.2"/>
    <path d="M 597.124719 131.267417 
L 597.124719 133.394271 
L 597.124719 131.267417 
L 597.124719 131.267417 
z
" clip-path="url(#paeea3557da)" style="fill: #a1c9f4; fill-opacity: 0.2; stroke: #a1c9f4; stroke-opacity: 0.2"/>
    <path d="M 664.523596 123.468951 
L 664.523596 126.304757 
L 664.523596 123.468951 
L 664.523596 123.468951 
z
" clip-path="url(#paeea3557da)" style="fill: #a1c9f4; fill-opacity: 0.2; stroke: #a1c9f4; stroke-opacity: 0.2"/>
   </g>
   <g id="line2d_13">
    <path d="M 126.9 673.513964 
L 129.251124 667.23468 
L 130.034831 665.816777 
L 131.602247 660.145166 
L 132.385955 656.600409 
L 134.737079 652.346701 
L 137.088202 649.510895 
L 138.655618 648.801944 
L 139.439326 644.075601 
L 141.006742 638.876624 
L 141.790449 633.205013 
L 142.574157 628.951304 
L 144.925281 627.178926 
L 145.708989 624.697596 
L 147.276404 620.443887 
L 149.627528 614.417801 
L 151.194944 604.846957 
L 152.76236 602.720102 
L 154.329775 594.567161 
L 158.248315 568.690435 
L 159.032022 563.018824 
L 160.599438 562.309872 
L 162.950562 562.309872 
L 166.085393 558.410639 
L 167.652809 550.96665 
L 172.355056 547.421893 
L 173.922472 544.34977 
L 176.273596 542.459233 
L 177.841011 541.750281 
L 179.408427 539.623427 
L 180.975843 535.724194 
L 182.543258 528.989156 
L 183.326966 526.15335 
L 188.029213 526.15335 
L 189.596629 522.135959 
L 191.947753 517.645934 
L 192.731461 515.164604 
L 194.298876 511.265371 
L 195.866292 509.138517 
L 198.217416 502.757954 
L 199.784831 499.213197 
L 201.352247 493.777903 
L 202.135955 489.996829 
L 204.487079 489.996829 
L 205.270787 487.161023 
L 208.405618 484.325217 
L 210.756742 481.489412 
L 212.324157 478.653606 
L 213.891573 473.690946 
L 214.675281 468.728286 
L 216.242697 464.474578 
L 218.59382 458.802967 
L 220.161236 451.713453 
L 224.863483 445.33289 
L 225.647191 443.914987 
L 228.782022 441.079182 
L 231.133146 441.079182 
L 232.700562 440.37023 
L 237.402809 439.661279 
L 240.53764 439.661279 
L 242.105056 438.243376 
L 242.888764 436.825473 
L 244.45618 436.116522 
L 248.374719 436.116522 
L 249.942135 431.626496 
L 252.293258 424.489719 
L 253.860674 418.392737 
L 254.644382 411.775857 
L 256.211798 406.104246 
L 256.995506 402.795806 
L 258.562921 401.377903 
L 260.130337 399.605524 
L 261.697753 397.124194 
L 264.048876 396.415243 
L 264.832584 394.99734 
L 267.183708 394.99734 
L 268.751124 388.616777 
L 270.318539 382.945166 
L 274.237079 381.172788 
L 275.020787 378.691458 
L 278.155618 371.601944 
L 280.506742 371.601944 
L 283.641573 370.184041 
L 284.425281 364.689668 
L 286.776404 353.523683 
L 287.560112 346.079693 
L 289.911236 346.079693 
L 290.694944 344.66179 
L 292.26236 342.534936 
L 293.829775 339.226496 
L 295.397191 333.850281 
L 296.180899 328.001432 
L 297.748315 326.229054 
L 302.450562 323.393248 
L 304.017978 316.65821 
L 307.152809 310.632123 
L 309.503933 310.632123 
L 311.071348 309.923171 
L 315.773596 298.579949 
L 317.341011 298.579949 
L 320.475843 297.162046 
L 321.259551 295.744143 
L 323.610674 295.744143 
L 326.745506 294.32624 
L 328.312921 292.908338 
L 331.447753 291.490435 
L 333.798876 289.363581 
L 334.582584 285.818824 
L 336.933708 285.818824 
L 338.501124 282.983018 
L 340.852247 282.983018 
L 341.635955 281.565115 
L 343.203371 280.501688 
L 344.770787 278.020358 
L 346.338202 276.602455 
L 348.689326 275.893504 
L 358.09382 274.475601 
L 358.877528 272.348747 
L 363.579775 270.221893 
L 364.363483 267.386087 
L 365.930899 263.84133 
L 366.714607 261.714476 
L 369.06573 261.005524 
L 373.767978 258.87867 
L 374.551685 253.679693 
L 378.470225 246.826496 
L 381.605056 243.990691 
L 386.307303 243.990691 
L 387.091011 242.572788 
L 388.658427 241.863836 
L 390.225843 232.027136 
L 391.793258 220.595294 
L 394.144382 219.886343 
L 394.92809 215.868951 
L 397.279213 213.50578 
L 398.846629 212.087877 
L 401.197753 210.315499 
L 401.981461 207.834169 
L 408.251124 204.998363 
L 410.602247 204.998363 
L 412.169663 203.58046 
L 416.87191 203.58046 
L 421.574157 201.453606 
L 426.276404 201.453606 
L 427.84382 200.390179 
L 429.411236 197.908849 
L 436.464607 195.781995 
L 438.032022 195.073043 
L 438.81573 193.655141 
L 443.517978 190.819335 
L 445.085393 190.110384 
L 447.436517 188.692481 
L 452.138764 186.211151 
L 453.70618 183.729821 
L 456.057303 181.36665 
L 458.408427 178.767161 
L 459.975843 176.640307 
L 461.543258 175.222404 
L 463.894382 174.513453 
L 465.461798 172.386598 
L 467.812921 171.677647 
L 468.596629 170.259744 
L 473.298876 169.196317 
L 474.082584 166.714987 
L 478.784831 163.879182 
L 481.919663 162.461279 
L 484.270787 162.106803 
L 485.054494 160.334425 
L 486.62191 159.625473 
L 491.324157 159.625473 
L 492.891573 158.916522 
L 502.296067 158.916522 
L 508.56573 156.080716 
L 522.672472 154.662813 
L 529.725843 152.181483 
L 534.42809 151.118056 
L 535.995506 150.409105 
L 538.346629 150.409105 
L 539.914045 149.700153 
L 540.697753 148.282251 
L 543.832584 146.864348 
L 546.183708 146.864348 
L 547.751124 146.155396 
L 554.804494 146.155396 
L 556.37191 145.446445 
L 558.723034 145.446445 
L 563.425281 143.319591 
L 564.208989 141.901688 
L 566.560112 140.483785 
L 567.34382 137.64798 
L 568.911236 136.939028 
L 571.26236 136.230077 
L 590.071348 135.521125 
L 590.855056 134.103223 
L 593.20618 134.103223 
L 597.124719 132.330844 
L 615.933708 131.267417 
L 616.717416 129.849514 
L 619.068539 129.849514 
L 620.635955 129.140563 
L 627.689326 129.140563 
L 629.256742 128.431611 
L 638.661236 128.431611 
L 639.444944 127.013708 
L 655.902809 127.013708 
L 657.470225 126.304757 
L 664.523596 124.886854 
L 669.225843 123.468951 
L 670.793258 122.76 
L 684.9 122.76 
L 684.9 122.76 
" clip-path="url(#paeea3557da)" style="fill: none; stroke: #a1c9f4; stroke-width: 6; stroke-linecap: round"/>
   </g>
   <g id="patch_3">
    <path d="M 99 704.88 
L 99 95.04 
" style="fill: none; stroke: #cccccc; stroke-width: 1.25; stroke-linejoin: miter; stroke-linecap: square"/>
   </g>
   <g id="patch_4">
    <path d="M 712.8 704.88 
L 712.8 95.04 
" style="fill: none; stroke: #cccccc; stroke-width: 1.25; stroke-linejoin: miter; stroke-linecap: square"/>
   </g>
   <g id="patch_5">
    <path d="M 99 704.88 
L 712.8 704.88 
" style="fill: none; stroke: #cccccc; stroke-width: 1.25; stroke-linejoin: miter; stroke-linecap: square"/>
   </g>
   <g id="patch_6">
    <path d="M 99 95.04 
L 712.8 95.04 
" style="fill: none; stroke: #cccccc; stroke-width: 1.25; stroke-linejoin: miter; stroke-linecap: square"/>
   </g>
   <g id="text_15">
    <!-- ROC Curve: white_male_liberal -->
    <g style="fill: #262626" transform="translate(249.931875 89.04) scale(0.24 -0.24)">
     <defs>
      <path id="TimesNewRomanPSMT-4f" d="M 2341 4334 
Q 3166 4334 3770 3707 
Q 4375 3081 4375 2144 
Q 4375 1178 3765 540 
Q 3156 -97 2291 -97 
Q 1416 -97 820 525 
Q 225 1147 225 2134 
Q 225 3144 913 3781 
Q 1509 4334 2341 4334 
z
M 2281 4106 
Q 1713 4106 1369 3684 
Q 941 3159 941 2147 
Q 941 1109 1384 550 
Q 1725 125 2284 125 
Q 2881 125 3270 590 
Q 3659 1056 3659 2059 
Q 3659 3147 3231 3681 
Q 2888 4106 2281 4106 
z
" transform="scale(0.015625)"/>
      <path id="TimesNewRomanPSMT-43" d="M 3853 4334 
L 3950 2894 
L 3853 2894 
Q 3659 3541 3300 3825 
Q 2941 4109 2438 4109 
Q 2016 4109 1675 3895 
Q 1334 3681 1139 3212 
Q 944 2744 944 2047 
Q 944 1472 1128 1050 
Q 1313 628 1683 403 
Q 2053 178 2528 178 
Q 2941 178 3256 354 
Q 3572 531 3950 1056 
L 4047 994 
Q 3728 428 3303 165 
Q 2878 -97 2294 -97 
Q 1241 -97 663 684 
Q 231 1266 231 2053 
Q 231 2688 515 3219 
Q 800 3750 1298 4042 
Q 1797 4334 2388 4334 
Q 2847 4334 3294 4109 
Q 3425 4041 3481 4041 
Q 3566 4041 3628 4100 
Q 3709 4184 3744 4334 
L 3853 4334 
z
" transform="scale(0.015625)"/>
      <path id="TimesNewRomanPSMT-20" transform="scale(0.015625)"/>
      <path id="TimesNewRomanPSMT-75" d="M 2709 2863 
L 2709 1128 
Q 2709 631 2732 520 
Q 2756 409 2807 365 
Q 2859 322 2928 322 
Q 3025 322 3147 375 
L 3191 266 
L 2334 -88 
L 2194 -88 
L 2194 519 
Q 1825 119 1631 15 
Q 1438 -88 1222 -88 
Q 981 -88 804 51 
Q 628 191 559 409 
Q 491 628 491 1028 
L 491 2306 
Q 491 2509 447 2587 
Q 403 2666 317 2708 
Q 231 2750 6 2747 
L 6 2863 
L 1009 2863 
L 1009 947 
Q 1009 547 1148 422 
Q 1288 297 1484 297 
Q 1619 297 1789 381 
Q 1959 466 2194 703 
L 2194 2325 
Q 2194 2569 2105 2655 
Q 2016 2741 1734 2747 
L 1734 2863 
L 2709 2863 
z
" transform="scale(0.015625)"/>
      <path id="TimesNewRomanPSMT-72" d="M 1038 2947 
L 1038 2303 
Q 1397 2947 1775 2947 
Q 1947 2947 2059 2842 
Q 2172 2738 2172 2600 
Q 2172 2478 2090 2393 
Q 2009 2309 1897 2309 
Q 1788 2309 1652 2417 
Q 1516 2525 1450 2525 
Q 1394 2525 1328 2463 
Q 1188 2334 1038 2041 
L 1038 669 
Q 1038 431 1097 309 
Q 1138 225 1241 169 
Q 1344 113 1538 113 
L 1538 0 
L 72 0 
L 72 113 
Q 291 113 397 181 
Q 475 231 506 341 
Q 522 394 522 644 
L 522 1753 
Q 522 2253 501 2348 
Q 481 2444 426 2487 
Q 372 2531 291 2531 
Q 194 2531 72 2484 
L 41 2597 
L 906 2947 
L 1038 2947 
z
" transform="scale(0.015625)"/>
      <path id="TimesNewRomanPSMT-76" d="M 53 2863 
L 1400 2863 
L 1400 2747 
L 1313 2747 
Q 1191 2747 1127 2687 
Q 1063 2628 1063 2528 
Q 1063 2419 1128 2269 
L 1794 688 
L 2463 2328 
Q 2534 2503 2534 2594 
Q 2534 2638 2509 2666 
Q 2475 2713 2422 2730 
Q 2369 2747 2206 2747 
L 2206 2863 
L 3141 2863 
L 3141 2747 
Q 2978 2734 2916 2681 
Q 2806 2588 2719 2369 
L 1703 -88 
L 1575 -88 
L 553 2328 
Q 484 2497 421 2570 
Q 359 2644 263 2694 
Q 209 2722 53 2747 
L 53 2863 
z
" transform="scale(0.015625)"/>
      <path id="TimesNewRomanPSMT-65" d="M 681 1784 
Q 678 1147 991 784 
Q 1303 422 1725 422 
Q 2006 422 2214 576 
Q 2422 731 2563 1106 
L 2659 1044 
Q 2594 616 2278 264 
Q 1963 -88 1488 -88 
Q 972 -88 605 314 
Q 238 716 238 1394 
Q 238 2128 614 2539 
Q 991 2950 1559 2950 
Q 2041 2950 2350 2633 
Q 2659 2316 2659 1784 
L 681 1784 
z
M 681 1966 
L 2006 1966 
Q 1991 2241 1941 2353 
Q 1863 2528 1708 2628 
Q 1553 2728 1384 2728 
Q 1125 2728 920 2526 
Q 716 2325 681 1966 
z
" transform="scale(0.015625)"/>
      <path id="TimesNewRomanPSMT-3a" d="M 903 2950 
Q 1047 2950 1148 2848 
Q 1250 2747 1250 2603 
Q 1250 2459 1148 2357 
Q 1047 2256 903 2256 
Q 759 2256 657 2357 
Q 556 2459 556 2603 
Q 556 2747 657 2848 
Q 759 2950 903 2950 
z
M 897 609 
Q 1044 609 1145 506 
Q 1247 403 1247 259 
Q 1247 116 1144 14 
Q 1041 -88 897 -88 
Q 753 -88 651 14 
Q 550 116 550 259 
Q 550 403 651 506 
Q 753 609 897 609 
z
" transform="scale(0.015625)"/>
      <path id="TimesNewRomanPSMT-77" d="M 41 2863 
L 1241 2863 
L 1241 2747 
Q 1075 2734 1023 2687 
Q 972 2641 972 2553 
Q 972 2456 1025 2319 
L 1638 672 
L 2253 2013 
L 2091 2434 
Q 2016 2622 1894 2694 
Q 1825 2738 1638 2747 
L 1638 2863 
L 3000 2863 
L 3000 2747 
Q 2775 2738 2681 2666 
Q 2619 2616 2619 2506 
Q 2619 2444 2644 2378 
L 3294 734 
L 3897 2319 
Q 3959 2488 3959 2588 
Q 3959 2647 3898 2694 
Q 3838 2741 3659 2747 
L 3659 2863 
L 4563 2863 
L 4563 2747 
Q 4291 2706 4163 2378 
L 3206 -88 
L 3078 -88 
L 2363 1741 
L 1528 -88 
L 1413 -88 
L 494 2319 
Q 403 2547 315 2626 
Q 228 2706 41 2747 
L 41 2863 
z
" transform="scale(0.015625)"/>
      <path id="TimesNewRomanPSMT-68" d="M 1041 4444 
L 1041 2350 
Q 1388 2731 1591 2839 
Q 1794 2947 1997 2947 
Q 2241 2947 2416 2812 
Q 2591 2678 2675 2391 
Q 2734 2191 2734 1659 
L 2734 647 
Q 2734 375 2778 275 
Q 2809 200 2884 156 
Q 2959 113 3159 113 
L 3159 0 
L 1753 0 
L 1753 113 
L 1819 113 
Q 2019 113 2097 173 
Q 2175 234 2206 353 
Q 2216 403 2216 647 
L 2216 1659 
Q 2216 2128 2167 2275 
Q 2119 2422 2012 2495 
Q 1906 2569 1756 2569 
Q 1603 2569 1437 2487 
Q 1272 2406 1041 2159 
L 1041 647 
Q 1041 353 1073 281 
Q 1106 209 1195 161 
Q 1284 113 1503 113 
L 1503 0 
L 84 0 
L 84 113 
Q 275 113 384 172 
Q 447 203 484 290 
Q 522 378 522 647 
L 522 3238 
Q 522 3728 498 3840 
Q 475 3953 426 3993 
Q 378 4034 297 4034 
Q 231 4034 84 3984 
L 41 4094 
L 897 4444 
L 1041 4444 
z
" transform="scale(0.015625)"/>
      <path id="TimesNewRomanPSMT-69" d="M 928 4444 
Q 1059 4444 1151 4351 
Q 1244 4259 1244 4128 
Q 1244 3997 1151 3903 
Q 1059 3809 928 3809 
Q 797 3809 703 3903 
Q 609 3997 609 4128 
Q 609 4259 701 4351 
Q 794 4444 928 4444 
z
M 1188 2947 
L 1188 647 
Q 1188 378 1227 289 
Q 1266 200 1342 156 
Q 1419 113 1622 113 
L 1622 0 
L 231 0 
L 231 113 
Q 441 113 512 153 
Q 584 194 626 287 
Q 669 381 669 647 
L 669 1750 
Q 669 2216 641 2353 
Q 619 2453 572 2492 
Q 525 2531 444 2531 
Q 356 2531 231 2484 
L 188 2597 
L 1050 2947 
L 1188 2947 
z
" transform="scale(0.015625)"/>
      <path id="TimesNewRomanPSMT-74" d="M 1031 3803 
L 1031 2863 
L 1700 2863 
L 1700 2644 
L 1031 2644 
L 1031 788 
Q 1031 509 1111 412 
Q 1191 316 1316 316 
Q 1419 316 1516 380 
Q 1613 444 1666 569 
L 1788 569 
Q 1678 263 1478 108 
Q 1278 -47 1066 -47 
Q 922 -47 784 33 
Q 647 113 581 261 
Q 516 409 516 719 
L 516 2644 
L 63 2644 
L 63 2747 
Q 234 2816 414 2980 
Q 594 3144 734 3369 
Q 806 3488 934 3803 
L 1031 3803 
z
" transform="scale(0.015625)"/>
      <path id="TimesNewRomanPSMT-5f" d="M 3256 -1381 
L -53 -1381 
L -53 -1119 
L 3256 -1119 
L 3256 -1381 
z
" transform="scale(0.015625)"/>
      <path id="TimesNewRomanPSMT-6d" d="M 1050 2338 
Q 1363 2650 1419 2697 
Q 1559 2816 1721 2881 
Q 1884 2947 2044 2947 
Q 2313 2947 2506 2790 
Q 2700 2634 2766 2338 
Q 3088 2713 3309 2830 
Q 3531 2947 3766 2947 
Q 3994 2947 4170 2830 
Q 4347 2713 4450 2447 
Q 4519 2266 4519 1878 
L 4519 647 
Q 4519 378 4559 278 
Q 4591 209 4675 161 
Q 4759 113 4950 113 
L 4950 0 
L 3538 0 
L 3538 113 
L 3597 113 
Q 3781 113 3884 184 
Q 3956 234 3988 344 
Q 4000 397 4000 647 
L 4000 1878 
Q 4000 2228 3916 2372 
Q 3794 2572 3525 2572 
Q 3359 2572 3192 2489 
Q 3025 2406 2788 2181 
L 2781 2147 
L 2788 2013 
L 2788 647 
Q 2788 353 2820 281 
Q 2853 209 2943 161 
Q 3034 113 3253 113 
L 3253 0 
L 1806 0 
L 1806 113 
Q 2044 113 2133 169 
Q 2222 225 2256 338 
Q 2272 391 2272 647 
L 2272 1878 
Q 2272 2228 2169 2381 
Q 2031 2581 1784 2581 
Q 1616 2581 1450 2491 
Q 1191 2353 1050 2181 
L 1050 647 
Q 1050 366 1089 281 
Q 1128 197 1204 155 
Q 1281 113 1516 113 
L 1516 0 
L 100 0 
L 100 113 
Q 297 113 375 155 
Q 453 197 493 289 
Q 534 381 534 647 
L 534 1741 
Q 534 2213 506 2350 
Q 484 2453 437 2492 
Q 391 2531 309 2531 
Q 222 2531 100 2484 
L 53 2597 
L 916 2947 
L 1050 2947 
L 1050 2338 
z
" transform="scale(0.015625)"/>
      <path id="TimesNewRomanPSMT-61" d="M 1822 413 
Q 1381 72 1269 19 
Q 1100 -59 909 -59 
Q 613 -59 420 144 
Q 228 347 228 678 
Q 228 888 322 1041 
Q 450 1253 767 1440 
Q 1084 1628 1822 1897 
L 1822 2009 
Q 1822 2438 1686 2597 
Q 1550 2756 1291 2756 
Q 1094 2756 978 2650 
Q 859 2544 859 2406 
L 866 2225 
Q 866 2081 792 2003 
Q 719 1925 600 1925 
Q 484 1925 411 2006 
Q 338 2088 338 2228 
Q 338 2497 613 2722 
Q 888 2947 1384 2947 
Q 1766 2947 2009 2819 
Q 2194 2722 2281 2516 
Q 2338 2381 2338 1966 
L 2338 994 
Q 2338 584 2353 492 
Q 2369 400 2405 369 
Q 2441 338 2488 338 
Q 2538 338 2575 359 
Q 2641 400 2828 588 
L 2828 413 
Q 2478 -56 2159 -56 
Q 2006 -56 1915 50 
Q 1825 156 1822 413 
z
M 1822 616 
L 1822 1706 
Q 1350 1519 1213 1441 
Q 966 1303 859 1153 
Q 753 1003 753 825 
Q 753 600 887 451 
Q 1022 303 1197 303 
Q 1434 303 1822 616 
z
" transform="scale(0.015625)"/>
      <path id="TimesNewRomanPSMT-6c" d="M 1184 4444 
L 1184 647 
Q 1184 378 1223 290 
Q 1263 203 1344 158 
Q 1425 113 1647 113 
L 1647 0 
L 244 0 
L 244 113 
Q 441 113 512 153 
Q 584 194 625 287 
Q 666 381 666 647 
L 666 3247 
Q 666 3731 644 3842 
Q 622 3953 573 3993 
Q 525 4034 450 4034 
Q 369 4034 244 3984 
L 191 4094 
L 1044 4444 
L 1184 4444 
z
" transform="scale(0.015625)"/>
      <path id="TimesNewRomanPSMT-62" d="M 984 2369 
Q 1400 2947 1881 2947 
Q 2322 2947 2650 2570 
Q 2978 2194 2978 1541 
Q 2978 778 2472 313 
Q 2038 -88 1503 -88 
Q 1253 -88 995 3 
Q 738 94 469 275 
L 469 3241 
Q 469 3728 445 3840 
Q 422 3953 372 3993 
Q 322 4034 247 4034 
Q 159 4034 28 3984 
L -16 4094 
L 844 4444 
L 984 4444 
L 984 2369 
z
M 984 2169 
L 984 456 
Q 1144 300 1314 220 
Q 1484 141 1663 141 
Q 1947 141 2192 453 
Q 2438 766 2438 1363 
Q 2438 1913 2192 2208 
Q 1947 2503 1634 2503 
Q 1469 2503 1303 2419 
Q 1178 2356 984 2169 
z
" transform="scale(0.015625)"/>
     </defs>
     <use xlink:href="#TimesNewRomanPSMT-52"/>
     <use xlink:href="#TimesNewRomanPSMT-4f" x="66.699219"/>
     <use xlink:href="#TimesNewRomanPSMT-43" x="138.916016"/>
     <use xlink:href="#TimesNewRomanPSMT-20" x="205.615234"/>
     <use xlink:href="#TimesNewRomanPSMT-43" x="230.615234"/>
     <use xlink:href="#TimesNewRomanPSMT-75" x="297.314453"/>
     <use xlink:href="#TimesNewRomanPSMT-72" x="347.314453"/>
     <use xlink:href="#TimesNewRomanPSMT-76" x="380.615234"/>
     <use xlink:href="#TimesNewRomanPSMT-65" x="430.615234"/>
     <use xlink:href="#TimesNewRomanPSMT-3a" x="475"/>
     <use xlink:href="#TimesNewRomanPSMT-20" x="502.783203"/>
     <use xlink:href="#TimesNewRomanPSMT-77" x="527.783203"/>
     <use xlink:href="#TimesNewRomanPSMT-68" x="600"/>
     <use xlink:href="#TimesNewRomanPSMT-69" x="650"/>
     <use xlink:href="#TimesNewRomanPSMT-74" x="677.783203"/>
     <use xlink:href="#TimesNewRomanPSMT-65" x="705.566406"/>
     <use xlink:href="#TimesNewRomanPSMT-5f" x="749.951172"/>
     <use xlink:href="#TimesNewRomanPSMT-6d" x="799.951172"/>
     <use xlink:href="#TimesNewRomanPSMT-61" x="877.734375"/>
     <use xlink:href="#TimesNewRomanPSMT-6c" x="922.119141"/>
     <use xlink:href="#TimesNewRomanPSMT-65" x="949.902344"/>
     <use xlink:href="#TimesNewRomanPSMT-5f" x="994.287109"/>
     <use xlink:href="#TimesNewRomanPSMT-6c" x="1044.287109"/>
     <use xlink:href="#TimesNewRomanPSMT-69" x="1072.070312"/>
     <use xlink:href="#TimesNewRomanPSMT-62" x="1099.853516"/>
     <use xlink:href="#TimesNewRomanPSMT-65" x="1149.853516"/>
     <use xlink:href="#TimesNewRomanPSMT-72" x="1194.238281"/>
     <use xlink:href="#TimesNewRomanPSMT-61" x="1227.539062"/>
     <use xlink:href="#TimesNewRomanPSMT-6c" x="1271.923828"/>
    </g>
   </g>
  </g>
 </g>
 <defs>
  <clipPath id="paeea3557da">
   <rect x="99" y="95.04" width="613.8" height="609.84"/>
  </clipPath>
 </defs>
</svg>
